<?xml version="1.0" encoding="UTF-8"?>
<svg id="Layer_1" data-name="Layer 1" xmlns="http://www.w3.org/2000/svg" xmlns:xlink="http://www.w3.org/1999/xlink" viewBox="0 0 128 128">
  <defs>
    <style>
      .cls-1 {
        fill: url(#linear-gradient);
      }
    </style>
    <linearGradient id="linear-gradient" x1="64" y1="125.15" x2="64" y2="2.85" gradientUnits="userSpaceOnUse">
      <stop offset="0" stop-color="#ae2012"/>
      <stop offset="1" stop-color="#ee9b00"/>
    </linearGradient>
  </defs>
  <path class="cls-1" d="m106.73,89.56c-5.3-17.42-5.68-23.85-1.89-29.91,0,0-14.39,7.95-12.12,27.26,0,0-3.82-14.56,3.41-26.51,3.39-5.61-1.97-12.12-1.97-12.12,1.51,5.68-2.65,14.77-3.03,4.92-.38-9.84-6.82-20.64-6.82-20.64,7.95,27.07-.38,29.44-.38,29.44,3.97-8.76-5.82-32.37-5.82-32.37,1.09,11.08-1.18,12.78-1.18,12.78-5.68-3.98-.95-16.85-1.7-23.66-.76-6.82-4.47-15.9-4.47-15.9,1.06,17.61-11.74,18.93-9.09,37.49,0,0-4.54-10.98,0-22.34,0,0-17.42,23.85-4.92,52.25,0,0-13.25-10.98-9.09-31.43,0,0-12.5,17.04-4.54,32.18,7.95,15.15-15.52,17.42-10.22-17.04,0,0-12.87,12.12-12.87,34.84,0,21,19.28,34.46,47.01,36.34-14.08-1.35-26.82-8.64-26.82-19.65,0-12.29,6.96-18.85,6.96-18.85-2.87,18.64,9.83,17.41,5.53,9.22-4.3-8.19,2.46-17.41,2.46-17.41-2.25,11.06,4.92,17,4.92,17-6.76-15.36,2.66-28.27,2.66-28.27-2.46,6.15,0,12.09,0,12.09-1.43-10.04,5.49-10.75,4.92-20.28,0,0,2.01,4.92,2.42,8.6.41,3.69-2.15,10.65.92,12.8,0,0,1.23-.92.64-6.91,0,0,5.3,12.77,3.15,17.51,0,0,4.51-1.28.2-15.93,0,0,3.48,5.84,3.69,11.16.2,5.33,2.46.41,1.64-2.66,0,0,2.9,3.52,1.07,6.55-3.91,6.46-1.84,14.34-1.84,14.34-1.23-10.45,6.55-14.75,6.55-14.75-2.05,3.28-1.84,6.76,1.02,16.18,2.82,9.28-3.1,18.94-20.08,19.24.36,0,.71.01,1.08.01,32.56,0,43.92-18.18,38.62-35.59Z"/>
</svg>