<?xml version="1.0" encoding="UTF-8"?>
<svg id="Layer_1" data-name="Layer 1" xmlns="http://www.w3.org/2000/svg" xmlns:xlink="http://www.w3.org/1999/xlink" viewBox="0 0 128 128">
  <defs>
    <style>
      .cls-1 {
        fill: url(#linear-gradient-2);
      }

      .cls-2 {
        fill: url(#linear-gradient);
      }
    </style>
    <linearGradient id="linear-gradient" x1="60.91" y1="126.45" x2="60.91" y2="1.55" gradientUnits="userSpaceOnUse">
      <stop offset="0" stop-color="#ae2012"/>
      <stop offset="1" stop-color="#ee9b00"/>
    </linearGradient>
    <linearGradient id="linear-gradient-2" x1="86.63" y1="75.75" x2="86.63" y2="54.79" xlink:href="#linear-gradient"/>
  </defs>
  <path class="cls-2" d="m60.92,126.45s-22.6-3.97-22.6-19.24,11.6-23.51,3.67-29.62c0,0,8.25-1.83,9.47,13.13,0,0,10.08-14.05-3.97-31.15-14.05-17.1-8.55-27.79-2.14-35.12,6.41-7.33,13.13-12.83,10.69-22.9,0,0,6.41,5.8,4.89,11.6-1.53,5.8-16.49,20.46-3.66,27.49,0,0,14.03,4.01,8.25-10.38,0,0,12.22,4.28,15.57,13.13,3.36,8.86,6.72,23.21-15.88,45.81-22.6,22.6-4.28,37.26-4.28,37.26Z"/>
  <path class="cls-1" d="m83.58,75.75c8.69-9.58,5.53-20.96,5.53-20.96"/>
</svg>