<?xml version="1.0" encoding="UTF-8"?>
<svg id="Layer_1" data-name="Layer 1" xmlns="http://www.w3.org/2000/svg" xmlns:xlink="http://www.w3.org/1999/xlink" viewBox="0 0 128 128">
  <defs>
    <style>
      .cls-1 {
        fill: url(#linear-gradient);
      }
    </style>
    <linearGradient id="linear-gradient" x1="64" y1="127.26" x2="64" y2=".74" gradientUnits="userSpaceOnUse">
      <stop offset="0" stop-color="#ae2012"/>
      <stop offset="1" stop-color="#ee9b00"/>
    </linearGradient>
  </defs>
  <path class="cls-1" d="m83.74,61.74c0,4.55-4.55,10.46-4.55,10.46C89.43,47.22,66.5,8.26,61.83.74c6.66,11.98-8.7,31.5-12.64,45.53-4.09,14.55,9.09,49.1,9.09,49.1-12.73-13.64-14.55-43.19-14.55-43.19,0,0-9.55,27.28,5,50.79,2.25,3.63,4.13,7.27,5.72,10.84.38-2.86,1.02-4.72,1.02-4.72,0,0,.76,12.43,6.12,18.17,0,0-5.54-14.53-3.82-20.65,1.72-6.12,8.6-14.72,4.97-19.69,0,0,12.43,18.93,7.65,30.59,0,0,1.91-2.49,1.91-4.4,0,0,2.54,5.67,1.01,13.31,1.61-4.67,3.76-10.14,7.24-16.95,13.13-25.72,3.18-47.74,3.18-47.74Z"/>
</svg>