<?xml version="1.0" encoding="UTF-8"?>
<svg id="Layer_1" data-name="Layer 1" xmlns="http://www.w3.org/2000/svg" xmlns:xlink="http://www.w3.org/1999/xlink" viewBox="0 0 128 128">
  <defs>
    <style>
      .cls-1 {
        fill: url(#linear-gradient);
      }
    </style>
    <linearGradient id="linear-gradient" x1="64" y1="126.56" x2="64" y2="1.44" gradientUnits="userSpaceOnUse">
      <stop offset="0" stop-color="#ae2012"/>
      <stop offset="1" stop-color="#ee9b00"/>
    </linearGradient>
  </defs>
  <path class="cls-1" d="m96.72,106.16c1.06-3.8-3.8-6.54-3.8-6.54,3.65-2.58,2.63-11.35,2.63-11.35-.82,3.24-3.08,4.87-3.08,4.87,7.7-11.86-1.03-23.45-4.57-27.38,1.96,4.77-2.56,19.33-13.66,14.41-12.8-5.68-9.09-23.52-.07-34.87,9.03-11.35-6.48-43.84-6.48-43.84,7.42,16.98-9.85,37.35-29.84,53.57-19.99,16.22,0,47.04,0,47.04-7.82-2.43-11.18-9.73-11.18-9.73,5.33,19.46,29.34,31.63,29.34,31.63.48.22.93.41,1.4.61-.16-.3-5.81-10.56-13.3-15.06,0,0,8.31.76,11.07,4.38-1.66-2.43-6.81-10.84-4.41-16.39,3.22-7.45,4.9-11.4,2.31-15.05,0,0,13.17,12.47,10.92,22.2-2.25,9.73,7.94,10.64,9.46,6.69,1.52-3.95,2.58-13.38-2.13-18.25,0,0,14.9,14.29,6.99,26,0,0,8.67-1.98,10.19-6.54,0,0-.73,9.79-5.3,14.01,11.23-4.8,16.14-17.61,18.11-25.15-1.69,3.36-4.6,4.74-4.6,4.74Z"/>
</svg>