<?xml version="1.0" encoding="UTF-8"?>
<svg id="Layer_1" data-name="Layer 1" xmlns="http://www.w3.org/2000/svg" xmlns:xlink="http://www.w3.org/1999/xlink" viewBox="0 0 128 128">
  <defs>
    <style>
      .cls-1 {
        fill: url(#linear-gradient);
      }
    </style>
    <linearGradient id="linear-gradient" x1="64" y1="3.45" x2="64" y2="128.55" gradientTransform="translate(0 130) scale(1 -1)" gradientUnits="userSpaceOnUse">
      <stop offset="0" stop-color="#ae2012"/>
      <stop offset="1" stop-color="#ee9b00"/>
    </linearGradient>
  </defs>
  <path class="cls-1" d="m89.18,94.51c5.33-7.47,2.67-15.2,2.67-15.2-5.33,1.07-10.13,5.87-10.13,5.87,8.8-9.6,5.6-30.93,5.6-30.93-.8,2.93-4.27,4.27-8,6.13-3.26,1.63-6.11,9.55-6.78,11.54,4.03-11.38,1.36-25.05-4.95-38.47C61.18,19.85,57.72,1.45,57.72,1.45c-1.33,6.67-2.4,6.13-12.8,26.1-10.4,19.96,1.41,41.33,4.27,46.44,5.07,9.07.71,27.11-12.15,13.51-12.44-13.16-1.07-36.8-1.07-36.8,0,0-17.07,18.93-8.18,47.73,0,0,5.52,19.2,20.45,25.6,2.81,1.21,5.66,2.01,8.42,2.53,0,0-10.55-8.93-12.42-17.46,0,0,6.4,8.27,9.6,6.13,3.2-2.13-2.67-12.8.27-18.67,2.93-5.87,8.8-12.27,8.8-15.73,0,0,2.67,5.07,2.67,11.47s-3.06,6.55-1.56,9.33c1.5,2.78,9.39-3.11,10.72-8.71,0,0-4.6,14.87-2.49,16.11,3.52,2.06,6.4-7.93,10.84-7.93,0,0-2.58,9.6-4.71,12.53,0,0,4.27.5,6.93-2.68,0,0-.53,9.62-6.4,14.69,23.89-3.47,23.89-50.31,23.89-50.31-3.47,15.47-13.6,19.2-13.6,19.2Z"/>
</svg>