<?xml version="1.0" encoding="UTF-8"?>
<svg id="Layer_1" data-name="Layer 1" xmlns="http://www.w3.org/2000/svg" xmlns:xlink="http://www.w3.org/1999/xlink" viewBox="0 0 128 128">
  <defs>
    <style>
      .cls-1 {
        fill: url(#linear-gradient);
      }
    </style>
    <linearGradient id="linear-gradient" x1="64" y1="128" x2="64" y2="0" gradientUnits="userSpaceOnUse">
      <stop offset="0" stop-color="#ae2012"/>
      <stop offset="1" stop-color="#ee9b00"/>
    </linearGradient>
  </defs>
  <path class="cls-1" d="m89.89,108.87c-3.73,1.16-12.9,1.02-1.52-10.87,11.38-11.9,9.63-31.42,7.44-37.11-2.19-5.69,2.76-19.46,2.76-19.46,0,0-9.76,8.08-8.68,22.63,1.09,14.55-11.15,23.95-14.65,14.54-3.5-9.41.88-20.78,5.69-27.78,4.81-7,0-21.73,0-21.73,0,3.65-4.74,23.87-14.25,15.85-12.46-10.51,6.81-44.94,6.81-44.94,0,0-22.75,23.25-18.82,38.57,3.94,15.32-8.31,24.94-20.57,42.07-18.84,26.35-.51,45.66,17.94,47.36h0s-16.97-12.17-11.45-27.49c5.52-15.31,12.08-16.35,16.02-25.9,0,0-6.13,19.52,0,23.15,6.13,3.62,15.75-2.8,14.44-12.28,0,0,2.63,14.83.12,18.53-2.92,4.32-3.12,7.36-1.43,8.75,3.72,3.06,9.35-3.64,6.13-8.03,0,0,10.9,10.16.86,22.87,17.32-2.95,23.39-22.42,25.08-29.78-1.99,5.93-8.68,10.03-11.92,11.04Z"/>
</svg>