<?xml version="1.0" encoding="UTF-8"?>
<svg id="Layer_1" data-name="Layer 1" xmlns="http://www.w3.org/2000/svg" xmlns:xlink="http://www.w3.org/1999/xlink" viewBox="0 0 128 128">
  <defs>
    <style>
      .cls-1 {
        fill: url(#linear-gradient);
      }
    </style>
    <linearGradient id="linear-gradient" x1="64" y1="127.67" x2="64" y2=".33" gradientUnits="userSpaceOnUse">
      <stop offset="0" stop-color="#ae2012"/>
      <stop offset="1" stop-color="#ee9b00"/>
    </linearGradient>
  </defs>
  <path class="cls-1" d="m53.27,127.67h0s1.83-12.38-5.18-29.62c0,0,8.28,5.22,7.47,11.7,0,0,7.38-12.24,1.98-21.42-5.4-9.18,1.48-11.61,1.48-11.61,0,0-.4,9.45,4.72,9.72,0,0,6.21-2.16,1.89-13.77,0,0,9.99,15.22,6.21,23.4,0,0,7.29-5.58,6.21-10.44,0,0,3.19,13.5.11,18.36,0,0,6.49-2.86,9.07-6.91,0,0-13.5,19.51-1.97,28.95,8.23-6.15,10.07-23.12,10.07-23.12,0,0-3.51,7.61-5.17,4.51-4.33-8.07,9.99-39.33,9.99-39.33-3.77,2.42-10.31,8.24-11.93,11.98,2.71-11.83-8.18-33.32-8.18-33.32,2.88,18.36-4.68,23.06-4.68,23.06C86.52,46.81,59.52.33,59.52.33c6.84,11.52,4.32,46.79-2.88,47.51-7.2.72-5.95-28.8-5.95-28.8,0,0-10.61,22.32-4.85,30.6,5.76,8.28,2.86,20.01,2.86,20.01-1.45-11.3-20.86-13.17-20.86-13.17,0,0,13.68,6.48,6.48,27-4.43,12.62,3.87,36.27,18.94,44.19Z"/>
</svg>