<?xml version="1.0" encoding="UTF-8"?>
<svg id="Layer_1" data-name="Layer 1" xmlns="http://www.w3.org/2000/svg" xmlns:xlink="http://www.w3.org/1999/xlink" viewBox="0 0 128 128">
  <defs>
    <style>
      .cls-1 {
        fill: url(#linear-gradient);
      }
    </style>
    <linearGradient id="linear-gradient" x1="64" y1="127.43" x2="64" y2=".57" gradientUnits="userSpaceOnUse">
      <stop offset="0" stop-color="#ae2012"/>
      <stop offset="1" stop-color="#ee9b00"/>
    </linearGradient>
  </defs>
  <path class="cls-1" d="m84.57,108.14s14.47-11.28,16.27-36.15c1.81-24.86-14.47-21.7-19.89-39.33-5.42-17.63,3.16-32.1,3.16-32.1,0,0-28.03,14.92-22.15,45.66,5.88,30.74-6.78,34.81-19.44,27.58-12.66-7.23-10.4-34.36-10.4-34.36,0,0-20.79,32.1,4.52,53.79,0,0-10.4,5.88-20.34-13.11,0,0,6.55,41.33,41.45,47.29-14.37-6.39-20.89-25.36-20.89-25.36,0,0,9.35,12.6,15.86,12.68,6.51.09-5.49-10.08-5.42-18.9,0,0,8.54,12.77,16.68,6.22,8.14-6.55,12.88-17.4,8.48-31.3,0,0,9.83,19.89,5.42,31.3s-.68,16.84,7.8,13.45c0,0-2.02,8.24-11.69,11.92h0c30.67-5.65,37.68-43.45,37.68-43.45,0,0-7.23,19.18-27.12,24.17Z"/>
</svg>