<?xml version="1.0" encoding="UTF-8"?>
<svg id="Layer_1" data-name="Layer 1" xmlns="http://www.w3.org/2000/svg" xmlns:xlink="http://www.w3.org/1999/xlink" viewBox="0 0 128 128">
  <defs>
    <style>
      .cls-1 {
        fill: url(#linear-gradient);
      }
    </style>
    <linearGradient id="linear-gradient" x1="64" y1="128" x2="64" y2="0" gradientUnits="userSpaceOnUse">
      <stop offset="0" stop-color="#ae2012"/>
      <stop offset="1" stop-color="#ee9b00"/>
    </linearGradient>
  </defs>
  <path class="cls-1" d="m95.34,103.49c-.6-7.24-14.79-11.47-6.94-17.8s10.86-24.74,10.86-24.74c0,0-6.55,11.08-11.9,5.73-5.35-5.34-3.19-9.96-3.19-9.96C95.34,30.48,67.28,0,67.28,0c16.6,30.78,3.32,73.62-5.56,63.97-8.88-9.66,4.35-35.3,4.35-35.3,0,0-16.43,14.01-14.48,22.63,2.41,10.71-2.95,16.23-5.73,14.79-5.94-3.08,1.66-10.86-1.81-16.6-3.47-5.73-2.64-13.58-2.64-13.58,0,0-9.43,22.33-8.48,34.59.95,12.26,10.22,22.74,2.07,25.92-8.15,3.19-12.67-17.97-12.67-17.97-4.53,27.46,21.72,43.45,21.72,43.45,1.77.98,3.5,1.85,5.19,2.62,0,0-6.47-7.67-5.34-16.95,0,0,1.4,6.79,5.34,5.21,3.94-1.58.09-8.6-1.04-12.45-1.13-3.85,1.36-10.86,4.3-13.8,0,0-3.17,8.15,0,11.99,3.17,3.85,4.75,7,4.75,7,0,0,1.36-11.3,5.21-16.28,3.85-4.98,5.88-8.83,5.88-12.22,0,0,2.04,7.24-3.39,15.61-5.43,8.37,0,14.94,0,14.94,0,0,11.54,3.39,10.64-9.5,0,0,6.79,15.16,2.04,19.01,0,0,7.24-.9,6.34-6.56,0,0,3.27,12.35-2.89,17.49,9.22-2.55,14.28-7.61,14.28-7.61,8.75-3.92,10.86-23.97,10.86-23.97-1.81,6.81-10.86,7.07-10.86,7.07Z"/>
</svg>