<?xml version="1.0" encoding="UTF-8"?>
<svg id="Layer_1" data-name="Layer 1" xmlns="http://www.w3.org/2000/svg" viewBox="0 0 128 128">
  <defs>
    <style>
      .cls-1 {
        fill: #e9d8a6;
      }
    </style>
  </defs>
  <path class="cls-1" d="m83.61,78.47c-.02-.49-.08-.97-.16-1.45-.08-.49-.2-.98-.34-1.46-.01-.05-.03-.1-.04-.15-2.37-7.77-2.53-10.64-.84-13.35,0,0-6.42,3.55-5.41,12.16,0,0-1.7-6.49,1.52-11.83,1.51-2.5-.88-5.41-.88-5.41.68,2.53-1.18,6.59-1.35,2.2-.17-4.39-3.04-9.21-3.04-9.21,3.55,12.08-.17,13.14-.17,13.14,1.77-3.91-2.6-14.44-2.6-14.44.49,4.94-.53,5.7-.53,5.7-2.53-1.77-.42-7.52-.76-10.56-.34-3.04-1.99-7.1-1.99-7.1.47,7.86-5.24,8.45-4.05,16.73,0,0-2.03-4.9,0-9.97,0,0-7.77,10.64-2.2,23.31,0,0-5.91-4.9-4.05-14.02,0,0-5.58,7.6-2.03,14.36s-6.93,7.77-4.56-7.6c0,0-5.74,5.41-5.74,15.54,0,.6.04,1.2.11,1.8.07.58.18,1.15.32,1.72.14.55.32,1.09.53,1.62.21.52.46,1.03.73,1.53.28.49.59.97.92,1.43.34.46.71.9,1.1,1.32.4.43.83.83,1.28,1.22.46.39.94.76,1.44,1.11.52.36,1.05.69,1.6,1,.57.32,1.16.61,1.75.88.62.28,1.25.53,1.89.76.67.24,1.34.45,2.03.64.71.2,1.43.37,2.15.52.96.2,1.93.35,2.91.48.98.12,1.97.21,2.96.21.17,0,.34,0,.51,0,.99-.03,1.98-.09,2.96-.19.33-.04.66-.08.99-.13.74-.11,1.48-.25,2.21-.42.67-.16,1.34-.35,1.99-.57.61-.21,1.2-.44,1.78-.71.54-.25,1.07-.53,1.57-.84.48-.29.93-.61,1.37-.96.41-.33.8-.69,1.17-1.07.35-.36.67-.75.97-1.16.29-.39.55-.81.77-1.24.22-.42.42-.86.58-1.31.16-.44.29-.9.39-1.36.1-.46.17-.93.2-1.41.04-.48.04-.96.02-1.44Z"/>
</svg>