<?xml version="1.0" encoding="UTF-8"?>
<svg id="Layer_1" data-name="Layer 1" xmlns="http://www.w3.org/2000/svg" viewBox="0 0 128 128">
  <defs>
    <style>
      .cls-1 {
        fill: #ae2012;
      }

      .cls-2 {
        fill: #ca6702;
      }

      .cls-3 {
        fill: #bb3e03;
      }

      .cls-4 {
        fill: #ee9b00;
      }
    </style>
  </defs>
  <path class="cls-1" d="m101.67,91.79c-.05-.94-.15-1.87-.31-2.8-.16-.95-.38-1.88-.65-2.81-.03-.09-.06-.19-.08-.28-4.54-14.93-4.87-20.45-1.62-25.64,0,0-12.33,6.82-10.39,23.37,0,0-3.27-12.48,2.92-22.72,2.91-4.81-1.69-10.39-1.69-10.39,1.3,4.87-2.27,12.66-2.6,4.22-.32-8.44-5.84-17.69-5.84-17.69,6.82,23.21-.32,25.24-.32,25.24,3.4-7.51-4.99-27.75-4.99-27.75.93,9.49-1.01,10.95-1.01,10.95-4.87-3.41-.81-14.44-1.46-20.29-.65-5.84-3.83-13.63-3.83-13.63.91,15.09-10.06,16.23-7.79,32.13,0,0-3.9-9.41,0-19.15,0,0-14.93,20.45-4.22,44.79,0,0-11.36-9.41-7.79-26.94,0,0-10.71,14.61-3.9,27.59,6.82,12.98-13.31,14.93-8.76-14.61,0,0-11.04,10.39-11.04,29.86,0,1.15.07,2.31.21,3.45.14,1.11.35,2.21.62,3.3.27,1.06.61,2.1,1.02,3.12.4,1.01.87,1.99,1.41,2.93.53.95,1.13,1.86,1.77,2.74.66.89,1.37,1.74,2.12,2.54.77.82,1.6,1.6,2.46,2.34.89.76,1.82,1.47,2.78,2.13.99.69,2.02,1.32,3.08,1.91,1.1.61,2.22,1.18,3.37,1.69,1.19.54,2.41,1.02,3.64,1.46,1.28.46,2.58.87,3.89,1.23,1.36.38,2.74.71,4.13.99,1.85.38,3.72.68,5.59.91,1.88.23,3.78.4,5.68.41.33,0,.65,0,.98-.01,1.89-.06,3.8-.17,5.69-.37.64-.07,1.27-.15,1.9-.24,1.42-.21,2.84-.47,4.24-.8,1.29-.31,2.57-.67,3.83-1.1,1.16-.4,2.31-.85,3.42-1.37,1.04-.48,2.05-1.02,3.03-1.62.91-.56,1.8-1.18,2.63-1.85.79-.63,1.54-1.32,2.24-2.05.67-.7,1.29-1.44,1.86-2.23.55-.76,1.05-1.55,1.49-2.38.43-.81.8-1.65,1.12-2.51.31-.85.56-1.73.75-2.62.19-.89.32-1.79.39-2.7.07-.92.08-1.84.04-2.76Z"/>
  <path class="cls-3" d="m94.8,96.28c-.04-.77-.12-1.53-.25-2.29-.13-.77-.31-1.54-.53-2.29-.02-.08-.05-.15-.07-.23-3.72-12.21-3.98-16.72-1.33-20.97,0,0-10.09,5.57-8.49,19.11,0,0-2.68-10.2,2.39-18.58,2.38-3.93-1.38-8.49-1.38-8.49,1.06,3.98-1.86,10.35-2.12,3.45-.27-6.9-4.78-14.46-4.78-14.46,5.57,18.98-.27,20.63-.27,20.63,2.78-6.14-4.08-22.69-4.08-22.69.76,7.76-.83,8.96-.83,8.96-3.98-2.79-.66-11.81-1.19-16.59-.53-4.78-3.13-11.15-3.13-11.15.74,12.34-8.23,13.27-6.37,26.27,0,0-3.19-7.7,0-15.66,0,0-12.21,16.72-3.45,36.62,0,0-9.29-7.7-6.37-22.03,0,0-8.76,11.94-3.19,22.56,5.57,10.62-10.88,12.21-7.17-11.94,0,0-9.02,8.49-9.02,24.42,0,.94.06,1.89.17,2.82.11.91.28,1.81.51,2.7.22.87.5,1.72.84,2.55.33.82.72,1.62,1.15,2.4.44.78.92,1.52,1.45,2.24.54.73,1.12,1.42,1.74,2.08.63.67,1.31,1.31,2.01,1.91.73.62,1.48,1.2,2.27,1.74.81.56,1.65,1.08,2.52,1.56.9.5,1.82.96,2.75,1.38.97.44,1.97.84,2.97,1.2,1.05.37,2.11.71,3.18,1.01,1.12.31,2.24.58,3.38.81,1.51.31,3.04.56,4.57.75,1.54.19,3.09.33,4.64.33.27,0,.53,0,.8-.01,1.55-.05,3.11-.14,4.65-.31.52-.06,1.04-.12,1.56-.2,1.16-.17,2.32-.39,3.47-.66,1.06-.25,2.1-.55,3.13-.9.95-.33,1.89-.7,2.8-1.12.85-.4,1.68-.84,2.47-1.33.75-.46,1.47-.96,2.15-1.51.65-.52,1.26-1.08,1.84-1.68.55-.57,1.06-1.18,1.52-1.82.45-.62.86-1.27,1.22-1.95.35-.66.66-1.35.91-2.05.25-.7.46-1.41.61-2.14.16-.73.26-1.47.32-2.21.06-.75.07-1.5.03-2.26Z"/>
  <path class="cls-2" d="m89.42,99.57c-.03-.63-.1-1.26-.21-1.89-.11-.64-.26-1.27-.44-1.89-.02-.06-.04-.13-.06-.19-3.07-10.07-3.28-13.8-1.09-17.3,0,0-8.32,4.6-7.01,15.77,0,0-2.21-8.42,1.97-15.33,1.96-3.24-1.14-7.01-1.14-7.01.88,3.28-1.53,8.54-1.75,2.85-.22-5.69-3.94-11.93-3.94-11.93,4.6,15.66-.22,17.03-.22,17.03,2.3-5.07-3.37-18.72-3.37-18.72.63,6.41-.68,7.39-.68,7.39-3.28-2.3-.55-9.74-.99-13.69-.44-3.94-2.58-9.2-2.58-9.2.61,10.18-6.79,10.95-5.26,21.68,0,0-2.63-6.35,0-12.92,0,0-10.07,13.8-2.85,30.22,0,0-7.66-6.35-5.26-18.18,0,0-7.23,9.85-2.63,18.61,4.6,8.76-8.98,10.07-5.91-9.85,0,0-7.45,7.01-7.45,20.15,0,.78.05,1.56.14,2.33.09.75.23,1.49.42,2.23.18.72.41,1.42.69,2.1.27.68.59,1.34.95,1.98.36.64.76,1.26,1.2,1.85.44.6.92,1.17,1.43,1.71.52.56,1.08,1.08,1.66,1.58.6.51,1.22.99,1.87,1.44.67.46,1.37.89,2.08,1.29.74.41,1.5.79,2.27,1.14.8.36,1.62.69,2.45.99.86.31,1.74.59,2.63.83.92.26,1.85.48,2.79.67,1.25.26,2.51.46,3.77.62,1.27.16,2.55.27,3.83.27.22,0,.44,0,.66,0,1.28-.04,2.56-.11,3.84-.25.43-.05.86-.1,1.29-.16.96-.14,1.92-.32,2.86-.54.87-.21,1.74-.45,2.58-.74.79-.27,1.56-.58,2.31-.93.7-.33,1.38-.69,2.04-1.09.62-.38,1.21-.79,1.78-1.25.53-.43,1.04-.89,1.51-1.38.45-.47.87-.97,1.26-1.5.37-.51.71-1.05,1-1.61.29-.55.54-1.11.75-1.69.21-.58.38-1.17.51-1.77.13-.6.22-1.21.27-1.82.05-.62.06-1.24.03-1.86Z"/>
  <path class="cls-4" d="m83.61,103.37c-.02-.49-.08-.97-.16-1.45-.08-.49-.2-.98-.34-1.46-.01-.05-.03-.1-.04-.15-2.37-7.77-2.53-10.64-.84-13.35,0,0-6.42,3.55-5.41,12.16,0,0-1.7-6.49,1.52-11.83,1.51-2.5-.88-5.41-.88-5.41.68,2.53-1.18,6.59-1.35,2.2-.17-4.39-3.04-9.21-3.04-9.21,3.55,12.08-.17,13.14-.17,13.14,1.77-3.91-2.6-14.44-2.6-14.44.49,4.94-.53,5.7-.53,5.7-2.53-1.77-.42-7.52-.76-10.56-.34-3.04-1.99-7.1-1.99-7.1.47,7.86-5.24,8.45-4.05,16.73,0,0-2.03-4.9,0-9.97,0,0-7.77,10.64-2.2,23.31,0,0-5.91-4.9-4.05-14.02,0,0-5.58,7.6-2.03,14.36,3.55,6.76-6.93,7.77-4.56-7.6,0,0-5.74,5.41-5.74,15.54,0,.6.04,1.2.11,1.8.07.58.18,1.15.32,1.72.14.55.32,1.09.53,1.62.21.52.46,1.03.73,1.53.28.49.59.97.92,1.43.34.46.71.9,1.1,1.32.4.43.83.83,1.28,1.22.46.39.94.76,1.44,1.11.52.36,1.05.69,1.6,1,.57.32,1.16.61,1.75.88.62.28,1.25.53,1.89.76.67.24,1.34.45,2.03.64.71.2,1.43.37,2.15.52.96.2,1.93.35,2.91.48.98.12,1.97.21,2.96.21.17,0,.34,0,.51,0,.99-.03,1.98-.09,2.96-.19.33-.04.66-.08.99-.13.74-.11,1.48-.25,2.21-.42.67-.16,1.34-.35,1.99-.57.61-.21,1.2-.44,1.78-.71.54-.25,1.07-.53,1.57-.84.48-.29.93-.61,1.37-.96.41-.33.8-.69,1.17-1.07.35-.36.67-.75.97-1.16.29-.39.55-.81.77-1.24.22-.42.42-.86.58-1.31.16-.44.29-.9.39-1.36.1-.46.17-.93.2-1.41.04-.48.04-.96.02-1.44Z"/>
</svg>