<?xml version="1.0" encoding="UTF-8"?>
<svg id="Layer_1" data-name="Layer 1" xmlns="http://www.w3.org/2000/svg" viewBox="0 0 128 128">
  <defs>
    <style>
      .cls-1 {
        opacity: .3;
      }
    </style>
  </defs>
  <g class="cls-1">
    <path d="m101.67,91.79c-.05-.94-.15-1.87-.31-2.8-.16-.95-.38-1.88-.65-2.81-.03-.09-.06-.19-.08-.28-4.54-14.93-4.87-20.45-1.62-25.64,0,0-12.33,6.82-10.39,23.37,0,0-3.27-12.48,2.92-22.72,2.91-4.81-1.69-10.39-1.69-10.39,1.3,4.87-2.27,12.66-2.6,4.22-.32-8.44-5.84-17.69-5.84-17.69,6.82,23.21-.32,25.24-.32,25.24,3.4-7.51-4.99-27.75-4.99-27.75.93,9.49-1.01,10.95-1.01,10.95-4.87-3.41-.81-14.44-1.46-20.29-.65-5.84-3.83-13.63-3.83-13.63.91,15.09-10.06,16.23-7.79,32.13,0,0-3.9-9.41,0-19.15,0,0-14.93,20.45-4.22,44.79,0,0-11.36-9.41-7.79-26.94,0,0-10.71,14.61-3.9,27.59,6.82,12.98-13.31,14.93-8.76-14.61,0,0-11.04,10.39-11.04,29.86,0,1.15.07,2.31.21,3.45.14,1.11.35,2.21.62,3.3.27,1.06.61,2.1,1.02,3.12.4,1.01.87,1.99,1.41,2.93.53.95,1.13,1.86,1.77,2.74.66.89,1.37,1.74,2.12,2.54.77.82,1.6,1.6,2.46,2.34.89.76,1.82,1.47,2.78,2.13.99.69,2.02,1.32,3.08,1.91,1.1.61,2.22,1.18,3.37,1.69,1.19.54,2.41,1.02,3.64,1.46,1.28.46,2.58.87,3.89,1.23,1.36.38,2.74.71,4.13.99,1.85.38,3.72.68,5.59.91,1.88.23,3.78.4,5.68.41.33,0,.65,0,.98-.01,1.89-.06,3.8-.17,5.69-.37.64-.07,1.27-.15,1.9-.24,1.42-.21,2.84-.47,4.24-.8,1.29-.31,2.57-.67,3.83-1.1,1.16-.4,2.31-.85,3.42-1.37,1.04-.48,2.05-1.02,3.03-1.62.91-.56,1.8-1.18,2.63-1.85.79-.63,1.54-1.32,2.24-2.05.67-.7,1.29-1.44,1.86-2.23.55-.76,1.05-1.55,1.49-2.38.43-.81.8-1.65,1.12-2.51.31-.85.56-1.73.75-2.62.19-.89.32-1.79.39-2.7.07-.92.08-1.84.04-2.76Z"/>
  </g>
</svg>