<?xml version="1.0" encoding="UTF-8"?>
<svg xmlns="http://www.w3.org/2000/svg" xmlns:xlink="http://www.w3.org/1999/xlink" viewBox="0 0 1280 720">
  <defs>
    <style>
      .cls-1 {
        fill: url(#linear-gradient-2);
      }

      .cls-2 {
        fill: url(#linear-gradient-17);
      }

      .cls-3 {
        fill: url(#linear-gradient-15);
      }

      .cls-4 {
        fill: url(#linear-gradient-14);
      }

      .cls-5 {
        fill: url(#linear-gradient-6);
      }

      .cls-6 {
        fill: none;
        stroke: url(#linear-gradient);
        stroke-miterlimit: 10;
        stroke-width: 35px;
      }

      .cls-7 {
        fill: url(#linear-gradient-11);
      }

      .cls-8 {
        fill: url(#linear-gradient-10);
      }

      .cls-9 {
        fill: url(#linear-gradient-16);
      }

      .cls-10 {
        fill: url(#linear-gradient-5);
      }

      .cls-11 {
        fill: url(#linear-gradient-7);
      }

      .cls-12 {
        fill: url(#linear-gradient-9);
      }

      .cls-13 {
        fill: #001219;
      }

      .cls-14 {
        fill: url(#linear-gradient-3);
      }

      .cls-15 {
        fill: url(#linear-gradient-4);
      }

      .cls-16 {
        fill: url(#linear-gradient-8);
      }

      .cls-17 {
        fill: url(#linear-gradient-12);
      }

      .cls-18 {
        fill: url(#linear-gradient-13);
      }
    </style>
    <linearGradient id="linear-gradient" x1="-17.5" y1="360" x2="1297.5" y2="360" gradientUnits="userSpaceOnUse">
      <stop offset="0" stop-color="#f0f"/>
      <stop offset="1" stop-color="#6d4098"/>
    </linearGradient>
    <linearGradient id="linear-gradient-2" x1="179.01" y1="419.68" x2="179.01" y2="300.32" xlink:href="#linear-gradient"/>
    <linearGradient id="linear-gradient-3" x1="228.71" y1="419.68" x2="228.71" y2="300.32" xlink:href="#linear-gradient"/>
    <linearGradient id="linear-gradient-4" x1="288.14" y1="419.68" x2="288.14" y2="300.32" xlink:href="#linear-gradient"/>
    <linearGradient id="linear-gradient-5" x1="349.27" y1="419.68" x2="349.27" y2="300.32" xlink:href="#linear-gradient"/>
    <linearGradient id="linear-gradient-6" x1="392.5" y1="419.68" x2="392.5" y2="300.32" xlink:href="#linear-gradient"/>
    <linearGradient id="linear-gradient-7" x1="442.28" y1="421.39" x2="442.28" y2="298.61" xlink:href="#linear-gradient"/>
    <linearGradient id="linear-gradient-8" x1="506.74" y1="419.68" x2="506.74" y2="300.32" xlink:href="#linear-gradient"/>
    <linearGradient id="linear-gradient-9" x1="568.13" y1="421.39" x2="568.13" y2="298.61" xlink:href="#linear-gradient"/>
    <linearGradient id="linear-gradient-10" x1="661.91" y1="419.68" x2="661.91" y2="300.32" xlink:href="#linear-gradient"/>
    <linearGradient id="linear-gradient-11" x1="721.16" y1="419.68" x2="721.16" y2="300.32" xlink:href="#linear-gradient"/>
    <linearGradient id="linear-gradient-12" x1="786.56" y1="421.39" x2="786.56" y2="298.61" xlink:href="#linear-gradient"/>
    <linearGradient id="linear-gradient-13" x1="851.69" y1="421.39" x2="851.69" y2="298.61" xlink:href="#linear-gradient"/>
    <linearGradient id="linear-gradient-14" x1="917.85" y1="421.39" x2="917.85" y2="300.32" xlink:href="#linear-gradient"/>
    <linearGradient id="linear-gradient-15" x1="985.98" y1="419.68" x2="985.98" y2="300.32" xlink:href="#linear-gradient"/>
    <linearGradient id="linear-gradient-16" x1="1051.37" y1="421.39" x2="1051.37" y2="298.61" xlink:href="#linear-gradient"/>
    <linearGradient id="linear-gradient-17" x1="1100.99" y1="419.68" x2="1100.99" y2="300.32" xlink:href="#linear-gradient"/>
  </defs>
  <g id="Layer_2" data-name="Layer 2">
    <rect class="cls-13" width="1280" height="720"/>
  </g>
  <g id="Layer_3" data-name="Layer 3">
    <rect class="cls-6" width="1280" height="720"/>
    <g>
      <path class="cls-1" d="m169.63,369.89l2.39-38.03h13.98l2.39,38.03v49.79h-18.76v-49.79Zm.34-69.57h18.08v18.08h-18.08v-18.08Z"/>
      <path class="cls-14" d="m203.9,300.32h49.62v17.05h-30.86v33.25h24.21v17.05h-24.21v52.01h-18.76v-119.36Z"/>
      <path class="cls-15" d="m262.56,300.32h51.16v17.05h-32.4v31.55h25.75v17.05h-25.75v36.66h32.4v17.05h-51.16v-119.36Z"/>
      <path class="cls-10" d="m324.46,300.32h18.76v102.31h30.86v17.05h-49.62v-119.36Z"/>
      <path class="cls-5" d="m383.12,300.32h18.76v119.36h-18.76v-119.36Z"/>
      <path class="cls-11" d="m421.74,413.71c-4.72-5.12-7.08-12.33-7.08-21.66v-64.12c0-9.32,2.36-16.54,7.08-21.66,4.72-5.12,11.57-7.67,20.55-7.67s15.83,2.56,20.55,7.67c4.72,5.12,7.08,12.34,7.08,21.66v12.62h-17.73v-13.81c0-7.39-3.13-11.08-9.38-11.08s-9.38,3.69-9.38,11.08v66.67c0,7.28,3.12,10.91,9.38,10.91s9.38-3.64,9.38-10.91v-18.25h17.73v16.88c0,9.32-2.36,16.54-7.08,21.66-4.72,5.12-11.57,7.67-20.55,7.67s-15.83-2.56-20.55-7.67Z"/>
      <path class="cls-16" d="m481.16,300.32h51.16v17.05h-32.4v31.55h25.75v17.05h-25.75v36.66h32.4v17.05h-51.16v-119.36Z"/>
      <path class="cls-12" d="m547.15,413.63c-4.66-5.17-6.99-12.59-6.99-22.25v-6.82h17.73v8.19c0,7.73,3.24,11.6,9.72,11.6,3.18,0,5.6-.94,7.25-2.81,1.65-1.88,2.47-4.92,2.47-9.12,0-5-1.14-9.41-3.41-13.22-2.28-3.81-6.48-8.38-12.62-13.73-7.73-6.82-13.13-12.99-16.2-18.5-3.07-5.51-4.6-11.74-4.6-18.67,0-9.43,2.39-16.74,7.16-21.91,4.77-5.17,11.71-7.76,20.8-7.76s15.77,2.59,20.38,7.76c4.6,5.17,6.91,12.59,6.91,22.25v4.95h-17.73v-6.14c0-4.09-.8-7.08-2.39-8.95-1.59-1.88-3.92-2.81-6.99-2.81-6.25,0-9.38,3.81-9.38,11.42,0,4.32,1.16,8.36,3.5,12.11,2.33,3.75,6.56,8.3,12.7,13.64,7.84,6.82,13.24,13.02,16.2,18.59,2.96,5.57,4.43,12.11,4.43,19.61,0,9.78-2.42,17.28-7.25,22.51-4.83,5.23-11.85,7.84-21.06,7.84s-15.97-2.58-20.63-7.76Z"/>
      <path class="cls-8" d="m634.11,300.32h27.62c9.32,0,16.31,2.5,20.97,7.5,4.66,5,6.99,12.34,6.99,22v11.77c0,9.66-2.33,17-6.99,22-4.66,5-11.65,7.5-20.97,7.5h-8.87v48.6h-18.76v-119.36Zm27.62,53.71c3.07,0,5.37-.85,6.91-2.56s2.3-4.6,2.3-8.7v-14.15c0-4.09-.77-6.99-2.3-8.7s-3.84-2.56-6.91-2.56h-8.87v36.66h8.87Z"/>
      <path class="cls-7" d="m708.46,300.32h25.41l19.44,119.36h-18.76l-3.41-23.7v.34h-21.32l-3.41,23.36h-17.39l19.44-119.36Zm20.46,79.8l-8.36-59h-.34l-8.19,59h16.88Z"/>
      <path class="cls-17" d="m765.58,413.63c-4.66-5.17-6.99-12.59-6.99-22.25v-6.82h17.73v8.19c0,7.73,3.24,11.6,9.72,11.6,3.18,0,5.6-.94,7.25-2.81,1.65-1.88,2.47-4.92,2.47-9.12,0-5-1.14-9.41-3.41-13.22-2.28-3.81-6.48-8.38-12.62-13.73-7.73-6.82-13.13-12.99-16.2-18.5-3.07-5.51-4.6-11.74-4.6-18.67,0-9.43,2.39-16.74,7.16-21.91,4.77-5.17,11.71-7.76,20.8-7.76s15.77,2.59,20.38,7.76c4.6,5.17,6.91,12.59,6.91,22.25v4.95h-17.73v-6.14c0-4.09-.8-7.08-2.39-8.95-1.59-1.88-3.92-2.81-6.99-2.81-6.25,0-9.38,3.81-9.38,11.42,0,4.32,1.16,8.36,3.49,12.11,2.33,3.75,6.57,8.3,12.7,13.64,7.84,6.82,13.24,13.02,16.2,18.59,2.95,5.57,4.43,12.11,4.43,19.61,0,9.78-2.42,17.28-7.25,22.51-4.83,5.23-11.85,7.84-21.06,7.84s-15.97-2.58-20.63-7.76Z"/>
      <path class="cls-18" d="m831.15,413.71c-4.72-5.12-7.08-12.33-7.08-21.66v-64.12c0-9.32,2.36-16.54,7.08-21.66,4.72-5.12,11.57-7.67,20.55-7.67s15.83,2.56,20.55,7.67c4.72,5.12,7.08,12.34,7.08,21.66v12.62h-17.73v-13.81c0-7.39-3.13-11.08-9.38-11.08s-9.38,3.69-9.38,11.08v66.67c0,7.28,3.12,10.91,9.38,10.91s9.38-3.64,9.38-10.91v-18.25h17.73v16.88c0,9.32-2.36,16.54-7.08,21.66-4.72,5.12-11.57,7.67-20.55,7.67s-15.83-2.56-20.55-7.67Z"/>
      <path class="cls-4" d="m897.05,413.63c-4.77-5.17-7.16-12.59-7.16-22.25v-91.06h18.76v92.42c0,4.09.82,7.05,2.47,8.87,1.65,1.82,4.01,2.73,7.08,2.73s5.43-.91,7.08-2.73c1.65-1.82,2.47-4.77,2.47-8.87v-92.42h18.07v91.06c0,9.66-2.39,17.08-7.16,22.25-4.77,5.17-11.71,7.76-20.8,7.76s-16.03-2.58-20.8-7.76Z"/>
      <path class="cls-3" d="m973.27,300.32h25.41l19.44,119.36h-18.76l-3.41-23.7v.34h-21.32l-3.41,23.36h-17.39l19.44-119.36Zm20.46,79.8l-8.36-59h-.34l-8.19,59h16.88Z"/>
      <path class="cls-9" d="m1030.4,413.63c-4.66-5.17-6.99-12.59-6.99-22.25v-6.82h17.73v8.19c0,7.73,3.24,11.6,9.72,11.6,3.18,0,5.6-.94,7.25-2.81,1.65-1.88,2.47-4.92,2.47-9.12,0-5-1.14-9.41-3.41-13.22-2.28-3.81-6.48-8.38-12.62-13.73-7.73-6.82-13.13-12.99-16.2-18.5-3.07-5.51-4.6-11.74-4.6-18.67,0-9.43,2.39-16.74,7.16-21.91,4.77-5.17,11.71-7.76,20.8-7.76s15.77,2.59,20.38,7.76c4.6,5.17,6.91,12.59,6.91,22.25v4.95h-17.73v-6.14c0-4.09-.8-7.08-2.39-8.95-1.59-1.88-3.92-2.81-6.99-2.81-6.25,0-9.38,3.81-9.38,11.42,0,4.32,1.16,8.36,3.49,12.11,2.33,3.75,6.57,8.3,12.7,13.64,7.84,6.82,13.24,13.02,16.2,18.59,2.95,5.57,4.43,12.11,4.43,19.61,0,9.78-2.42,17.28-7.25,22.51-4.83,5.23-11.85,7.84-21.06,7.84s-15.97-2.58-20.63-7.76Z"/>
      <path class="cls-2" d="m1091.61,350.11v-49.79h18.76v49.79l-2.39,38.03h-13.98l-2.39-38.03Zm.34,51.5h18.08v18.08h-18.08v-18.08Z"/>
    </g>
  </g>
</svg>