<?xml version="1.0" encoding="UTF-8"?>
<svg xmlns="http://www.w3.org/2000/svg" xmlns:xlink="http://www.w3.org/1999/xlink" viewBox="0 0 515.76 955.44">
  <defs>
    <style>
      .cls-1 {
        fill: #fff;
      }

      .cls-2 {
        filter: url(#outer-glow-1);
        stroke: #fff;
        stroke-miterlimit: 10;
        stroke-width: 10px;
      }

      .cls-3 {
        filter: url(#outer-glow-2);
      }
    </style>
    <filter id="outer-glow-1" filterUnits="userSpaceOnUse">
      <feOffset dx="0" dy="0"/>
      <feGaussianBlur result="blur" stdDeviation="11"/>
      <feFlood flood-color="#fff" flood-opacity=".65"/>
      <feComposite in2="blur" operator="in"/>
      <feComposite in="SourceGraphic"/>
    </filter>
    <filter id="outer-glow-2" filterUnits="userSpaceOnUse">
      <feOffset dx="0" dy="0"/>
      <feGaussianBlur result="blur-2" stdDeviation="11"/>
      <feFlood flood-color="#fff" flood-opacity=".65"/>
      <feComposite in2="blur-2" operator="in"/>
      <feComposite in="SourceGraphic"/>
    </filter>
  </defs>
  <g id="Layer_2" data-name="Layer 2">
    <polygon class="cls-2" points="477.66 257.93 367.29 257.93 367.29 38.16 147.53 38.16 147.53 257.93 38.1 257.93 38.1 587.53 147.65 587.53 147.65 917.28 367.78 917.28 367.78 587.53 477.66 587.53 477.66 257.93"/>
  </g>
  <g id="Layer_1" data-name="Layer 1">
    <g class="cls-3">
      <path class="cls-1" d="m241.8,459.15c0-6.15.95-12,2.87-17.58,1.91-5.57,5.44-12,10.6-19.32,5.98-8.48,10.05-15.79,12.22-21.94,2.16-6.15,3.24-12.63,3.24-19.44,0-5.98-1.17-10.35-3.49-13.09-2.33-2.74-5.73-4.11-10.22-4.11s-7.9,1.37-10.22,4.11c-2.33,2.74-3.49,7.1-3.49,13.09v18.95h-25.93v-17.2c0-14.12,3.4-24.97,10.22-32.53,6.81-7.56,16.78-11.34,29.92-11.34s23.39,3.78,30.29,11.34c6.89,7.56,10.35,18.41,10.35,32.53,0,7.65-1.37,15-4.11,22.06-2.74,7.07-7.44,15-14.08,23.81-5.32,7.15-9.02,13.09-11.09,17.82-2.08,4.74-3.12,9.35-3.12,13.84v9.47h-23.93v-10.47Zm-1.25,30.16h26.42v26.42h-26.42v-26.42Z"/>
    </g>
  </g>
</svg>