<?xml version="1.0" encoding="UTF-8"?>
<svg id="Layer_3" data-name="Layer 3" xmlns="http://www.w3.org/2000/svg" xmlns:xlink="http://www.w3.org/1999/xlink" viewBox="0 0 1280 720">
  <defs>
    <style>
      .cls-1 {
        fill: url(#linear-gradient-2);
      }

      .cls-2 {
        fill: url(#linear-gradient-17);
      }

      .cls-3 {
        fill: url(#linear-gradient-15);
      }

      .cls-4 {
        fill: url(#linear-gradient-18);
      }

      .cls-5 {
        fill: url(#linear-gradient-14);
      }

      .cls-6 {
        fill: url(#linear-gradient-6);
      }

      .cls-7 {
        fill: url(#linear-gradient-11);
      }

      .cls-8 {
        fill: url(#linear-gradient-10);
      }

      .cls-9 {
        fill: url(#linear-gradient-16);
      }

      .cls-10 {
        fill: url(#linear-gradient-5);
      }

      .cls-11 {
        fill: url(#linear-gradient-7);
      }

      .cls-12 {
        fill: url(#linear-gradient-9);
      }

      .cls-13 {
        fill: #08151b;
        stroke: url(#linear-gradient);
        stroke-miterlimit: 10;
        stroke-width: 35px;
      }

      .cls-14 {
        fill: url(#linear-gradient-3);
      }

      .cls-15 {
        fill: url(#linear-gradient-19);
      }

      .cls-16 {
        fill: url(#linear-gradient-4);
      }

      .cls-17 {
        fill: url(#linear-gradient-8);
      }

      .cls-18 {
        fill: url(#linear-gradient-12);
      }

      .cls-19 {
        fill: url(#linear-gradient-13);
      }
    </style>
    <linearGradient id="linear-gradient" x1="640" y1="739.5" x2="640" y2="-15.5" gradientTransform="translate(0 722) scale(1 -1)" gradientUnits="userSpaceOnUse">
      <stop offset="0" stop-color="#99ca3c"/>
      <stop offset="1" stop-color="#39823f"/>
    </linearGradient>
    <linearGradient id="linear-gradient-2" x1="142.74" y1="327.67" x2="142.74" y2="427.85" gradientTransform="translate(0 722) scale(1 -1)" gradientUnits="userSpaceOnUse">
      <stop offset="0" stop-color="#99ca3c"/>
      <stop offset="1" stop-color="#39823f"/>
    </linearGradient>
    <linearGradient id="linear-gradient-3" x1="258.92" y1="326.43" x2="258.92" y2="400.48" gradientTransform="translate(0 722) scale(1 -1)" gradientUnits="userSpaceOnUse">
      <stop offset="0" stop-color="#99ca3c"/>
      <stop offset="1" stop-color="#39823f"/>
    </linearGradient>
    <linearGradient id="linear-gradient-4" x1="345.67" y1="326.43" x2="345.67" y2="432.13" gradientTransform="translate(0 722) scale(1 -1)" gradientUnits="userSpaceOnUse">
      <stop offset="0" stop-color="#99ca3c"/>
      <stop offset="1" stop-color="#39823f"/>
    </linearGradient>
    <linearGradient id="linear-gradient-5" x1="437.53" y1="327.67" x2="437.53" y2="427.85" gradientTransform="translate(0 722) scale(1 -1)" gradientUnits="userSpaceOnUse">
      <stop offset="0" stop-color="#99ca3c"/>
      <stop offset="1" stop-color="#39823f"/>
    </linearGradient>
    <linearGradient id="linear-gradient-6" x1="525.41" y1="291.87" x2="525.41" y2="399.2" gradientTransform="translate(0 722) scale(1 -1)" gradientUnits="userSpaceOnUse">
      <stop offset="0" stop-color="#99ca3c"/>
      <stop offset="1" stop-color="#39823f"/>
    </linearGradient>
    <linearGradient id="linear-gradient-7" x1="602.52" y1="326.42" x2="602.52" y2="432.13" gradientTransform="translate(0 722) scale(1 -1)" gradientUnits="userSpaceOnUse">
      <stop offset="0" stop-color="#99ca3c"/>
      <stop offset="1" stop-color="#39823f"/>
    </linearGradient>
    <linearGradient id="linear-gradient-8" x1="680.07" y1="327.71" x2="680.07" y2="400.64" gradientTransform="translate(0 722) scale(1 -1)" gradientUnits="userSpaceOnUse">
      <stop offset="0" stop-color="#99ca3c"/>
      <stop offset="1" stop-color="#39823f"/>
    </linearGradient>
    <linearGradient id="linear-gradient-9" x1="736.34" y1="326.4" x2="736.34" y2="400.6" gradientTransform="translate(0 722) scale(1 -1)" gradientUnits="userSpaceOnUse">
      <stop offset="0" stop-color="#99ca3c"/>
      <stop offset="1" stop-color="#39823f"/>
    </linearGradient>
    <linearGradient id="linear-gradient-10" x1="827.85" y1="325.51" x2="827.85" y2="429.54" gradientTransform="translate(0 722) scale(1 -1)" gradientUnits="userSpaceOnUse">
      <stop offset="0" stop-color="#99ca3c"/>
      <stop offset="1" stop-color="#39823f"/>
    </linearGradient>
    <linearGradient id="linear-gradient-11" x1="916.54" y1="326.4" x2="916.54" y2="400.6" gradientTransform="translate(0 722) scale(1 -1)" gradientUnits="userSpaceOnUse">
      <stop offset="0" stop-color="#99ca3c"/>
      <stop offset="1" stop-color="#39823f"/>
    </linearGradient>
    <linearGradient id="linear-gradient-12" x1="1018.6" y1="327.63" x2="1018.6" y2="400.6" gradientTransform="translate(0 722) scale(1 -1)" gradientUnits="userSpaceOnUse">
      <stop offset="0" stop-color="#99ca3c"/>
      <stop offset="1" stop-color="#39823f"/>
    </linearGradient>
    <linearGradient id="linear-gradient-13" x1="1120.64" y1="326.39" x2="1120.64" y2="400.48" gradientTransform="translate(0 722) scale(1 -1)" gradientUnits="userSpaceOnUse">
      <stop offset="0" stop-color="#99ca3c"/>
      <stop offset="1" stop-color="#39823f"/>
    </linearGradient>
    <linearGradient id="linear-gradient-14" x1="1184.28" y1="326.05" x2="1184.28" y2="400.31" gradientTransform="translate(0 722) scale(1 -1)" gradientUnits="userSpaceOnUse">
      <stop offset="0" stop-color="#99ca3c"/>
      <stop offset="1" stop-color="#39823f"/>
    </linearGradient>
    <linearGradient id="linear-gradient-15" x1="437.58" y1="327.67" x2="437.58" y2="427.85" gradientTransform="translate(0 722) scale(1 -1)" gradientUnits="userSpaceOnUse">
      <stop offset="0" stop-color="#f0f"/>
      <stop offset="1" stop-color="#6d4098"/>
    </linearGradient>
    <linearGradient id="linear-gradient-16" x1="525.46" y1="291.87" x2="525.46" y2="399.2" xlink:href="#linear-gradient-15"/>
    <linearGradient id="linear-gradient-17" x1="602.57" y1="326.42" x2="602.57" y2="432.13" xlink:href="#linear-gradient-15"/>
    <linearGradient id="linear-gradient-18" x1="680.12" y1="327.71" x2="680.12" y2="400.64" xlink:href="#linear-gradient-15"/>
    <linearGradient id="linear-gradient-19" x1="736.39" y1="326.4" x2="736.39" y2="400.6" xlink:href="#linear-gradient-15"/>
  </defs>
  <rect class="cls-13" width="1280" height="720"/>
  <g>
    <path class="cls-1" d="m75.29,394.05c.52-.74,1.09-1.85,1.74-3.32.65-1.46,1.17-3.32,1.54-5.55.52-3.26,1.09-6.92,1.71-11s1.28-8.34,1.95-12.82,1.36-9.05,2.02-13.73c.68-4.68,1.33-9.29,1.95-13.83s1.24-8.92,1.82-13.14c.58-4.21,1.1-8.07,1.57-11.56.47-3.49.85-6.54,1.16-9.11.31-2.59.52-4.53.66-5.83h8.88l43.95,82.17,43.59-82.17h6.64l11.45,83c.33,2.6.68,4.85,1.05,6.71s.74,3.45,1.12,4.78.73,2.42,1.09,3.28.69,1.57,1.01,2.13v.28h-17.61v-.28c.24-.5.45-1.36.66-2.51.21-1.17.32-2.56.32-4.2,0-.61-.03-1.22-.07-1.85-.05-.62-.12-1.32-.21-2.06l-8.88-66.94-41.23,77.56-4.82-.56-41.51-77.7c-1.63,11.04-3.06,21.25-4.27,30.6-.52,4.01-1.02,8-1.54,11.98s-.97,7.69-1.37,11.15c-.4,3.44-.7,6.48-.94,9.11-.24,2.63-.35,4.57-.35,5.83,0,1.58.04,2.98.15,4.2.09,1.21.19,2.23.28,3.07.15.98.28,1.85.43,2.59h-13.98v-.28h.01Z"/>
    <path class="cls-14" d="m220.82,358.42c0-5.26.98-10.14,2.94-14.64,1.95-4.49,4.65-8.4,8.07-11.71,3.43-3.31,7.47-5.89,12.12-7.76,4.66-1.86,9.66-2.79,15.03-2.79s10.22.88,14.84,2.62c4.64,1.74,8.68,4.23,12.12,7.44,3.44,3.22,6.17,7.12,8.14,11.73,1.98,4.61,2.96,9.78,2.96,15.51,0,4.8-.84,9.41-2.51,13.83s-4.15,8.34-7.4,11.73c-3.26,3.4-7.25,6.11-11.98,8.14-4.73,2.02-10.16,3.04-16.32,3.04-5.22,0-10.12-.86-14.75-2.59-4.61-1.73-8.64-4.2-12.09-7.4-3.44-3.22-6.18-7.12-8.17-11.71-2.01-4.58-3-9.75-3-15.48v.03Zm39.64,32.07c3.31,0,6.35-.65,9.11-1.95,2.78-1.3,5.16-3.19,7.16-5.66,2.01-2.47,3.56-5.47,4.68-9.01s1.67-7.55,1.67-12.01c0-5.04-.53-9.7-1.61-14-1.08-4.3-2.67-8.04-4.78-11.17-2.13-3.15-4.78-5.61-8-7.37-3.22-1.77-6.96-2.66-11.25-2.66-3.31,0-6.34.64-9.09,1.93-2.75,1.28-5.14,3.14-7.16,5.55-2.02,2.42-3.6,5.39-4.72,8.9-1.12,3.52-1.67,7.51-1.67,11.98,0,5.04.54,9.71,1.65,14.04,1.09,4.33,2.71,8.09,4.85,11.28s4.81,5.69,8,7.48c3.19,1.79,6.91,2.68,11.15,2.68h.01Z"/>
    <path class="cls-16" d="m324.86,326.34c2.94-1.58,6.07-2.78,9.43-3.6,3.35-.81,6.78-1.22,10.27-1.22,5.17,0,9.95.88,14.36,2.62s8.21,4.23,11.43,7.44,5.73,7.12,7.55,11.73,2.72,9.78,2.72,15.51c0,4.8-.82,9.41-2.48,13.83-1.65,4.42-4.12,8.34-7.4,11.73-3.28,3.4-7.36,6.11-12.22,8.14-4.86,2.02-10.51,3.04-16.94,3.04-.74,0-1.74-.03-2.96-.07-1.24-.05-2.59-.15-4.09-.28-1.49-.15-3.07-.33-4.76-.56-1.67-.24-3.31-.53-4.89-.9-2.23-.5-4.48-1.09-6.74-1.71s-4.41-1.34-6.46-2.13c.19-.7.35-1.87.49-3.53s.24-3.44.32-5.34c.07-1.91.13-3.79.17-5.62.04-1.85.07-3.32.07-4.44v-53.8c0-3.96-.05-7.41-.17-10.38s-.25-5.51-.43-7.65c-.16-2.14-.37-3.93-.62-5.38s-.52-2.66-.8-3.63v-.28h16.14v.28c-.28.98-.53,2.19-.77,3.63-.24,1.45-.44,3.24-.62,5.38s-.33,4.69-.43,7.65-.15,6.42-.15,10.38v9.15h-.03Zm0,43.53c0,3.77.04,6.9.11,9.37s.17,4.45.32,5.94c1.95,1.49,4.61,2.75,7.96,3.77s7.03,1.54,11.04,1.54c3.31,0,6.34-.65,9.09-1.95s5.1-3.19,7.06-5.66c1.95-2.47,3.48-5.47,4.57-9.01s1.65-7.55,1.65-12.01c0-5.04-.47-9.7-1.4-14-.93-4.3-2.38-8.04-4.33-11.17s-4.45-5.61-7.48-7.37-6.64-2.66-10.83-2.66c-3.53,0-6.84.72-9.93,2.17-3.07,1.45-5.69,3.53-7.83,6.28v34.8-.03Z"/>
    <path class="cls-10" d="m464.81,346.39c-1.86-.04-4.2-.08-6.99-.11s-5.83-.05-9.11-.11c-3.28-.04-6.71-.08-10.27-.11-3.56-.03-7.04-.04-10.44-.07s-6.64,0-9.71.04c-3.07.05-5.75.12-8.04.21v20.75c0,3.96.05,7.41.17,10.38s.25,5.51.43,7.65c.16,2.14.37,3.93.62,5.38s.52,2.66.8,3.63v.28h-16.77v-.28c.28-.98.54-2.19.8-3.63.25-1.45.48-3.24.66-5.38s.33-4.69.43-7.65.15-6.42.15-10.38v-45.48c0-3.96-.05-7.41-.15-10.38-.09-2.96-.24-5.51-.43-7.68s-.41-3.97-.66-5.42-.52-2.66-.8-3.63v-.28h16.77v.28c-.28.98-.54,2.19-.8,3.63-.25,1.45-.47,3.26-.62,5.42s-.31,4.73-.43,7.68c-.12,2.96-.17,6.42-.17,10.38v17.88c2.42.09,5.17.15,8.25.17,3.07.03,6.28.03,9.65,0,3.35-.03,6.76-.05,10.23-.11,3.47-.04,6.83-.11,10.06-.17,3.24-.07,6.26-.15,9.09-.24,2.82-.09,5.25-.19,7.31-.28v-17.26c0-3.96-.05-7.41-.17-10.38s-.25-5.51-.43-7.68c-.16-2.17-.37-3.97-.62-5.42s-.52-2.66-.8-3.63v-.28h16.77v.28c-.28.98-.54,2.19-.8,3.63-.25,1.45-.48,3.26-.66,5.42s-.33,4.73-.43,7.68c-.09,2.96-.15,6.42-.15,10.38v45.48c0,3.96.04,7.41.15,10.38.09,2.96.23,5.51.43,7.65.19,2.14.41,3.93.66,5.38s.52,2.66.8,3.63v.28h-16.77v-.28c.28-.98.54-2.19.8-3.63.25-1.45.47-3.24.62-5.38s.31-4.69.43-7.65.17-6.42.17-10.38v-20.61h-.01Z"/>
    <path class="cls-6" d="m522.74,393.5l-24.59-53.8c-.89-2.05-1.85-4.01-2.87-5.9-1.02-1.89-1.99-3.57-2.9-5.06s-1.71-2.74-2.4-3.73c-.7-1-1.17-1.65-1.4-1.93v-.28h18.31v.28c-.09.24-.16.58-.21,1.05-.05.47-.07.89-.07,1.26,0,1.45.23,3.04.66,4.78.44,1.74,1.26,3.92,2.48,6.54l19.28,41.92,17.61-41.36c.74-1.73,1.5-3.61,2.27-5.66s1.16-4.12,1.16-6.22c0-.61-.05-1.1-.15-1.5s-.19-.66-.28-.8v-.28h12.58v.28c-.84.89-1.9,2.46-3.18,4.72s-2.64,5.09-4.09,8.49l-33.32,79.38c-.74,1.73-1.5,3.61-2.27,5.66s-1.16,4.12-1.16,6.22c0,.61.04,1.1.15,1.5.09.4.19.66.28.8v.28h-13.06v-.28c.89-.89,1.97-2.43,3.26-4.65,1.28-2.21,2.64-5,4.09-8.34l9.85-23.33-.03-.03Z"/>
    <path class="cls-11" d="m603.86,321.52c1.91,0,3.81.16,5.73.49s3.77.8,5.59,1.4c1.82.61,3.53,1.36,5.17,2.23,1.63.89,3.1,1.89,4.4,3v-11.45c0-3.96-.05-7.41-.15-10.38-.09-2.96-.24-5.51-.43-7.65s-.4-3.93-.62-5.38c-.24-1.45-.49-2.66-.77-3.63v-.28h16.14v.28c-.28.98-.54,2.19-.8,3.63-.25,1.45-.47,3.24-.62,5.38s-.31,4.69-.43,7.65-.17,6.42-.17,10.38v49.81c0,3.96.05,7.41.17,10.38s.25,5.51.43,7.65c.16,2.14.37,3.93.62,5.38.25,1.45.52,2.66.8,3.63v.28h-15.44v-.28c.15-.37.25-.92.35-1.65.09-.72.21-1.62.35-2.68-2.38,1.49-5.35,2.84-8.94,4.05-3.59,1.21-7.76,1.82-12.5,1.82-5.54,0-10.58-.86-15.09-2.59-4.52-1.73-8.37-4.2-11.56-7.4-3.19-3.22-5.65-7.12-7.37-11.71s-2.59-9.75-2.59-15.48c0-5.26.93-10.14,2.79-14.64,1.86-4.49,4.48-8.4,7.83-11.71,3.35-3.31,7.33-5.89,11.95-7.76,4.61-1.86,9.66-2.79,15.16-2.79h.03Zm20.89,19.44c-1.86-4.89-4.53-8.5-8-10.83-3.47-2.33-7.37-3.49-11.71-3.49-3.63,0-6.99.64-10.06,1.93-3.07,1.28-5.71,3.14-7.89,5.55-2.19,2.42-3.91,5.39-5.14,8.9-1.24,3.52-1.85,7.51-1.85,11.98,0,5.04.56,9.71,1.67,14.04s2.76,8.09,4.93,11.28,4.85,5.69,8.07,7.48,6.92,2.68,11.11,2.68c2.19,0,4.24-.25,6.15-.77,1.91-.5,3.65-1.17,5.24-1.95,1.58-.8,2.98-1.66,4.2-2.62,1.21-.96,2.21-1.9,3-2.83.09-2.01.16-4.28.21-6.84.04-2.56.07-5.38.07-8.45v-26.06h0Z"/>
    <path class="cls-17" d="m658.43,350.1c0-3.96-.05-7.41-.17-10.38-.12-2.96-.25-5.51-.43-7.65-.16-2.14-.37-3.93-.62-5.38-.25-1.45-.52-2.66-.8-3.63v-.28h16.14v.28c-.37,1.08-.69,2.38-.94,3.91-.25,1.54-.45,3.52-.6,5.94,1.73-1.45,3.52-2.87,5.38-4.27,1.86-1.4,3.77-2.63,5.73-3.71s3.95-1.93,5.98-2.59c2.02-.65,4.07-.98,6.11-.98,1.26,0,2.35.05,3.28.17.93.12,1.77.28,2.51.49.74.21,1.42.44,2.02.7.61.25,1.18.5,1.74.73l-3.43,13.34-1.18-.28c-.56-2.05-1.61-3.69-3.15-4.93-1.54-1.24-3.63-1.85-6.28-1.85-1.45,0-2.96.25-4.54.77s-3.19,1.22-4.82,2.13c-1.63.9-3.26,1.95-4.89,3.15-1.63,1.18-3.22,2.43-4.76,3.73-.09,1.36-.15,2.82-.15,4.4v23.05c0,3.96.04,7.41.15,10.38.09,2.96.23,5.51.43,7.65.19,2.14.4,3.93.62,5.38s.49,2.66.77,3.63v.28h-16.14v-.28c.28-.98.54-2.19.8-3.63.25-1.45.47-3.24.62-5.38s.31-4.69.43-7.65.17-6.42.17-10.38v-16.91l.03.04Z"/>
    <path class="cls-12" d="m706.08,373.73c0-3.68.76-6.87,2.27-9.57s3.53-5.01,6.05-6.92c2.51-1.91,5.38-3.45,8.6-4.65s6.55-2.11,9.99-2.79c3.44-.68,6.84-1.14,10.2-1.4,3.35-.25,6.43-.41,9.22-.45v-3.56c0-3.07-.4-5.73-1.18-7.96-.8-2.23-1.91-4.09-3.35-5.55-1.45-1.46-3.18-2.56-5.21-3.28-2.02-.72-4.25-1.09-6.67-1.09-1.67,0-3.34.15-4.96.43-1.63.28-3.32.74-5.06,1.4s-3.59,1.54-5.51,2.66c-1.94,1.12-4.01,2.54-6.26,4.27l-.7-.43,4.76-9.85c1.54-.7,3.06-1.26,4.54-1.71,1.49-.44,3-.8,4.54-1.09s3.11-.48,4.72-.6c1.61-.12,3.3-.17,5.06-.17,4.89,0,9.08.6,12.54,1.78s6.31,2.82,8.53,4.89c2.21,2.07,3.83,4.49,4.85,7.27,1.02,2.78,1.54,5.74,1.54,8.9v22.77c0,3.96.05,7.41.17,10.38s.25,5.51.43,7.65c.16,2.14.37,3.93.62,5.38.25,1.45.52,2.66.8,3.63v.28h-15.44v-.28c.23-.74.41-1.58.52-2.51.12-.93.23-2.05.32-3.35-.98.84-2.13,1.7-3.45,2.59s-2.84,1.69-4.54,2.4c-1.7.72-3.59,1.3-5.66,1.74s-4.34.66-6.82.66c-8.11,0-14.38-1.9-18.8-5.7-4.42-3.8-6.64-9.19-6.64-16.17h-.01Zm46.32-20.33c-4.24.05-8.32.29-12.22.73s-7.37,1.37-10.38,2.76-5.41,3.39-7.2,5.98-2.68,6.02-2.68,10.31c0,5.5,1.37,9.69,4.12,12.58,2.75,2.88,6.55,4.33,11.39,4.33,2.23,0,4.28-.32,6.11-.94s3.47-1.42,4.89-2.38,2.62-2.01,3.6-3.15,1.73-2.25,2.23-3.32c.09-1.77.15-3.73.15-5.9v-20.99h0Z"/>
    <path class="cls-8" d="m873.07,382.59c0,.52-.05,1.05-.17,1.61-.12.56-.39,1.02-.8,1.4-2.1,1.58-4.37,3.04-6.82,4.37-2.44,1.33-5.09,2.48-7.93,3.45-2.84.98-5.9,1.74-9.19,2.27s-6.82.8-10.59.8c-8.48,0-16.21-1.25-23.2-3.73-6.99-2.5-12.98-6.02-17.99-10.59-5.01-4.56-8.89-10.04-11.64-16.45-2.75-6.4-4.12-13.53-4.12-21.34,0-4.42.57-8.78,1.71-13.06,1.14-4.29,2.8-8.36,5-12.22s4.89-7.41,8.11-10.66,6.88-6.05,11-8.42c4.12-2.38,8.66-4.23,13.62-5.55s10.32-1.99,16.1-1.99c2.23,0,4.52.11,6.84.32s4.64.52,6.92.9c2.29.4,4.48.88,6.6,1.43,2.11.56,4.13,1.18,6.05,1.89l4.76,12.93-.56.28c-1.82-1.63-3.91-3.15-6.28-4.54s-4.92-2.6-7.61-3.63c-2.7-1.02-5.53-1.83-8.49-2.4-2.96-.58-5.95-.88-8.98-.88-5.87,0-11.25.92-16.14,2.76-4.89,1.85-9.1,4.5-12.61,8-3.52,3.49-6.26,7.77-8.21,12.86-1.95,5.08-2.94,10.86-2.94,17.33,0,7.12.93,13.74,2.79,19.84,1.86,6.1,4.64,11.39,8.32,15.86s8.28,7.97,13.81,10.51c5.53,2.54,11.96,3.81,19.32,3.81,3.26,0,6.17-.25,8.73-.77,2.56-.5,4.73-1.16,6.5-1.93,1.77-.77,3.11-1.61,4.01-2.51s1.37-1.74,1.37-2.48v-2.72c0-3.26-.05-6.07-.15-8.45-.09-2.38-.24-4.44-.43-6.18s-.4-3.26-.62-4.5c-.24-1.26-.52-2.42-.84-3.49v-.28h16.77v.28c-.28.98-.54,2.13-.8,3.45s-.48,2.9-.66,4.72-.33,3.95-.43,6.39-.15,5.27-.15,8.49v2.87l.03-.03Z"/>
    <path class="cls-7" d="m886.27,373.73c0-3.68.76-6.87,2.27-9.57s3.53-5.01,6.05-6.92c2.51-1.91,5.38-3.45,8.6-4.65s6.55-2.11,9.99-2.79c3.44-.68,6.84-1.14,10.2-1.4,3.35-.25,6.43-.41,9.22-.45v-3.56c0-3.07-.4-5.73-1.18-7.96-.8-2.23-1.91-4.09-3.35-5.55-1.45-1.46-3.18-2.56-5.21-3.28-2.02-.72-4.25-1.09-6.67-1.09-1.67,0-3.34.15-4.96.43-1.63.28-3.32.74-5.06,1.4s-3.59,1.54-5.51,2.66c-1.94,1.12-4.01,2.54-6.26,4.27l-.7-.43,4.76-9.85c1.54-.7,3.06-1.26,4.54-1.71,1.49-.44,3-.8,4.54-1.09s3.11-.48,4.72-.6c1.61-.12,3.3-.17,5.06-.17,4.89,0,9.08.6,12.54,1.78s6.31,2.82,8.53,4.89c2.21,2.07,3.83,4.49,4.85,7.27,1.02,2.78,1.54,5.74,1.54,8.9v22.77c0,3.96.05,7.41.17,10.38.12,2.96.25,5.51.43,7.65.16,2.14.37,3.93.62,5.38.25,1.45.52,2.66.8,3.63v.28h-15.44v-.28c.23-.74.41-1.58.52-2.51.12-.93.23-2.05.32-3.35-.98.84-2.13,1.7-3.45,2.59s-2.84,1.69-4.54,2.4c-1.7.72-3.59,1.3-5.66,1.74-2.07.44-4.34.66-6.82.66-8.11,0-14.38-1.9-18.8-5.7-4.42-3.8-6.64-9.19-6.64-16.17h-.01Zm46.32-20.33c-4.24.05-8.32.29-12.22.73s-7.37,1.37-10.38,2.76-5.41,3.39-7.2,5.98-2.68,6.02-2.68,10.31c0,5.5,1.37,9.69,4.12,12.58,2.75,2.88,6.55,4.33,11.39,4.33,2.23,0,4.28-.32,6.11-.94s3.47-1.42,4.89-2.38,2.62-2.01,3.6-3.15,1.73-2.25,2.23-3.32c.09-1.77.15-3.73.15-5.9v-20.99h0Z"/>
    <path class="cls-18" d="m1012.46,347.24c0-3.07-.32-5.73-.94-7.96s-1.54-4.09-2.72-5.55-2.62-2.56-4.29-3.28c-1.67-.72-3.55-1.09-5.59-1.09-1.4,0-2.96.28-4.68.84-1.73.56-3.51,1.32-5.34,2.27-1.85.96-3.68,2.06-5.51,3.32-1.85,1.26-3.57,2.6-5.21,4.05-.09,1.49-.15,3.08-.15,4.78v22.39c0,3.96.04,7.41.15,10.38.09,2.96.23,5.51.43,7.65.19,2.14.4,3.93.62,5.38s.49,2.66.77,3.63v.28h-16.14v-.28c.28-.98.54-2.19.8-3.63.25-1.45.47-3.24.62-5.38s.31-4.69.43-7.65c.12-2.96.17-6.42.17-10.38v-16.91c0-3.96-.05-7.41-.17-10.38-.12-2.96-.25-5.51-.43-7.65-.16-2.14-.37-3.93-.62-5.38-.25-1.45-.52-2.66-.8-3.63v-.28h16.14v.28c-.37,1.08-.66,2.43-.88,4.09-.21,1.65-.43,3.73-.66,6.26,1.86-1.49,3.87-2.96,6.01-4.4,2.14-1.45,4.34-2.72,6.6-3.84,2.26-1.12,4.53-2.02,6.82-2.72,2.29-.7,4.54-1.05,6.78-1.05,2.66,0,5.01.35,7.06,1.05s3.84,1.65,5.38,2.87c1.54,1.21,2.83,2.63,3.88,4.27,1.05,1.63,1.85,3.37,2.4,5.24,1.91-1.63,4-3.26,6.26-4.85,2.26-1.61,4.58-3.04,6.99-4.29,2.39-1.26,4.85-2.29,7.33-3.07,2.5-.8,4.93-1.18,7.31-1.18,3.63,0,6.72.62,9.26,1.89s4.61,2.91,6.22,4.96,2.78,4.38,3.49,7.02,1.09,5.3,1.09,8v23.76c0,3.96.04,7.41.15,10.38.09,2.96.23,5.51.43,7.65.19,2.14.41,3.93.66,5.38s.52,2.66.8,3.63v.28h-16.21v-.28c.28-.98.54-2.19.8-3.63.25-1.45.48-3.24.66-5.38s.33-4.69.43-7.65c.09-2.96.15-6.42.15-10.38v-19.77c0-6.15-1.24-10.67-3.71-13.55s-5.78-4.33-9.93-4.33c-1.45,0-3.04.28-4.78.84s-3.55,1.33-5.42,2.31c-1.86.98-3.72,2.11-5.59,3.39-1.86,1.28-3.61,2.64-5.24,4.09.09.56.15,1.12.15,1.67v25.36c0,3.96.05,7.41.17,10.38.12,2.96.25,5.51.43,7.65.16,2.14.37,3.93.62,5.38.25,1.45.52,2.66.8,3.63v.28h-16.14v-.28c.28-.98.53-2.19.77-3.63.23-1.45.44-3.24.62-5.38.19-2.14.33-4.69.43-7.65.09-2.96.15-6.42.15-10.38v-19.77l-.04-.04Z"/>
    <path class="cls-19" d="m1123.62,395.58c-5.17,0-10.02-.81-14.54-2.44s-8.45-4.01-11.81-7.16c-3.35-3.15-5.99-7.03-7.93-11.67-1.94-4.64-2.9-9.94-2.9-15.89,0-5.26.89-10.14,2.66-14.64,1.77-4.49,4.21-8.4,7.33-11.71,3.12-3.31,6.76-5.89,10.94-7.76,4.17-1.86,8.68-2.79,13.53-2.79s9.25.82,13.34,2.48c4.09,1.65,7.65,4.05,10.66,7.2,3,3.15,5.38,7.03,7.12,11.67,1.74,4.64,2.68,9.91,2.83,15.82-5.26-.09-10.52-.16-15.78-.21-5.26-.04-10.74-.07-16.42-.07-4.05,0-8,.03-11.84.07-3.84.05-7.31.12-10.38.21.28,4.85,1.04,9.22,2.27,13.14,1.24,3.91,2.94,7.25,5.1,10.03s4.8,4.9,7.89,6.39c3.1,1.49,6.6,2.23,10.51,2.23,2.7,0,5.25-.32,7.65-.94,2.39-.62,4.57-1.5,6.54-2.62s3.71-2.43,5.24-3.95,2.84-3.15,3.91-4.93l.84.43-5.17,12.44c-2.51,1.3-5.51,2.4-9.01,3.32-3.49.92-7.68,1.37-12.58,1.37v-.03Zm-9.27-42.62c4.66,0,9.33,0,14-.04,4.68-.03,8.93-.11,12.76-.24-.43-4.05-1.21-7.68-2.38-10.9s-2.66-5.94-4.48-8.17-3.96-3.96-6.43-5.17c-2.47-1.21-5.2-1.82-8.17-1.82-2.7,0-5.18.6-7.44,1.78-2.26,1.18-4.23,2.9-5.9,5.14s-3.03,4.97-4.05,8.21c-1.02,3.24-1.63,6.92-1.82,11.07,2.1.09,4.3.15,6.64.15h7.27Z"/>
    <path class="cls-5" d="m1201.46,336.83l-.98.15c-.33-1.08-.85-2.21-1.57-3.43-.72-1.21-1.66-2.33-2.79-3.35-1.14-1.02-2.51-1.87-4.12-2.55s-3.45-1.01-5.55-1.01c-1.45,0-2.8.21-4.09.62-1.28.43-2.41,1.04-3.35,1.85-.96.81-1.71,1.83-2.27,3.04-.56,1.21-.84,2.63-.84,4.27,0,2.29.7,4.46,2.13,6.54s3.2,4.12,5.34,6.15c2.14,2.02,4.46,4.07,6.95,6.11,2.5,2.05,4.81,4.2,6.95,6.43,2.14,2.23,3.92,4.62,5.34,7.16,1.42,2.54,2.13,5.27,2.13,8.21,0,2.38-.43,4.69-1.26,6.95s-2.13,4.28-3.88,6.05c-1.74,1.77-3.99,3.2-6.71,4.29-2.72,1.09-5.98,1.65-9.75,1.65-2.23,0-4.32-.21-6.26-.62-1.94-.43-3.71-.94-5.31-1.57s-3.06-1.33-4.33-2.1-2.41-1.5-3.39-2.21l.7-13.27h1.12c.47,2.19,1.17,4.2,2.1,6.01.93,1.82,2.09,3.36,3.45,4.65,1.37,1.28,2.95,2.29,4.72,3,1.77.72,3.71,1.09,5.79,1.09,3.44,0,6.18-.96,8.21-2.87,2.02-1.91,3.04-4.4,3.04-7.48,0-2.47-.69-4.74-2.06-6.82s-3.11-4.07-5.21-5.98c-2.1-1.91-4.34-3.81-6.74-5.73-2.41-1.91-4.65-3.95-6.74-6.11s-3.83-4.54-5.21-7.12c-1.37-2.59-2.06-5.53-2.06-8.84,0-2.7.5-5.18,1.5-7.44,1-2.26,2.39-4.2,4.2-5.79,1.79-1.61,3.92-2.86,6.39-3.73,2.47-.89,5.17-1.33,8.11-1.33,3.87,0,7.1.41,9.67,1.22,2.59.81,4.56,1.59,5.9,2.34l.7,11.6.03-.03Z"/>
  </g>
  <path class="cls-3" d="m464.86,346.39c-1.86-.04-4.2-.08-6.99-.11s-5.83-.05-9.11-.11c-3.28-.04-6.71-.08-10.27-.11-3.56-.03-7.04-.04-10.44-.07s-6.64,0-9.71.04c-3.07.05-5.75.12-8.04.21v20.75c0,3.96.05,7.41.17,10.38s.25,5.51.43,7.65c.16,2.14.37,3.93.62,5.38s.52,2.66.8,3.63v.28h-16.77v-.28c.28-.98.54-2.19.8-3.63.25-1.45.48-3.24.66-5.38s.33-4.69.43-7.65.15-6.42.15-10.38v-45.48c0-3.96-.05-7.41-.15-10.38-.09-2.96-.24-5.51-.43-7.68s-.41-3.97-.66-5.42-.52-2.66-.8-3.63v-.28h16.77v.28c-.28.98-.54,2.19-.8,3.63-.25,1.45-.47,3.26-.62,5.42s-.31,4.73-.43,7.68c-.12,2.96-.17,6.42-.17,10.38v17.88c2.42.09,5.17.15,8.25.17,3.07.03,6.28.03,9.65,0,3.35-.03,6.76-.05,10.23-.11,3.47-.04,6.83-.11,10.06-.17,3.24-.07,6.26-.15,9.09-.24,2.82-.09,5.25-.19,7.31-.28v-17.26c0-3.96-.05-7.41-.17-10.38s-.25-5.51-.43-7.68c-.16-2.17-.37-3.97-.62-5.42s-.52-2.66-.8-3.63v-.28h16.77v.28c-.28.98-.54,2.19-.8,3.63-.25,1.45-.48,3.26-.66,5.42s-.33,4.73-.43,7.68c-.09,2.96-.15,6.42-.15,10.38v45.48c0,3.96.04,7.41.15,10.38.09,2.96.23,5.51.43,7.65.19,2.14.41,3.93.66,5.38s.52,2.66.8,3.63v.28h-16.77v-.28c.28-.98.54-2.19.8-3.63.25-1.45.47-3.24.62-5.38s.31-4.69.43-7.65.17-6.42.17-10.38v-20.61h-.01Z"/>
  <path class="cls-9" d="m522.79,393.5l-24.59-53.8c-.89-2.05-1.85-4.01-2.87-5.9-1.02-1.89-1.99-3.57-2.9-5.06s-1.71-2.74-2.4-3.73c-.7-1-1.17-1.65-1.4-1.93v-.28h18.31v.28c-.09.24-.16.58-.21,1.05-.05.47-.07.89-.07,1.26,0,1.45.23,3.04.66,4.78.44,1.74,1.26,3.92,2.48,6.54l19.28,41.92,17.61-41.36c.74-1.73,1.5-3.61,2.27-5.66s1.16-4.12,1.16-6.22c0-.61-.05-1.1-.15-1.5s-.19-.66-.28-.8v-.28h12.58v.28c-.84.89-1.9,2.46-3.18,4.72s-2.64,5.09-4.09,8.49l-33.32,79.38c-.74,1.73-1.5,3.61-2.27,5.66s-1.16,4.12-1.16,6.22c0,.61.04,1.1.15,1.5.09.4.19.66.28.8v.28h-13.06v-.28c.89-.89,1.97-2.43,3.26-4.65,1.28-2.21,2.64-5,4.09-8.34l9.85-23.33-.03-.03Z"/>
  <path class="cls-2" d="m603.91,321.52c1.91,0,3.81.16,5.73.49s3.77.8,5.59,1.4c1.82.61,3.53,1.36,5.17,2.23,1.63.89,3.1,1.89,4.4,3v-11.45c0-3.96-.05-7.41-.15-10.38-.09-2.96-.24-5.51-.43-7.65s-.4-3.93-.62-5.38c-.24-1.45-.49-2.66-.77-3.63v-.28h16.14v.28c-.28.98-.54,2.19-.8,3.63-.25,1.45-.47,3.24-.62,5.38s-.31,4.69-.43,7.65-.17,6.42-.17,10.38v49.81c0,3.96.05,7.41.17,10.38s.25,5.51.43,7.65c.16,2.14.37,3.93.62,5.38.25,1.45.52,2.66.8,3.63v.28h-15.44v-.28c.15-.37.25-.92.35-1.65.09-.72.21-1.62.35-2.68-2.38,1.49-5.35,2.84-8.94,4.05-3.59,1.21-7.76,1.82-12.5,1.82-5.54,0-10.58-.86-15.09-2.59-4.52-1.73-8.37-4.2-11.56-7.4-3.19-3.22-5.65-7.12-7.37-11.71s-2.59-9.75-2.59-15.48c0-5.26.93-10.14,2.79-14.64,1.86-4.49,4.48-8.4,7.83-11.71,3.35-3.31,7.33-5.89,11.95-7.76,4.61-1.86,9.66-2.79,15.16-2.79h.03Zm20.89,19.44c-1.86-4.89-4.53-8.5-8-10.83-3.47-2.33-7.37-3.49-11.71-3.49-3.63,0-6.99.64-10.06,1.93-3.07,1.28-5.71,3.14-7.89,5.55-2.19,2.42-3.91,5.39-5.14,8.9-1.24,3.52-1.85,7.51-1.85,11.98,0,5.04.56,9.71,1.67,14.04s2.76,8.09,4.93,11.28,4.85,5.69,8.07,7.48,6.92,2.68,11.11,2.68c2.19,0,4.24-.25,6.15-.77,1.91-.5,3.65-1.17,5.24-1.95,1.58-.8,2.98-1.66,4.2-2.62,1.21-.96,2.21-1.9,3-2.83.09-2.01.16-4.28.21-6.84.04-2.56.07-5.38.07-8.45v-26.06h0Z"/>
  <path class="cls-4" d="m658.48,350.1c0-3.96-.05-7.41-.17-10.38-.12-2.96-.25-5.51-.43-7.65-.16-2.14-.37-3.93-.62-5.38-.25-1.45-.52-2.66-.8-3.63v-.28h16.14v.28c-.37,1.08-.69,2.38-.94,3.91-.25,1.54-.45,3.52-.6,5.94,1.73-1.45,3.52-2.87,5.38-4.27,1.86-1.4,3.77-2.63,5.73-3.71s3.95-1.93,5.98-2.59c2.02-.65,4.07-.98,6.11-.98,1.26,0,2.35.05,3.28.17.93.12,1.77.28,2.51.49.74.21,1.42.44,2.02.7.61.25,1.18.5,1.74.73l-3.43,13.34-1.18-.28c-.56-2.05-1.61-3.69-3.15-4.93-1.54-1.24-3.63-1.85-6.28-1.85-1.45,0-2.96.25-4.54.77-1.58.52-3.19,1.22-4.82,2.13-1.63.9-3.26,1.95-4.89,3.15-1.63,1.18-3.22,2.43-4.76,3.73-.09,1.36-.15,2.82-.15,4.4v23.05c0,3.96.04,7.41.15,10.38.09,2.96.23,5.51.43,7.65.19,2.14.4,3.93.62,5.38s.49,2.66.77,3.63v.28h-16.14v-.28c.28-.98.54-2.19.8-3.63.25-1.45.47-3.24.62-5.38s.31-4.69.43-7.65c.12-2.96.17-6.42.17-10.38v-16.91l.03.04Z"/>
  <path class="cls-15" d="m706.13,373.73c0-3.68.76-6.87,2.27-9.57s3.53-5.01,6.05-6.92,5.38-3.45,8.6-4.65,6.55-2.11,9.99-2.79c3.44-.68,6.84-1.14,10.2-1.4,3.35-.25,6.43-.41,9.22-.45v-3.56c0-3.07-.4-5.73-1.18-7.96-.8-2.23-1.91-4.09-3.35-5.55-1.45-1.46-3.18-2.56-5.21-3.28-2.02-.72-4.25-1.09-6.67-1.09-1.67,0-3.34.15-4.96.43-1.63.28-3.32.74-5.06,1.4s-3.59,1.54-5.51,2.66c-1.94,1.12-4.01,2.54-6.26,4.27l-.7-.43,4.76-9.85c1.54-.7,3.06-1.26,4.54-1.71,1.49-.44,3-.8,4.54-1.09s3.11-.48,4.72-.6c1.61-.12,3.3-.17,5.06-.17,4.89,0,9.08.6,12.54,1.78s6.31,2.82,8.53,4.89c2.21,2.07,3.83,4.49,4.85,7.27,1.02,2.78,1.54,5.74,1.54,8.9v22.77c0,3.96.05,7.41.17,10.38.12,2.96.25,5.51.43,7.65.16,2.14.37,3.93.62,5.38.25,1.45.52,2.66.8,3.63v.28h-15.44v-.28c.23-.74.41-1.58.52-2.51.12-.93.23-2.05.32-3.35-.98.84-2.13,1.7-3.45,2.59s-2.84,1.69-4.54,2.4c-1.7.72-3.59,1.3-5.66,1.74-2.07.44-4.34.66-6.82.66-8.11,0-14.38-1.9-18.8-5.7-4.42-3.8-6.64-9.19-6.64-16.17h-.01Zm46.32-20.33c-4.24.05-8.32.29-12.22.73s-7.37,1.37-10.38,2.76-5.41,3.39-7.2,5.98-2.68,6.02-2.68,10.31c0,5.5,1.37,9.69,4.12,12.58,2.75,2.88,6.55,4.33,11.39,4.33,2.23,0,4.28-.32,6.11-.94s3.47-1.42,4.89-2.38,2.62-2.01,3.6-3.15,1.73-2.25,2.23-3.32c.09-1.77.15-3.73.15-5.9v-20.99h0Z"/>
</svg>