<?xml version="1.0" encoding="UTF-8"?>
<svg id="Layer_3" data-name="Layer 3" xmlns="http://www.w3.org/2000/svg" xmlns:xlink="http://www.w3.org/1999/xlink" viewBox="0 0 1280 720">
  <defs>
    <style>
      .cls-1 {
        fill: url(#linear-gradient-2);
      }

      .cls-2 {
        fill: url(#linear-gradient-17);
      }

      .cls-3 {
        filter: url(#outer-glow-3);
      }

      .cls-4 {
        fill: url(#linear-gradient-15);
      }

      .cls-5 {
        fill: url(#linear-gradient-18);
      }

      .cls-6 {
        fill: url(#linear-gradient-28);
      }

      .cls-7 {
        fill: url(#linear-gradient-14);
      }

      .cls-8 {
        fill: url(#linear-gradient-20);
      }

      .cls-9 {
        fill: url(#linear-gradient-6);
      }

      .cls-10 {
        fill: url(#linear-gradient-11);
      }

      .cls-11 {
        filter: url(#outer-glow-1);
      }

      .cls-12 {
        fill: url(#linear-gradient-10);
      }

      .cls-13 {
        fill: url(#linear-gradient-16);
      }

      .cls-14 {
        fill: url(#linear-gradient-21);
      }

      .cls-15 {
        fill: url(#linear-gradient-25);
      }

      .cls-16 {
        fill: url(#linear-gradient-5);
      }

      .cls-17 {
        fill: url(#linear-gradient-7);
      }

      .cls-18 {
        fill: url(#linear-gradient-24);
      }

      .cls-19 {
        fill: url(#linear-gradient-9);
      }

      .cls-20 {
        fill: url(#linear-gradient-22);
      }

      .cls-21 {
        fill: #08151b;
        stroke: url(#linear-gradient);
        stroke-miterlimit: 10;
        stroke-width: 35px;
      }

      .cls-22 {
        fill: url(#linear-gradient-3);
      }

      .cls-23 {
        fill: url(#linear-gradient-27);
      }

      .cls-24 {
        fill: url(#linear-gradient-29);
      }

      .cls-25 {
        fill: url(#linear-gradient-23);
      }

      .cls-26 {
        fill: url(#linear-gradient-19);
      }

      .cls-27 {
        fill: url(#linear-gradient-4);
      }

      .cls-28 {
        filter: url(#outer-glow-2);
      }

      .cls-29 {
        fill: url(#linear-gradient-8);
      }

      .cls-30 {
        fill: url(#linear-gradient-12);
      }

      .cls-31 {
        fill: url(#linear-gradient-13);
      }

      .cls-32 {
        fill: url(#linear-gradient-26);
      }
    </style>
    <linearGradient id="linear-gradient" x1="640" y1="-17.5" x2="640" y2="737.5" gradientUnits="userSpaceOnUse">
      <stop offset="0" stop-color="#99ca3c"/>
      <stop offset="1" stop-color="#39823f"/>
    </linearGradient>
    <filter id="outer-glow-1" filterUnits="userSpaceOnUse">
      <feOffset dx="0" dy="0"/>
      <feGaussianBlur result="blur" stdDeviation="5"/>
      <feFlood flood-color="#99ca3c" flood-opacity=".3"/>
      <feComposite in2="blur" operator="in"/>
      <feComposite in="SourceGraphic"/>
    </filter>
    <linearGradient id="linear-gradient-2" x1="265.75" y1="280.12" x2="265.75" y2="204.71" xlink:href="#linear-gradient"/>
    <linearGradient id="linear-gradient-3" x1="353.2" y1="281.06" x2="353.2" y2="225.32" xlink:href="#linear-gradient"/>
    <linearGradient id="linear-gradient-4" x1="418.46" y1="281.06" x2="418.46" y2="201.5" xlink:href="#linear-gradient"/>
    <linearGradient id="linear-gradient-5" x1="487.61" y1="280.12" x2="487.61" y2="204.71" xlink:href="#linear-gradient"/>
    <linearGradient id="linear-gradient-6" x1="553.73" y1="307.04" x2="553.73" y2="226.27" xlink:href="#linear-gradient"/>
    <linearGradient id="linear-gradient-7" x1="611.79" y1="281.06" x2="611.79" y2="201.5" xlink:href="#linear-gradient"/>
    <linearGradient id="linear-gradient-8" x1="670.16" y1="280.12" x2="670.16" y2="225.22" xlink:href="#linear-gradient"/>
    <linearGradient id="linear-gradient-9" x1="712.49" y1="281.06" x2="712.49" y2="225.22" xlink:href="#linear-gradient"/>
    <linearGradient id="linear-gradient-10" x1="781.38" y1="281.75" x2="781.38" y2="203.45" xlink:href="#linear-gradient"/>
    <linearGradient id="linear-gradient-11" x1="848.11" y1="281.06" x2="848.11" y2="225.22" xlink:href="#linear-gradient"/>
    <linearGradient id="linear-gradient-12" x1="924.91" y1="280.12" x2="924.91" y2="225.22" xlink:href="#linear-gradient"/>
    <linearGradient id="linear-gradient-13" x1="1001.74" y1="281.06" x2="1001.74" y2="225.32" xlink:href="#linear-gradient"/>
    <linearGradient id="linear-gradient-14" x1="1049.64" y1="281.33" x2="1049.64" y2="225.43" xlink:href="#linear-gradient"/>
    <filter id="outer-glow-2" filterUnits="userSpaceOnUse">
      <feOffset dx="0" dy="0"/>
      <feGaussianBlur result="blur-2" stdDeviation="5"/>
      <feFlood flood-color="#b8529e" flood-opacity=".3"/>
      <feComposite in2="blur-2" operator="in"/>
      <feComposite in="SourceGraphic"/>
    </filter>
    <linearGradient id="linear-gradient-15" x1="526.93" y1="517.74" x2="526.93" y2="463.45" gradientUnits="userSpaceOnUse">
      <stop offset="0" stop-color="#b8529e"/>
      <stop offset="1" stop-color="#6d4098"/>
    </linearGradient>
    <linearGradient id="linear-gradient-16" x1="589.89" y1="518.42" x2="589.89" y2="478.29" xlink:href="#linear-gradient-15"/>
    <linearGradient id="linear-gradient-17" x1="636.88" y1="518.42" x2="636.88" y2="461.14" xlink:href="#linear-gradient-15"/>
    <linearGradient id="linear-gradient-18" x1="667.58" y1="518.5" x2="667.58" y2="487.11" xlink:href="#linear-gradient-15"/>
    <linearGradient id="linear-gradient-19" x1="715" y1="518.5" x2="715" y2="462.54" xlink:href="#linear-gradient-15"/>
    <linearGradient id="linear-gradient-20" x1="745.94" y1="518.5" x2="745.94" y2="462.54" xlink:href="#linear-gradient-15"/>
    <linearGradient id="linear-gradient-21" x1="776.87" y1="518.5" x2="776.87" y2="462.54" xlink:href="#linear-gradient-15"/>
    <filter id="outer-glow-3" filterUnits="userSpaceOnUse">
      <feOffset dx="0" dy="0"/>
      <feGaussianBlur result="blur-3" stdDeviation="7"/>
      <feFlood flood-color="#99ca3c" flood-opacity=".4"/>
      <feComposite in2="blur-3" operator="in"/>
      <feComposite in="SourceGraphic"/>
    </filter>
    <linearGradient id="linear-gradient-22" x1="354.68" y1="431.57" x2="354.68" y2="308.66" gradientUnits="userSpaceOnUse">
      <stop offset="0" stop-color="#b8529e"/>
      <stop offset="1" stop-color="#99ca3c"/>
    </linearGradient>
    <linearGradient id="linear-gradient-23" x1="446.57" x2="446.57" xlink:href="#linear-gradient-22"/>
    <linearGradient id="linear-gradient-24" x1="510.47" y1="433.26" x2="510.47" y2="415.13" xlink:href="#linear-gradient-22"/>
    <linearGradient id="linear-gradient-25" x1="597.81" y1="434.19" x2="597.81" y2="308.83" xlink:href="#linear-gradient-22"/>
    <linearGradient id="linear-gradient-26" x1="717.22" x2="717.22" xlink:href="#linear-gradient-22"/>
    <linearGradient id="linear-gradient-27" x1="784.03" y1="433.26" x2="784.03" y2="415.13" xlink:href="#linear-gradient-22"/>
    <linearGradient id="linear-gradient-28" x1="847.42" x2="847.42" xlink:href="#linear-gradient-22"/>
    <linearGradient id="linear-gradient-29" x1="931.55" y1="450.88" x2="931.55" y2="310.18" xlink:href="#linear-gradient-22"/>
  </defs>
  <rect class="cls-21" width="1280" height="720"/>
  <g>
    <g class="cls-11">
      <path class="cls-1" d="m214.98,279.91c.39-.56.82-1.39,1.31-2.5.49-1.1.88-2.5,1.16-4.18.39-2.45.82-5.21,1.29-8.28s.96-6.28,1.47-9.65c.51-3.37,1.02-6.81,1.52-10.33.51-3.52,1-6.99,1.47-10.41.47-3.42.93-6.71,1.37-9.89.44-3.17.83-6.07,1.18-8.7.35-2.63.64-4.92.87-6.86.23-1.95.39-3.41.5-4.39h6.68l33.08,61.84,32.81-61.84h5l8.62,62.47c.25,1.96.51,3.65.79,5.05.28,1.4.56,2.6.84,3.6.28,1,.55,1.82.82,2.47s.52,1.18.76,1.6v.21h-13.25v-.21c.18-.38.34-1.02.5-1.89.16-.88.24-1.93.24-3.16,0-.46-.02-.92-.05-1.39-.04-.47-.09-.99-.16-1.55l-6.68-50.38-31.03,58.37-3.63-.42-31.24-58.48c-1.23,8.31-2.3,15.99-3.21,23.03-.39,3.02-.77,6.02-1.16,9.02-.39,3-.73,5.79-1.03,8.39-.3,2.59-.53,4.88-.71,6.86-.18,1.98-.26,3.44-.26,4.39,0,1.19.03,2.24.11,3.16.07.91.14,1.68.21,2.31.11.74.21,1.39.32,1.95h-10.52v-.21Z"/>
      <path class="cls-22" d="m324.51,253.09c0-3.96.74-7.63,2.21-11.02,1.47-3.38,3.5-6.32,6.07-8.81,2.58-2.49,5.62-4.43,9.12-5.84,3.51-1.4,7.27-2.1,11.31-2.1s7.69.66,11.17,1.97c3.49,1.31,6.53,3.18,9.12,5.6,2.59,2.42,4.64,5.36,6.13,8.83,1.49,3.47,2.23,7.36,2.23,11.67,0,3.61-.63,7.08-1.89,10.41-1.26,3.33-3.12,6.28-5.57,8.83-2.45,2.56-5.46,4.6-9.02,6.13-3.56,1.52-7.65,2.29-12.28,2.29-3.93,0-7.62-.65-11.1-1.95-3.47-1.3-6.5-3.16-9.1-5.57-2.59-2.42-4.65-5.36-6.15-8.81-1.51-3.45-2.26-7.34-2.26-11.65Zm29.82,24.14c2.49,0,4.78-.49,6.86-1.47,2.09-.98,3.88-2.4,5.39-4.26,1.51-1.86,2.68-4.12,3.52-6.78.84-2.66,1.26-5.68,1.26-9.04,0-3.79-.4-7.3-1.21-10.54-.81-3.24-2.01-6.05-3.6-8.41-1.6-2.37-3.6-4.22-6.02-5.55-2.42-1.33-5.24-2-8.47-2-2.49,0-4.77.48-6.84,1.45-2.07.96-3.87,2.36-5.39,4.18-1.52,1.82-2.71,4.06-3.55,6.7-.84,2.65-1.26,5.65-1.26,9.02,0,3.79.41,7.31,1.24,10.57.82,3.26,2.04,6.09,3.65,8.49,1.61,2.4,3.62,4.28,6.02,5.63,2.4,1.35,5.2,2.02,8.39,2.02Z"/>
      <path class="cls-27" d="m402.81,228.95c2.21-1.19,4.57-2.09,7.1-2.71,2.52-.61,5.1-.92,7.73-.92,3.89,0,7.49.66,10.81,1.97s6.18,3.18,8.6,5.6,4.31,5.36,5.68,8.83,2.05,7.36,2.05,11.67c0,3.61-.62,7.08-1.87,10.41-1.24,3.33-3.1,6.28-5.57,8.83-2.47,2.56-5.54,4.6-9.2,6.13-3.66,1.52-7.91,2.29-12.75,2.29-.56,0-1.31-.02-2.23-.05-.93-.04-1.95-.11-3.08-.21-1.12-.11-2.31-.25-3.58-.42-1.26-.18-2.49-.4-3.68-.68-1.68-.38-3.37-.82-5.07-1.29-1.7-.47-3.32-1.01-4.86-1.6.14-.53.26-1.41.37-2.66s.18-2.59.24-4.02c.05-1.44.1-2.85.13-4.23.03-1.39.05-2.5.05-3.34v-40.49c0-2.98-.04-5.58-.13-7.81-.09-2.23-.19-4.15-.32-5.76-.12-1.61-.28-2.96-.47-4.05-.19-1.09-.39-2-.6-2.73v-.21h12.15v.21c-.21.74-.4,1.65-.58,2.73-.18,1.09-.33,2.44-.47,4.05-.14,1.61-.25,3.53-.32,5.76-.07,2.23-.11,4.83-.11,7.81v6.89Zm0,32.76c0,2.84.03,5.19.08,7.05.05,1.86.13,3.35.24,4.47,1.47,1.12,3.47,2.07,5.99,2.84,2.52.77,5.29,1.16,8.31,1.16,2.49,0,4.77-.49,6.84-1.47,2.07-.98,3.84-2.4,5.31-4.26,1.47-1.86,2.62-4.12,3.44-6.78.82-2.66,1.24-5.68,1.24-9.04,0-3.79-.35-7.3-1.05-10.54-.7-3.24-1.79-6.05-3.26-8.41s-3.35-4.22-5.63-5.55c-2.28-1.33-5-2-8.15-2-2.66,0-5.15.54-7.47,1.63-2.31,1.09-4.28,2.66-5.89,4.73v26.19Z"/>
      <path class="cls-16" d="m508.14,244.04c-1.4-.03-3.16-.06-5.26-.08-2.1-.02-4.39-.04-6.86-.08-2.47-.03-5.05-.06-7.73-.08-2.68-.02-5.3-.03-7.86-.05-2.56-.02-5,0-7.31.03-2.31.04-4.33.09-6.05.16v15.62c0,2.98.04,5.58.13,7.81.09,2.23.19,4.15.32,5.76.12,1.61.28,2.96.47,4.05.19,1.09.39,2,.6,2.73v.21h-12.62v-.21c.21-.74.41-1.65.6-2.73.19-1.09.36-2.44.5-4.05.14-1.61.25-3.53.32-5.76.07-2.23.11-4.83.11-7.81v-34.23c0-2.98-.04-5.58-.11-7.81-.07-2.23-.18-4.15-.32-5.78-.14-1.63-.31-2.99-.5-4.08-.19-1.09-.39-2-.6-2.73v-.21h12.62v.21c-.21.74-.41,1.65-.6,2.73-.19,1.09-.35,2.45-.47,4.08-.12,1.63-.23,3.56-.32,5.78-.09,2.23-.13,4.83-.13,7.81v13.46c1.82.07,3.89.11,6.21.13,2.31.02,4.73.02,7.26,0,2.52-.02,5.09-.04,7.7-.08,2.61-.03,5.14-.08,7.57-.13,2.44-.05,4.71-.11,6.84-.18,2.12-.07,3.95-.14,5.5-.21v-12.99c0-2.98-.04-5.58-.13-7.81-.09-2.23-.19-4.15-.32-5.78-.12-1.63-.28-2.99-.47-4.08-.19-1.09-.39-2-.6-2.73v-.21h12.62v.21c-.21.74-.41,1.65-.6,2.73-.19,1.09-.36,2.45-.5,4.08-.14,1.63-.25,3.56-.32,5.78-.07,2.23-.11,4.83-.11,7.81v34.23c0,2.98.03,5.58.11,7.81.07,2.23.17,4.15.32,5.76.14,1.61.31,2.96.5,4.05.19,1.09.39,2,.6,2.73v.21h-12.62v-.21c.21-.74.41-1.65.6-2.73.19-1.09.35-2.44.47-4.05.12-1.61.23-3.53.32-5.76.09-2.23.13-4.83.13-7.81v-15.51Z"/>
      <path class="cls-9" d="m551.74,279.49l-18.51-40.49c-.67-1.54-1.39-3.02-2.16-4.44-.77-1.42-1.5-2.69-2.18-3.81-.68-1.12-1.29-2.06-1.81-2.81-.53-.75-.88-1.24-1.05-1.45v-.21h13.78v.21c-.07.18-.12.44-.16.79-.04.35-.05.67-.05.95,0,1.09.17,2.29.5,3.6.33,1.31.95,2.95,1.87,4.92l14.51,31.55,13.25-31.13c.56-1.3,1.13-2.72,1.71-4.26.58-1.54.87-3.1.87-4.68,0-.46-.04-.83-.11-1.13-.07-.3-.14-.5-.21-.6v-.21h9.47v.21c-.63.67-1.43,1.85-2.39,3.55-.96,1.7-1.99,3.83-3.08,6.39l-25.08,59.74c-.56,1.3-1.13,2.72-1.71,4.26-.58,1.54-.87,3.1-.87,4.68,0,.46.03.83.11,1.13.07.3.14.5.21.6v.21h-9.83v-.21c.67-.67,1.48-1.83,2.45-3.5.96-1.66,1.99-3.76,3.08-6.28l7.41-17.56Z"/>
      <path class="cls-17" d="m612.79,225.32c1.44,0,2.87.12,4.31.37,1.44.25,2.84.6,4.21,1.05,1.37.46,2.66,1.02,3.89,1.68,1.23.67,2.33,1.42,3.31,2.26v-8.62c0-2.98-.04-5.58-.11-7.81-.07-2.23-.18-4.15-.32-5.76-.14-1.61-.3-2.96-.47-4.05-.18-1.09-.37-2-.58-2.73v-.21h12.15v.21c-.21.74-.41,1.65-.6,2.73-.19,1.09-.35,2.44-.47,4.05-.12,1.61-.23,3.53-.32,5.76-.09,2.23-.13,4.83-.13,7.81v37.49c0,2.98.04,5.58.13,7.81.09,2.23.19,4.15.32,5.76.12,1.61.28,2.96.47,4.05.19,1.09.39,2,.6,2.73v.21h-11.62v-.21c.11-.28.19-.69.26-1.24.07-.54.16-1.22.26-2.02-1.79,1.12-4.03,2.14-6.73,3.05-2.7.91-5.84,1.37-9.41,1.37-4.17,0-7.96-.65-11.36-1.95-3.4-1.3-6.3-3.16-8.7-5.57-2.4-2.42-4.25-5.36-5.55-8.81-1.3-3.45-1.95-7.34-1.95-11.65,0-3.96.7-7.63,2.1-11.02,1.4-3.38,3.37-6.32,5.89-8.81,2.52-2.49,5.52-4.43,8.99-5.84,3.47-1.4,7.27-2.1,11.41-2.1Zm15.72,14.62c-1.4-3.68-3.41-6.4-6.02-8.15-2.61-1.75-5.55-2.63-8.81-2.63-2.73,0-5.26.48-7.57,1.45-2.31.96-4.3,2.36-5.94,4.18-1.65,1.82-2.94,4.06-3.87,6.7-.93,2.65-1.39,5.65-1.39,9.02,0,3.79.42,7.31,1.26,10.57s2.08,6.09,3.71,8.49,3.65,4.28,6.07,5.63,5.21,2.02,8.36,2.02c1.65,0,3.19-.19,4.63-.58,1.44-.38,2.75-.88,3.94-1.47,1.19-.6,2.24-1.25,3.16-1.97.91-.72,1.66-1.43,2.26-2.13.07-1.51.12-3.22.16-5.15.03-1.93.05-4.05.05-6.36v-19.61Z"/>
      <path class="cls-29" d="m653.86,246.83c0-2.98-.04-5.58-.13-7.81-.09-2.23-.19-4.15-.32-5.76-.12-1.61-.28-2.96-.47-4.05-.19-1.09-.39-2-.6-2.73v-.21h12.15v.21c-.28.81-.52,1.79-.71,2.94-.19,1.16-.34,2.65-.45,4.47,1.3-1.09,2.65-2.16,4.05-3.21,1.4-1.05,2.84-1.98,4.31-2.79,1.47-.81,2.97-1.45,4.5-1.95,1.52-.49,3.06-.74,4.6-.74.95,0,1.77.04,2.47.13.7.09,1.33.21,1.89.37.56.16,1.07.33,1.52.53.46.19.89.38,1.31.55l-2.58,10.04-.89-.21c-.42-1.54-1.21-2.78-2.37-3.71-1.16-.93-2.73-1.39-4.73-1.39-1.09,0-2.23.19-3.42.58-1.19.39-2.4.92-3.63,1.6-1.23.68-2.45,1.47-3.68,2.37-1.23.89-2.42,1.83-3.58,2.81-.07,1.02-.11,2.12-.11,3.31v17.35c0,2.98.03,5.58.11,7.81.07,2.23.17,4.15.32,5.76.14,1.61.3,2.96.47,4.05.17,1.09.37,2,.58,2.73v.21h-12.15v-.21c.21-.74.41-1.65.6-2.73.19-1.09.35-2.44.47-4.05.12-1.61.23-3.53.32-5.76.09-2.23.13-4.83.13-7.81v-12.73Z"/>
      <path class="cls-19" d="m689.72,264.61c0-2.77.57-5.17,1.71-7.2,1.14-2.03,2.66-3.77,4.55-5.21,1.89-1.44,4.05-2.6,6.47-3.5s4.93-1.59,7.52-2.1c2.59-.51,5.15-.86,7.68-1.05,2.52-.19,4.84-.31,6.94-.34v-2.68c0-2.31-.3-4.31-.89-5.99-.6-1.68-1.44-3.08-2.52-4.18-1.09-1.1-2.39-1.93-3.92-2.47-1.52-.54-3.2-.82-5.02-.82-1.26,0-2.51.11-3.73.32-1.23.21-2.5.56-3.81,1.05-1.31.49-2.7,1.16-4.15,2-1.46.84-3.02,1.91-4.71,3.21l-.53-.32,3.58-7.41c1.16-.53,2.3-.95,3.42-1.29,1.12-.33,2.26-.6,3.42-.82s2.34-.36,3.55-.45c1.21-.09,2.48-.13,3.81-.13,3.68,0,6.83.45,9.44,1.34,2.61.89,4.75,2.12,6.42,3.68,1.66,1.56,2.88,3.38,3.65,5.47.77,2.09,1.16,4.32,1.16,6.7v17.14c0,2.98.04,5.58.13,7.81.09,2.23.19,4.15.32,5.76.12,1.61.28,2.96.47,4.05.19,1.09.39,2,.6,2.73v.21h-11.62v-.21c.17-.56.31-1.19.39-1.89.09-.7.17-1.54.24-2.52-.74.63-1.6,1.28-2.6,1.95-1,.67-2.14,1.27-3.42,1.81-1.28.54-2.7.98-4.26,1.31-1.56.33-3.27.5-5.13.5-6.1,0-10.82-1.43-14.15-4.29-3.33-2.86-5-6.92-5-12.17Zm34.86-15.3c-3.19.04-6.26.22-9.2.55-2.94.33-5.55,1.03-7.81,2.08s-4.07,2.55-5.42,4.5c-1.35,1.95-2.02,4.53-2.02,7.76,0,4.14,1.03,7.29,3.1,9.47,2.07,2.17,4.93,3.26,8.57,3.26,1.68,0,3.22-.24,4.6-.71,1.38-.47,2.61-1.07,3.68-1.79,1.07-.72,1.97-1.51,2.71-2.37s1.3-1.69,1.68-2.5c.07-1.33.11-2.81.11-4.44v-15.8Z"/>
      <path class="cls-12" d="m815.4,271.28c0,.39-.04.79-.13,1.21-.09.42-.29.77-.6,1.05-1.58,1.19-3.29,2.29-5.13,3.29s-3.83,1.87-5.97,2.6c-2.14.74-4.44,1.31-6.92,1.71s-5.13.6-7.97.6c-6.38,0-12.2-.94-17.46-2.81-5.26-1.88-9.77-4.53-13.54-7.97-3.77-3.43-6.69-7.56-8.76-12.38-2.07-4.82-3.1-10.18-3.1-16.06,0-3.33.43-6.61,1.29-9.83.86-3.23,2.11-6.29,3.76-9.2,1.65-2.91,3.68-5.58,6.1-8.02,2.42-2.44,5.18-4.55,8.28-6.34,3.1-1.79,6.52-3.18,10.25-4.18s7.77-1.5,12.12-1.5c1.68,0,3.4.08,5.15.24,1.75.16,3.49.39,5.21.68,1.72.3,3.37.66,4.97,1.08,1.59.42,3.11.89,4.55,1.42l3.58,9.73-.42.21c-1.37-1.23-2.94-2.37-4.73-3.42s-3.7-1.96-5.73-2.73c-2.03-.77-4.16-1.38-6.39-1.81-2.23-.44-4.48-.66-6.76-.66-4.42,0-8.47.69-12.15,2.08-3.68,1.39-6.85,3.39-9.49,6.02-2.65,2.63-4.71,5.85-6.18,9.68-1.47,3.82-2.21,8.17-2.21,13.04,0,5.36.7,10.34,2.1,14.93,1.4,4.59,3.49,8.57,6.26,11.94,2.77,3.37,6.23,6,10.39,7.91s9,2.87,14.54,2.87c2.45,0,4.64-.19,6.57-.58,1.93-.38,3.56-.87,4.89-1.45,1.33-.58,2.34-1.21,3.02-1.89s1.03-1.31,1.03-1.87v-2.05c0-2.45-.04-4.57-.11-6.36-.07-1.79-.18-3.34-.32-4.65-.14-1.31-.3-2.45-.47-3.39-.18-.95-.39-1.82-.63-2.63v-.21h12.62v.21c-.21.74-.41,1.6-.6,2.6-.19,1-.36,2.18-.5,3.55-.14,1.37-.25,2.97-.32,4.81-.07,1.84-.11,3.97-.11,6.39v2.16Z"/>
      <path class="cls-10" d="m825.34,264.61c0-2.77.57-5.17,1.71-7.2,1.14-2.03,2.66-3.77,4.55-5.21,1.89-1.44,4.05-2.6,6.47-3.5s4.93-1.59,7.52-2.1c2.59-.51,5.15-.86,7.68-1.05,2.52-.19,4.84-.31,6.94-.34v-2.68c0-2.31-.3-4.31-.89-5.99-.6-1.68-1.44-3.08-2.52-4.18-1.09-1.1-2.39-1.93-3.92-2.47-1.52-.54-3.2-.82-5.02-.82-1.26,0-2.51.11-3.73.32-1.23.21-2.5.56-3.81,1.05-1.31.49-2.7,1.16-4.15,2-1.46.84-3.02,1.91-4.71,3.21l-.53-.32,3.58-7.41c1.16-.53,2.3-.95,3.42-1.29,1.12-.33,2.26-.6,3.42-.82s2.34-.36,3.55-.45c1.21-.09,2.48-.13,3.81-.13,3.68,0,6.83.45,9.44,1.34,2.61.89,4.75,2.12,6.42,3.68,1.66,1.56,2.88,3.38,3.65,5.47.77,2.09,1.16,4.32,1.16,6.7v17.14c0,2.98.04,5.58.13,7.81.09,2.23.19,4.15.32,5.76.12,1.61.28,2.96.47,4.05.19,1.09.39,2,.6,2.73v.21h-11.62v-.21c.17-.56.31-1.19.39-1.89.09-.7.17-1.54.24-2.52-.74.63-1.6,1.28-2.6,1.95-1,.67-2.14,1.27-3.42,1.81-1.28.54-2.7.98-4.26,1.31-1.56.33-3.27.5-5.13.5-6.1,0-10.82-1.43-14.15-4.29-3.33-2.86-5-6.92-5-12.17Zm34.86-15.3c-3.19.04-6.26.22-9.2.55-2.94.33-5.55,1.03-7.81,2.08s-4.07,2.55-5.42,4.5c-1.35,1.95-2.02,4.53-2.02,7.76,0,4.14,1.03,7.29,3.1,9.47,2.07,2.17,4.93,3.26,8.57,3.26,1.68,0,3.22-.24,4.6-.71,1.38-.47,2.61-1.07,3.68-1.79,1.07-.72,1.97-1.51,2.71-2.37s1.3-1.69,1.68-2.5c.07-1.33.11-2.81.11-4.44v-15.8Z"/>
      <path class="cls-30" d="m920.31,244.68c0-2.31-.24-4.31-.71-5.99s-1.16-3.08-2.05-4.18-1.97-1.93-3.23-2.47c-1.26-.54-2.67-.82-4.21-.82-1.05,0-2.23.21-3.52.63-1.3.42-2.64.99-4.02,1.71-1.39.72-2.77,1.55-4.15,2.5-1.39.95-2.69,1.96-3.92,3.05-.07,1.12-.11,2.32-.11,3.6v16.85c0,2.98.03,5.58.11,7.81.07,2.23.17,4.15.32,5.76.14,1.61.3,2.96.47,4.05.17,1.09.37,2,.58,2.73v.21h-12.15v-.21c.21-.74.41-1.65.6-2.73.19-1.09.35-2.44.47-4.05.12-1.61.23-3.53.32-5.76.09-2.23.13-4.83.13-7.81v-12.73c0-2.98-.04-5.58-.13-7.81-.09-2.23-.19-4.15-.32-5.76-.12-1.61-.28-2.96-.47-4.05-.19-1.09-.39-2-.6-2.73v-.21h12.15v.21c-.28.81-.5,1.83-.66,3.08-.16,1.24-.32,2.81-.5,4.71,1.4-1.12,2.91-2.23,4.52-3.31,1.61-1.09,3.27-2.05,4.97-2.89,1.7-.84,3.41-1.52,5.13-2.05,1.72-.53,3.42-.79,5.1-.79,2,0,3.77.26,5.31.79,1.54.53,2.89,1.24,4.05,2.16,1.16.91,2.13,1.98,2.92,3.21.79,1.23,1.39,2.54,1.81,3.94,1.44-1.23,3.01-2.45,4.71-3.65,1.7-1.21,3.45-2.29,5.26-3.23,1.8-.95,3.65-1.72,5.52-2.31,1.88-.6,3.71-.89,5.5-.89,2.73,0,5.06.47,6.97,1.42,1.91.95,3.47,2.19,4.68,3.73,1.21,1.54,2.09,3.3,2.63,5.28.54,1.98.82,3.99.82,6.02v17.88c0,2.98.03,5.58.11,7.81.07,2.23.17,4.15.32,5.76.14,1.61.31,2.96.5,4.05.19,1.09.39,2,.6,2.73v.21h-12.2v-.21c.21-.74.41-1.65.6-2.73.19-1.09.36-2.44.5-4.05.14-1.61.25-3.53.32-5.76.07-2.23.11-4.83.11-7.81v-14.88c0-4.63-.93-8.03-2.79-10.2-1.86-2.17-4.35-3.26-7.47-3.26-1.09,0-2.29.21-3.6.63s-2.67,1-4.08,1.74c-1.4.74-2.8,1.59-4.21,2.55-1.4.96-2.72,1.99-3.94,3.08.07.42.11.84.11,1.26v19.09c0,2.98.04,5.58.13,7.81.09,2.23.19,4.15.32,5.76.12,1.61.28,2.96.47,4.05.19,1.09.39,2,.6,2.73v.21h-12.15v-.21c.21-.74.4-1.65.58-2.73.17-1.09.33-2.44.47-4.05.14-1.61.25-3.53.32-5.76.07-2.23.11-4.83.11-7.81v-14.88Z"/>
      <path class="cls-31" d="m1003.97,281.06c-3.89,0-7.54-.61-10.94-1.84-3.4-1.23-6.36-3.02-8.89-5.39-2.52-2.37-4.51-5.29-5.97-8.78-1.46-3.49-2.18-7.48-2.18-11.96,0-3.96.67-7.63,2-11.02,1.33-3.38,3.17-6.32,5.52-8.81,2.35-2.49,5.09-4.43,8.23-5.84,3.14-1.4,6.53-2.1,10.18-2.1s6.96.62,10.04,1.87c3.08,1.24,5.76,3.05,8.02,5.42s4.05,5.29,5.36,8.78c1.31,3.49,2.02,7.46,2.13,11.91-3.96-.07-7.92-.12-11.88-.16-3.96-.03-8.08-.05-12.36-.05-3.05,0-6.02.02-8.91.05-2.89.04-5.5.09-7.81.16.21,3.65.78,6.94,1.71,9.89.93,2.94,2.21,5.46,3.84,7.55s3.61,3.69,5.94,4.81c2.33,1.12,4.97,1.68,7.91,1.68,2.03,0,3.95-.24,5.76-.71,1.8-.47,3.44-1.13,4.92-1.97s2.79-1.83,3.94-2.97,2.14-2.37,2.94-3.71l.63.32-3.89,9.36c-1.89.98-4.15,1.81-6.78,2.5s-5.78,1.03-9.47,1.03Zm-6.99-32.08c3.51,0,7.02,0,10.54-.03,3.52-.02,6.72-.08,9.6-.18-.32-3.05-.91-5.78-1.79-8.2-.88-2.42-2-4.47-3.37-6.15s-2.98-2.98-4.84-3.89c-1.86-.91-3.91-1.37-6.15-1.37-2.03,0-3.9.45-5.6,1.34-1.7.89-3.18,2.18-4.44,3.87s-2.28,3.74-3.05,6.18c-.77,2.44-1.23,5.21-1.37,8.33,1.58.07,3.24.11,5,.11h5.47Z"/>
      <path class="cls-7" d="m1062.55,236.84l-.74.11c-.25-.81-.64-1.66-1.18-2.58-.54-.91-1.25-1.75-2.1-2.52-.86-.77-1.89-1.41-3.1-1.92-1.21-.51-2.6-.76-4.18-.76-1.09,0-2.11.16-3.08.47-.96.32-1.81.78-2.52,1.39-.72.61-1.29,1.38-1.71,2.29-.42.91-.63,1.98-.63,3.21,0,1.72.53,3.36,1.6,4.92,1.07,1.56,2.41,3.1,4.02,4.63,1.61,1.52,3.36,3.06,5.23,4.6,1.88,1.54,3.62,3.16,5.23,4.84,1.61,1.68,2.95,3.48,4.02,5.39,1.07,1.91,1.6,3.97,1.6,6.18,0,1.79-.32,3.53-.95,5.23s-1.6,3.22-2.92,4.55c-1.31,1.33-3,2.41-5.05,3.23s-4.5,1.24-7.34,1.24c-1.68,0-3.25-.16-4.71-.47-1.46-.32-2.79-.71-4-1.18s-2.3-1-3.26-1.58c-.96-.58-1.81-1.13-2.55-1.66l.53-9.99h.84c.35,1.65.88,3.16,1.58,4.52.7,1.37,1.57,2.53,2.6,3.5,1.03.96,2.22,1.72,3.55,2.26,1.33.54,2.79.82,4.36.82,2.59,0,4.65-.72,6.18-2.16,1.52-1.44,2.29-3.31,2.29-5.63,0-1.86-.52-3.57-1.55-5.13-1.03-1.56-2.34-3.06-3.92-4.5-1.58-1.44-3.27-2.87-5.07-4.31-1.81-1.44-3.5-2.97-5.07-4.6s-2.88-3.42-3.92-5.36c-1.03-1.95-1.55-4.16-1.55-6.65,0-2.03.38-3.9,1.13-5.6.75-1.7,1.8-3.16,3.16-4.36,1.35-1.21,2.95-2.15,4.81-2.81,1.86-.67,3.89-1,6.1-1,2.91,0,5.34.31,7.28.92,1.95.61,3.43,1.2,4.44,1.76l.53,8.73Z"/>
    </g>
    <g class="cls-28">
      <path class="cls-4" d="m490.37,517.59c.28-.4.59-1,.95-1.8.35-.8.63-1.8.83-3.01.28-1.77.59-3.75.93-5.96s.69-4.52,1.06-6.95c.37-2.42.73-4.9,1.1-7.44.37-2.54.72-5.04,1.06-7.5s.67-4.83.98-7.12c.32-2.28.6-4.37.85-6.27.25-1.89.46-3.54.62-4.94.16-1.4.28-2.45.36-3.16h4.81l23.81,44.53,23.63-44.53h3.6l6.21,44.98c.18,1.41.37,2.63.57,3.63.2,1.01.4,1.87.61,2.59.2.72.4,1.31.59,1.78s.37.85.55,1.15v.15h-9.54v-.15c.13-.28.25-.73.36-1.36s.17-1.39.17-2.27c0-.33-.01-.66-.04-1-.03-.34-.06-.71-.11-1.12l-4.81-36.27-22.34,42.03-2.61-.3-22.49-42.1c-.88,5.98-1.65,11.51-2.31,16.58-.28,2.17-.56,4.34-.83,6.49-.28,2.16-.52,4.17-.74,6.04-.21,1.87-.38,3.51-.51,4.94-.13,1.43-.19,2.48-.19,3.16,0,.86.02,1.62.08,2.27.05.66.1,1.21.15,1.67.08.53.15,1,.23,1.4h-7.57v-.15Z"/>
      <path class="cls-13" d="m569.24,498.28c0-2.85.53-5.5,1.59-7.93s2.52-4.55,4.37-6.34c1.86-1.79,4.04-3.19,6.57-4.2,2.52-1.01,5.24-1.51,8.14-1.51s5.53.47,8.05,1.42c2.51.95,4.7,2.29,6.57,4.03,1.87,1.74,3.34,3.86,4.41,6.36,1.07,2.5,1.61,5.3,1.61,8.41,0,2.6-.45,5.1-1.36,7.5s-2.25,4.52-4.01,6.36c-1.77,1.84-3.93,3.31-6.49,4.41-2.56,1.1-5.51,1.65-8.84,1.65-2.83,0-5.49-.47-7.99-1.4-2.5-.93-4.68-2.27-6.55-4.01-1.87-1.74-3.34-3.86-4.43-6.34-1.09-2.49-1.63-5.28-1.63-8.39Zm21.47,17.38c1.79,0,3.44-.35,4.94-1.06,1.5-.71,2.8-1.73,3.88-3.07,1.08-1.34,1.93-2.97,2.54-4.88s.91-4.09.91-6.51c0-2.73-.29-5.26-.87-7.59-.58-2.33-1.45-4.35-2.59-6.06-1.15-1.7-2.59-3.04-4.34-3.99-1.74-.96-3.77-1.44-6.1-1.44-1.79,0-3.43.35-4.92,1.04-1.49.69-2.78,1.7-3.88,3.01-1.1,1.31-1.95,2.92-2.56,4.83s-.91,4.07-.91,6.49c0,2.73.3,5.26.89,7.61.59,2.35,1.47,4.39,2.63,6.11,1.16,1.73,2.61,3.08,4.34,4.05,1.73.97,3.74,1.46,6.04,1.46Z"/>
      <path class="cls-2" d="m625.61,480.9c1.59-.86,3.29-1.51,5.11-1.95,1.82-.44,3.67-.66,5.57-.66,2.8,0,5.4.47,7.78,1.42s4.45,2.29,6.19,4.03c1.74,1.74,3.1,3.86,4.09,6.36s1.48,5.3,1.48,8.41c0,2.6-.45,5.1-1.34,7.5s-2.23,4.52-4.01,6.36c-1.78,1.84-3.99,3.31-6.63,4.41-2.64,1.1-5.7,1.65-9.18,1.65-.4,0-.94-.01-1.61-.04-.67-.03-1.41-.08-2.21-.15-.81-.08-1.67-.18-2.57-.3s-1.79-.29-2.65-.49c-1.21-.28-2.43-.59-3.65-.93-1.22-.34-2.39-.73-3.5-1.15.1-.38.19-1.02.27-1.91s.13-1.86.17-2.9.07-2.05.09-3.05c.02-1,.04-1.8.04-2.4v-29.15c0-2.15-.03-4.02-.09-5.62-.06-1.6-.14-2.98-.23-4.15-.09-1.16-.2-2.13-.34-2.92-.14-.78-.28-1.44-.44-1.97v-.15h8.75v.15c-.15.53-.29,1.19-.42,1.97-.13.78-.24,1.75-.34,2.92-.1,1.16-.18,2.54-.23,4.15-.05,1.6-.08,3.48-.08,5.62v4.96Zm0,23.59c0,2.04.02,3.74.06,5.07s.09,2.41.17,3.22c1.06.81,2.5,1.49,4.32,2.04,1.82.56,3.81.83,5.98.83,1.79,0,3.43-.35,4.92-1.06,1.49-.71,2.76-1.73,3.82-3.07s1.89-2.97,2.48-4.88c.59-1.92.89-4.09.89-6.51,0-2.73-.25-5.26-.76-7.59-.51-2.33-1.29-4.35-2.35-6.06s-2.41-3.04-4.05-3.99c-1.64-.96-3.6-1.44-5.87-1.44-1.92,0-3.71.39-5.38,1.17s-3.08,1.92-4.24,3.41v18.86Z"/>
      <path class="cls-5" d="m663.51,491.16c0-.56.11-1.09.32-1.59s.5-.93.85-1.29.78-.64,1.27-.85,1.03-.32,1.61-.32,1.12.11,1.61.32.92.5,1.29.85.66.78.87,1.29.32,1.03.32,1.59c0,1.16-.39,2.13-1.17,2.92s-1.75,1.17-2.92,1.17c-.58,0-1.12-.11-1.61-.32s-.91-.5-1.27-.87-.64-.8-.85-1.29-.32-1.03-.32-1.61Zm0,23.25c0-.56.11-1.08.32-1.57s.5-.92.85-1.29.78-.66,1.27-.87,1.03-.32,1.61-.32,1.12.11,1.61.32.92.5,1.29.87.66.8.87,1.29.32,1.02.32,1.57c0,1.16-.39,2.13-1.17,2.92s-1.75,1.17-2.92,1.17c-.58,0-1.12-.11-1.61-.32s-.91-.5-1.27-.87-.64-.8-.85-1.29-.32-1.03-.32-1.61Z"/>
      <path class="cls-26" d="m712.81,465.72c-1.36,0-2.61.21-3.75.64s-2.12.97-2.95,1.61-1.52,1.33-2.06,2.06-.9,1.39-1.08,1.97h-.72l1.33-6.93c.4-.18.91-.4,1.53-.68s1.34-.56,2.18-.83,1.77-.52,2.82-.72,2.2-.3,3.46-.3c1.72,0,3.42.21,5.11.64,1.69.43,3.21,1.12,4.56,2.08,1.35.96,2.44,2.21,3.28,3.75.83,1.54,1.25,3.41,1.25,5.6,0,1.84-.36,3.59-1.08,5.24s-1.62,3.27-2.71,4.85-2.25,3.14-3.5,4.69-2.42,3.16-3.5,4.81c-1.09,1.65-1.99,3.39-2.71,5.22s-1.08,3.79-1.08,5.89h-1.78c0-2.32.23-4.44.7-6.36s1.05-3.72,1.76-5.4,1.48-3.27,2.31-4.77,1.6-3,2.31-4.49,1.29-3.02,1.76-4.58c.47-1.56.7-3.24.7-5.04,0-1.62-.23-2.99-.68-4.13s-1.06-2.06-1.82-2.78c-.76-.72-1.62-1.24-2.59-1.57-.97-.33-1.99-.49-3.05-.49Zm-4.35,48.69c0-.56.11-1.08.32-1.57s.5-.92.85-1.29.78-.66,1.27-.87,1.03-.32,1.61-.32,1.12.11,1.61.32.92.5,1.29.87.66.8.87,1.29.32,1.02.32,1.57c0,1.16-.39,2.13-1.17,2.92s-1.75,1.17-2.92,1.17c-.58,0-1.12-.11-1.61-.32s-.91-.5-1.27-.87-.64-.8-.85-1.29-.32-1.03-.32-1.61Z"/>
      <path class="cls-8" d="m743.74,465.72c-1.36,0-2.61.21-3.75.64s-2.12.97-2.95,1.61-1.52,1.33-2.06,2.06-.9,1.39-1.08,1.97h-.72l1.33-6.93c.4-.18.91-.4,1.53-.68s1.34-.56,2.18-.83,1.77-.52,2.82-.72,2.2-.3,3.46-.3c1.72,0,3.42.21,5.11.64,1.69.43,3.21,1.12,4.56,2.08s2.44,2.21,3.28,3.75,1.25,3.41,1.25,5.6c0,1.84-.36,3.59-1.08,5.24s-1.62,3.27-2.71,4.85-2.25,3.14-3.5,4.69-2.42,3.16-3.5,4.81-1.99,3.39-2.71,5.22-1.08,3.79-1.08,5.89h-1.78c0-2.32.23-4.44.7-6.36s1.05-3.72,1.76-5.4,1.48-3.27,2.31-4.77c.83-1.5,1.6-3,2.31-4.49s1.29-3.02,1.76-4.58.7-3.24.7-5.04c0-1.62-.23-2.99-.68-4.13s-1.06-2.06-1.82-2.78c-.76-.72-1.62-1.24-2.59-1.57-.97-.33-1.99-.49-3.05-.49Zm-4.35,48.69c0-.56.11-1.08.32-1.57s.5-.92.85-1.29.78-.66,1.27-.87,1.03-.32,1.61-.32,1.12.11,1.61.32.92.5,1.29.87.66.8.87,1.29.32,1.02.32,1.57c0,1.16-.39,2.13-1.17,2.92-.78.78-1.75,1.17-2.92,1.17-.58,0-1.12-.11-1.61-.32s-.91-.5-1.27-.87-.64-.8-.85-1.29-.32-1.03-.32-1.61Z"/>
      <path class="cls-14" d="m774.67,465.72c-1.36,0-2.61.21-3.75.64s-2.12.97-2.95,1.61-1.52,1.33-2.06,2.06-.9,1.39-1.08,1.97h-.72l1.33-6.93c.4-.18.91-.4,1.53-.68s1.34-.56,2.18-.83,1.77-.52,2.82-.72,2.2-.3,3.46-.3c1.72,0,3.42.21,5.11.64,1.69.43,3.21,1.12,4.56,2.08s2.44,2.21,3.28,3.75c.83,1.54,1.25,3.41,1.25,5.6,0,1.84-.36,3.59-1.08,5.24s-1.62,3.27-2.71,4.85-2.25,3.14-3.5,4.69c-1.25,1.55-2.42,3.16-3.5,4.81s-1.99,3.39-2.71,5.22-1.08,3.79-1.08,5.89h-1.78c0-2.32.23-4.44.7-6.36s1.05-3.72,1.76-5.4,1.48-3.27,2.31-4.77,1.6-3,2.31-4.49,1.29-3.02,1.76-4.58.7-3.24.7-5.04c0-1.62-.23-2.99-.68-4.13s-1.06-2.06-1.82-2.78-1.62-1.24-2.59-1.57c-.97-.33-1.99-.49-3.05-.49Zm-4.35,48.69c0-.56.11-1.08.32-1.57s.5-.92.85-1.29.78-.66,1.27-.87,1.03-.32,1.61-.32,1.12.11,1.61.32.92.5,1.29.87.66.8.87,1.29.32,1.02.32,1.57c0,1.16-.39,2.13-1.17,2.92s-1.75,1.17-2.92,1.17c-.58,0-1.12-.11-1.61-.32s-.91-.5-1.27-.87-.64-.8-.85-1.29-.32-1.03-.32-1.61Z"/>
    </g>
    <g class="cls-3">
      <path class="cls-20" d="m326.15,425.55c1.8-1.83,3.88-3.99,6.24-6.49,2.36-2.5,4.89-5.3,7.59-8.39,2.7-3.09,5.4-6.43,8.09-10.03,2.7-3.6,5.3-7.43,7.8-11.51,2.5-4.07,4.71-8.33,6.62-12.77,1.91-4.44,3.44-9.05,4.59-13.83,1.15-4.78,1.73-9.67,1.73-14.67,0-5.34-.63-9.96-1.9-13.87-1.27-3.91-2.99-7.14-5.18-9.69-2.19-2.56-4.76-4.45-7.71-5.69-2.95-1.24-6.14-1.85-9.57-1.85-4.27,0-8.13.72-11.59,2.15-3.46,1.43-6.46,3.11-9.02,5.02-2.56,1.91-4.64,3.82-6.24,5.73-1.6,1.91-2.69,3.37-3.25,4.38l-1.18-.51,5.73-17.11c2.98-1.35,5.77-2.51,8.39-3.5,2.61-.98,5.25-1.78,7.92-2.4,2.67-.62,5.42-1.08,8.26-1.39,2.84-.31,5.97-.46,9.4-.46,2.3,0,4.75.25,7.33.76s5.14,1.32,7.67,2.44c2.53,1.12,4.93,2.57,7.21,4.34,2.28,1.77,4.3,3.93,6.07,6.49,1.77,2.56,3.17,5.52,4.22,8.89,1.04,3.37,1.56,7.22,1.56,11.55,0,4.61-.7,9.23-2.11,13.87-1.41,4.64-3.26,9.19-5.56,13.66-2.3,4.47-4.95,8.84-7.92,13.11-2.98,4.27-6.04,8.35-9.19,12.23-3.15,3.88-6.27,7.52-9.36,10.92-3.09,3.4-5.87,6.5-8.35,9.31h32.46c2.08,0,4.12-.04,6.11-.13s3.84-.22,5.52-.42c1.69-.2,3.16-.46,4.43-.8,1.26-.34,2.23-.76,2.91-1.26h.34v17.96h-74.02v-1.69c.84-1.07,2.16-2.51,3.96-4.34Z"/>
      <path class="cls-25" d="m418.04,425.55c1.8-1.83,3.88-3.99,6.24-6.49,2.36-2.5,4.89-5.3,7.59-8.39,2.7-3.09,5.4-6.43,8.09-10.03s5.3-7.43,7.8-11.51c2.5-4.07,4.71-8.33,6.62-12.77,1.91-4.44,3.44-9.05,4.59-13.83,1.15-4.78,1.73-9.67,1.73-14.67,0-5.34-.63-9.96-1.9-13.87-1.26-3.91-2.99-7.14-5.18-9.69-2.19-2.56-4.76-4.45-7.71-5.69-2.95-1.24-6.14-1.85-9.57-1.85-4.27,0-8.13.72-11.59,2.15-3.46,1.43-6.46,3.11-9.02,5.02-2.56,1.91-4.64,3.82-6.24,5.73-1.6,1.91-2.68,3.37-3.25,4.38l-1.18-.51,5.73-17.11c2.98-1.35,5.77-2.51,8.39-3.5,2.61-.98,5.25-1.78,7.92-2.4,2.67-.62,5.42-1.08,8.26-1.39,2.84-.31,5.97-.46,9.4-.46,2.3,0,4.75.25,7.33.76,2.58.51,5.14,1.32,7.67,2.44,2.53,1.12,4.93,2.57,7.21,4.34,2.28,1.77,4.3,3.93,6.07,6.49,1.77,2.56,3.18,5.52,4.22,8.89,1.04,3.37,1.56,7.22,1.56,11.55,0,4.61-.7,9.23-2.11,13.87-1.41,4.64-3.26,9.19-5.56,13.66-2.31,4.47-4.95,8.84-7.92,13.11-2.98,4.27-6.04,8.35-9.19,12.23-3.15,3.88-6.27,7.52-9.36,10.92-3.09,3.4-5.87,6.5-8.35,9.31h32.46c2.08,0,4.12-.04,6.11-.13,1.99-.08,3.84-.22,5.52-.42,1.69-.2,3.16-.46,4.43-.8,1.27-.34,2.23-.76,2.91-1.26h.34v17.96h-74.02v-1.69c.84-1.07,2.16-2.51,3.96-4.34Z"/>
      <path class="cls-18" d="m501.41,424.15c0-1.23.24-2.4.72-3.5s1.12-2.05,1.94-2.87c.81-.81,1.77-1.46,2.87-1.94s2.26-.72,3.5-.72,2.49.24,3.58.72,2.05,1.13,2.87,1.94c.81.82,1.46,1.77,1.94,2.87s.72,2.26.72,3.5c0,2.59-.87,4.75-2.61,6.49-1.74,1.74-3.91,2.61-6.49,2.61-1.24,0-2.4-.24-3.5-.72-1.1-.48-2.05-1.12-2.87-1.94-.82-.81-1.46-1.77-1.94-2.87s-.72-2.29-.72-3.58Z"/>
      <path class="cls-15" d="m535.13,371.47c0-5.73.74-11.27,2.23-16.61,1.49-5.34,3.6-10.33,6.32-14.96,2.73-4.64,6-8.86,9.82-12.69,3.82-3.82,8.05-7.09,12.69-9.82,4.64-2.72,9.62-4.83,14.96-6.32,5.34-1.49,10.87-2.23,16.61-2.23s11.27.75,16.61,2.23c5.34,1.49,10.34,3.6,15.01,6.32,4.66,2.73,8.91,6,12.73,9.82,3.82,3.82,7.09,8.05,9.82,12.69,2.73,4.64,4.83,9.62,6.32,14.96,1.49,5.34,2.23,10.87,2.23,16.61s-.75,11.34-2.23,16.65c-1.49,5.31-3.6,10.3-6.32,14.96-2.73,4.67-6,8.91-9.82,12.73-3.82,3.82-8.07,7.1-12.73,9.82-4.67,2.73-9.67,4.83-15.01,6.32-5.34,1.49-10.87,2.23-16.61,2.23s-11.27-.75-16.61-2.23c-5.34-1.49-10.33-3.6-14.96-6.32-4.64-2.72-8.87-6-12.69-9.82-3.82-3.82-7.09-8.06-9.82-12.73-2.73-4.66-4.83-9.65-6.32-14.96-1.49-5.31-2.23-10.86-2.23-16.65Zm13.15.34c0,4.61.59,9.05,1.77,13.32,1.18,4.27,2.82,8.28,4.93,12.01s4.66,7.15,7.67,10.24c3.01,3.09,6.35,5.73,10.03,7.92,3.68,2.19,7.63,3.89,11.84,5.1,4.22,1.21,8.63,1.81,13.23,1.81s9.03-.6,13.28-1.81c4.24-1.21,8.2-2.91,11.89-5.1,3.68-2.19,7.01-4.83,9.99-7.92,2.98-3.09,5.54-6.5,7.67-10.24,2.13-3.74,3.79-7.74,4.97-12.01,1.18-4.27,1.77-8.71,1.77-13.32,0-6.91-1.29-13.42-3.88-19.52-2.59-6.1-6.11-11.44-10.58-16.02-4.47-4.58-9.71-8.2-15.72-10.87-6.01-2.67-12.48-4-19.39-4s-13.38,1.34-19.39,4c-6.01,2.67-11.25,6.3-15.72,10.87-4.47,4.58-7.98,9.92-10.54,16.02-2.56,6.1-3.84,12.6-3.84,19.52Z"/>
      <path class="cls-32" d="m745.29,308.66v.34c-.28,1.18-.54,2.64-.76,4.38-.23,1.74-.41,3.91-.55,6.49-.14,2.59-.25,5.66-.34,9.23-.09,3.57-.13,7.74-.13,12.52v51.93c5.11-.11,9.29-.28,12.52-.51,3.23-.22,5.8-.56,7.71-1.01h.34v12.05h-.34c-1.91-.34-4.48-.65-7.71-.93-3.23-.28-7.41-.48-12.52-.59.06,4.1.14,7.7.25,10.79.11,3.09.28,5.77.51,8.05.22,2.28.48,4.22.76,5.82.28,1.6.59,2.94.93,4v.34h-20.23v-.34c.34-1.07.65-2.4.93-4,.28-1.6.52-3.54.72-5.82.2-2.28.36-4.96.5-8.05.14-3.09.24-6.69.3-10.79h-57.83v-3.79l73.17-90.12h1.77Zm-17.11,84.89v-52.94l-42.66,52.94h42.66Z"/>
      <path class="cls-23" d="m774.97,424.15c0-1.23.24-2.4.72-3.5s1.12-2.05,1.94-2.87,1.77-1.46,2.87-1.94,2.26-.72,3.5-.72,2.49.24,3.58.72,2.05,1.13,2.87,1.94c.81.82,1.46,1.77,1.94,2.87.48,1.1.72,2.26.72,3.5,0,2.59-.87,4.75-2.61,6.49-1.74,1.74-3.91,2.61-6.49,2.61-1.24,0-2.4-.24-3.5-.72-1.1-.48-2.05-1.12-2.87-1.94-.82-.81-1.46-1.77-1.94-2.87s-.72-2.29-.72-3.58Z"/>
      <path class="cls-6" d="m818.89,425.55c1.8-1.83,3.88-3.99,6.24-6.49,2.36-2.5,4.89-5.3,7.59-8.39,2.7-3.09,5.4-6.43,8.09-10.03,2.7-3.6,5.3-7.43,7.8-11.51,2.5-4.07,4.71-8.33,6.62-12.77,1.91-4.44,3.44-9.05,4.59-13.83,1.15-4.78,1.73-9.67,1.73-14.67,0-5.34-.63-9.96-1.9-13.87-1.26-3.91-2.99-7.14-5.18-9.69-2.19-2.56-4.76-4.45-7.71-5.69-2.95-1.24-6.14-1.85-9.57-1.85-4.27,0-8.13.72-11.59,2.15s-6.46,3.11-9.02,5.02c-2.56,1.91-4.64,3.82-6.24,5.73-1.6,1.91-2.69,3.37-3.25,4.38l-1.18-.51,5.73-17.11c2.98-1.35,5.77-2.51,8.39-3.5,2.61-.98,5.25-1.78,7.92-2.4,2.67-.62,5.42-1.08,8.26-1.39,2.84-.31,5.97-.46,9.4-.46,2.3,0,4.75.25,7.33.76,2.58.51,5.14,1.32,7.67,2.44,2.53,1.12,4.93,2.57,7.21,4.34,2.28,1.77,4.3,3.93,6.07,6.49,1.77,2.56,3.18,5.52,4.22,8.89,1.04,3.37,1.56,7.22,1.56,11.55,0,4.61-.7,9.23-2.11,13.87-1.41,4.64-3.26,9.19-5.56,13.66-2.31,4.47-4.95,8.84-7.92,13.11-2.98,4.27-6.04,8.35-9.19,12.23-3.15,3.88-6.27,7.52-9.36,10.92-3.09,3.4-5.87,6.5-8.35,9.31h32.46c2.08,0,4.12-.04,6.11-.13,1.99-.08,3.84-.22,5.52-.42,1.69-.2,3.16-.46,4.43-.8,1.26-.34,2.23-.76,2.91-1.26h.34v17.96h-74.02v-1.69c.84-1.07,2.16-2.51,3.96-4.34Z"/>
      <path class="cls-24" d="m896.27,446.24c8.09-2.02,15.52-4.55,22.3-7.59,6.77-3.04,12.63-6.62,17.58-10.75,4.95-4.13,8.8-8.84,11.55-14.12,2.75-5.28,4.13-11.15,4.13-17.62s-1.29-11.86-3.88-16.35c-2.59-4.5-6.11-8.18-10.58-11.04-4.47-2.87-9.72-4.97-15.76-6.32-6.04-1.35-12.49-2.08-19.35-2.19l10.87-49.57h16.1c4.78,0,8.95-.01,12.52-.04,3.57-.03,6.64-.06,9.23-.08,2.58-.03,4.75-.07,6.49-.13,1.74-.06,3.2-.14,4.38-.25h.34v18.29h-.34c-1.18-.34-2.64-.65-4.38-.93-1.74-.28-3.91-.53-6.49-.76-2.59-.22-5.66-.39-9.23-.51-3.57-.11-7.74-.17-12.52-.17h-12.48l-4.47,18.97c4.55.11,9.05.55,13.49,1.31,4.44.76,8.68,1.91,12.73,3.46,4.05,1.55,7.8,3.49,11.25,5.82,3.46,2.33,6.45,5.09,8.98,8.26,2.53,3.18,4.51,6.8,5.94,10.87,1.43,4.08,2.15,8.61,2.15,13.62,0,6.46-.98,12.31-2.95,17.53-1.97,5.23-4.64,9.95-8.01,14.16s-7.31,7.95-11.8,11.21c-4.5,3.26-9.29,6.12-14.37,8.6-5.09,2.47-10.33,4.61-15.72,6.41-5.4,1.8-10.68,3.32-15.85,4.55l-1.85-4.64Z"/>
    </g>
  </g>
</svg>