<?xml version="1.0" encoding="UTF-8"?>
<svg xmlns="http://www.w3.org/2000/svg" xmlns:xlink="http://www.w3.org/1999/xlink" viewBox="0 0 1280 720">
  <defs>
    <style>
      .cls-1 {
        fill: url(#linear-gradient-2);
      }

      .cls-2 {
        fill: url(#linear-gradient-6);
      }

      .cls-3 {
        fill: none;
        stroke: url(#linear-gradient);
        stroke-miterlimit: 10;
        stroke-width: 35px;
      }

      .cls-4 {
        fill: url(#linear-gradient-11);
      }

      .cls-5 {
        fill: url(#linear-gradient-10);
      }

      .cls-6 {
        fill: url(#linear-gradient-5);
      }

      .cls-7 {
        fill: url(#linear-gradient-7);
      }

      .cls-8 {
        fill: url(#linear-gradient-9);
      }

      .cls-9 {
        fill: #001219;
      }

      .cls-10 {
        fill: url(#linear-gradient-3);
      }

      .cls-11 {
        fill: #e9d8a6;
      }

      .cls-12 {
        fill: url(#linear-gradient-4);
      }

      .cls-13 {
        fill: url(#linear-gradient-8);
      }
    </style>
    <linearGradient id="linear-gradient" x1="640" y1="737.5" x2="640" y2="-17.5" gradientUnits="userSpaceOnUse">
      <stop offset="0" stop-color="#ae2012"/>
      <stop offset="1" stop-color="#ee9b00"/>
    </linearGradient>
    <linearGradient id="linear-gradient-2" x1="334.66" y1="466.43" x2="334.66" y2="343.52" gradientUnits="userSpaceOnUse">
      <stop offset="0" stop-color="#005f73"/>
      <stop offset="1" stop-color="#e9d8a6"/>
    </linearGradient>
    <linearGradient id="linear-gradient-3" x1="406.13" x2="406.13" xlink:href="#linear-gradient-2"/>
    <linearGradient id="linear-gradient-4" x1="477.06" x2="477.06" xlink:href="#linear-gradient-2"/>
    <linearGradient id="linear-gradient-5" x1="548.96" x2="548.96" xlink:href="#linear-gradient-2"/>
    <linearGradient id="linear-gradient-6" x1="617.97" x2="617.97" xlink:href="#linear-gradient-2"/>
    <linearGradient id="linear-gradient-7" x1="681.79" y1="466.43" x2="681.79" y2="343.52" xlink:href="#linear-gradient"/>
    <linearGradient id="linear-gradient-8" x1="748.86" y1="466.43" x2="748.86" y2="343.52" xlink:href="#linear-gradient"/>
    <linearGradient id="linear-gradient-9" x1="816.02" y1="466.43" x2="816.02" y2="343.52" xlink:href="#linear-gradient"/>
    <linearGradient id="linear-gradient-10" x1="882.48" y1="468.19" x2="882.48" y2="341.77" xlink:href="#linear-gradient"/>
    <linearGradient id="linear-gradient-11" x1="948.67" y1="466.43" x2="948.67" y2="343.52" xlink:href="#linear-gradient"/>
  </defs>
  <g id="Layer_2" data-name="Layer 2">
    <rect class="cls-9" width="1280" height="720"/>
  </g>
  <g id="Layer_3" data-name="Layer 3">
    <rect class="cls-3" width="1280" height="720"/>
  </g>
  <g id="Layer_1" data-name="Layer 1">
    <g>
      <g>
        <path class="cls-1" d="m304.99,343.52h19.31v50.04h20.72v-50.04h19.31v122.91h-19.31v-55.31h-20.72v55.31h-19.31v-122.91Z"/>
        <path class="cls-10" d="m396.47,414.11l-23.35-70.59h20.54l13.17,45.13h.35l13.17-45.13h18.79l-23.35,70.59v52.32h-19.31v-52.32Z"/>
        <path class="cls-12" d="m447.91,343.52h29.5c9.6,0,16.8,2.58,21.6,7.73,4.8,5.15,7.2,12.7,7.2,22.65v62.16c0,9.95-2.4,17.5-7.2,22.65-4.8,5.15-12,7.73-21.6,7.73h-29.5v-122.91Zm29.15,105.35c3.16,0,5.59-.94,7.29-2.81,1.69-1.87,2.55-4.92,2.55-9.13v-63.91c0-4.21-.85-7.26-2.55-9.13-1.7-1.87-4.13-2.81-7.29-2.81h-9.83v87.79h9.83Z"/>
        <path class="cls-6" d="m519.2,343.52h28.62c9.95,0,17.21,2.31,21.77,6.94,4.57,4.63,6.85,11.74,6.85,21.33v7.55c0,12.76-4.21,20.84-12.64,24.23v.35c4.68,1.41,7.99,4.27,9.92,8.6,1.93,4.33,2.9,10.13,2.9,17.38v21.6c0,3.51.12,6.35.35,8.52.23,2.17.82,4.3,1.76,6.41h-19.67c-.7-1.99-1.17-3.86-1.4-5.62-.24-1.76-.35-4.92-.35-9.48v-22.47c0-5.62-.91-9.54-2.72-11.76-1.82-2.22-4.95-3.34-9.39-3.34h-6.67v52.68h-19.31v-122.91Zm26.34,52.68c3.86,0,6.76-.99,8.69-2.99,1.93-1.99,2.9-5.32,2.9-10.01v-9.48c0-4.45-.79-7.67-2.37-9.66-1.58-1.99-4.07-2.99-7.46-2.99h-8.78v35.12h7.02Z"/>
        <path class="cls-2" d="m604.89,343.52h26.16l20.02,122.91h-19.31l-3.51-24.41v.35h-21.95l-3.51,24.06h-17.91l20.02-122.91Zm21.07,82.17l-8.6-60.75h-.35l-8.43,60.75h17.38Z"/>
        <path class="cls-7" d="m650.36,343.52h19.49l12.64,95.34h.35l12.64-95.34h17.73l-18.61,122.91h-25.64l-18.61-122.91Z"/>
        <path class="cls-13" d="m722.52,343.52h52.68v17.56h-33.36v32.48h26.51v17.56h-26.51v37.75h33.36v17.56h-52.68v-122.91Z"/>
        <path class="cls-8" d="m786.26,343.52h28.62c9.95,0,17.21,2.31,21.77,6.94,4.57,4.63,6.85,11.74,6.85,21.33v7.55c0,12.76-4.21,20.84-12.64,24.23v.35c4.68,1.41,7.99,4.27,9.92,8.6,1.93,4.33,2.9,10.13,2.9,17.38v21.6c0,3.51.12,6.35.35,8.52.23,2.17.82,4.3,1.76,6.41h-19.67c-.7-1.99-1.17-3.86-1.4-5.62-.24-1.76-.35-4.92-.35-9.48v-22.47c0-5.62-.91-9.54-2.72-11.76-1.82-2.22-4.95-3.34-9.39-3.34h-6.67v52.68h-19.31v-122.91Zm26.34,52.68c3.86,0,6.76-.99,8.69-2.99,1.93-1.99,2.9-5.32,2.9-10.01v-9.48c0-4.45-.79-7.67-2.37-9.66-1.58-1.99-4.07-2.99-7.46-2.99h-8.78v35.12h7.02Z"/>
        <path class="cls-5" d="m860.88,460.2c-4.8-5.33-7.2-12.96-7.2-22.91v-7.02h18.26v8.43c0,7.96,3.34,11.94,10.01,11.94,3.28,0,5.76-.97,7.46-2.9,1.7-1.93,2.55-5.06,2.55-9.39,0-5.15-1.17-9.68-3.51-13.61-2.34-3.92-6.67-8.63-12.99-14.13-7.96-7.02-13.52-13.37-16.68-19.05-3.16-5.68-4.74-12.09-4.74-19.23,0-9.71,2.46-17.23,7.37-22.56,4.92-5.32,12.06-7.99,21.42-7.99s16.24,2.66,20.98,7.99c4.74,5.33,7.11,12.97,7.11,22.91v5.09h-18.26v-6.32c0-4.21-.82-7.29-2.46-9.22-1.64-1.93-4.04-2.9-7.2-2.9-6.44,0-9.66,3.92-9.66,11.76,0,4.45,1.2,8.6,3.6,12.47,2.4,3.86,6.76,8.55,13.08,14.05,8.08,7.02,13.64,13.41,16.68,19.14,3.04,5.74,4.57,12.47,4.57,20.19,0,10.07-2.49,17.79-7.46,23.18-4.98,5.39-12.2,8.08-21.68,8.08s-16.45-2.66-21.25-7.99Z"/>
        <path class="cls-4" d="m922.34,343.52h52.68v17.56h-33.36v32.48h26.51v17.56h-26.51v37.75h33.36v17.56h-52.68v-122.91Z"/>
      </g>
      <g>
        <path class="cls-11" d="m419.39,252.81h16.54c5.64,0,9.76,1.31,12.35,3.94,2.59,2.62,3.89,6.66,3.89,12.1v2.79c0,3.59-.58,6.51-1.74,8.77-1.16,2.26-2.94,3.88-5.33,4.88v.2c5.44,1.86,8.17,6.71,8.17,14.54v5.98c0,5.38-1.41,9.48-4.23,12.3-2.82,2.82-6.96,4.23-12.4,4.23h-17.24v-69.74Zm15.24,28.39c2.19,0,3.84-.56,4.93-1.69,1.1-1.13,1.64-3.02,1.64-5.68v-3.89c0-2.52-.45-4.35-1.35-5.48-.9-1.13-2.31-1.69-4.23-1.69h-5.28v18.43h4.28Zm1.99,31.38c1.93,0,3.35-.51,4.28-1.54.93-1.03,1.39-2.8,1.39-5.33v-6.08c0-3.19-.55-5.4-1.64-6.63-1.1-1.23-2.91-1.84-5.43-1.84h-4.88v21.42h6.28Z"/>
        <path class="cls-11" d="m459.64,252.81h10.96v69.74h-10.96v-69.74Z"/>
        <path class="cls-11" d="m478.76,252.81h29.89v9.96h-18.93v18.43h15.04v9.96h-15.04v21.42h18.93v9.96h-29.89v-69.74Z"/>
        <path class="cls-11" d="m514.93,252.81h13.75l10.66,41.74h.2v-41.74h9.76v69.74h-11.26l-13.15-50.91h-.2v50.91h-9.76v-69.74Z"/>
        <path class="cls-11" d="m554.57,252.81h11.06l7.17,54.1h.2l7.17-54.1h10.06l-10.56,69.74h-14.54l-10.56-69.74Z"/>
        <path class="cls-11" d="m595.52,252.81h29.89v9.96h-18.93v18.43h15.04v9.96h-15.04v21.42h18.93v9.96h-29.89v-69.74Z"/>
        <path class="cls-11" d="m631.68,252.81h13.75l10.66,41.74h.2v-41.74h9.76v69.74h-11.26l-13.15-50.91h-.2v50.91h-9.76v-69.74Z"/>
        <path class="cls-11" d="m674.22,252.81h10.96v69.74h-10.96v-69.74Z"/>
        <path class="cls-11" d="m693.35,252.81h16.74c5.45,0,9.53,1.46,12.25,4.38,2.72,2.92,4.08,7.21,4.08,12.85v35.27c0,5.65-1.36,9.93-4.08,12.85-2.72,2.92-6.81,4.38-12.25,4.38h-16.74v-69.74Zm16.54,59.77c1.79,0,3.17-.53,4.13-1.59.96-1.06,1.44-2.79,1.44-5.18v-36.26c0-2.39-.48-4.12-1.44-5.18-.96-1.06-2.34-1.59-4.13-1.59h-5.58v49.81h5.58Z"/>
        <path class="cls-11" d="m737.28,318.96c-2.86-3.05-4.28-7.37-4.28-12.95v-36.66c0-5.58,1.43-9.89,4.28-12.95,2.85-3.05,6.97-4.58,12.35-4.58s9.5,1.53,12.35,4.58c2.86,3.06,4.28,7.37,4.28,12.95v36.66c0,5.58-1.43,9.9-4.28,12.95-2.86,3.06-6.97,4.58-12.35,4.58s-9.5-1.53-12.35-4.58Zm18.03-12.25v-38.06c0-4.58-1.89-6.87-5.68-6.87s-5.68,2.29-5.68,6.87v38.06c0,4.58,1.89,6.87,5.68,6.87s5.68-2.29,5.68-6.87Z"/>
        <path class="cls-11" d="m775.83,319.01c-2.72-3.02-4.08-7.36-4.08-13v-3.99h10.36v4.78c0,4.52,1.89,6.77,5.68,6.77,1.86,0,3.27-.55,4.23-1.64.96-1.1,1.44-2.87,1.44-5.33,0-2.92-.67-5.49-1.99-7.72-1.33-2.22-3.79-4.9-7.37-8.02-4.52-3.99-7.67-7.59-9.46-10.81-1.79-3.22-2.69-6.86-2.69-10.91,0-5.51,1.39-9.78,4.18-12.8,2.79-3.02,6.84-4.53,12.15-4.53s9.22,1.51,11.9,4.53c2.69,3.02,4.04,7.36,4.04,13v2.89h-10.36v-3.59c0-2.39-.46-4.13-1.39-5.23-.93-1.1-2.29-1.64-4.08-1.64-3.65,0-5.48,2.23-5.48,6.67,0,2.52.68,4.88,2.04,7.07,1.36,2.19,3.84,4.85,7.42,7.97,4.58,3.98,7.74,7.61,9.46,10.86,1.73,3.25,2.59,7.07,2.59,11.46,0,5.71-1.41,10.1-4.23,13.15-2.82,3.06-6.92,4.58-12.3,4.58s-9.33-1.51-12.05-4.53Z"/>
        <path class="cls-11" d="m835.11,252.81h14.84l11.36,69.74h-10.96l-1.99-13.85v.2h-12.45l-1.99,13.65h-10.16l11.36-69.74Zm11.95,46.62l-4.88-34.47h-.2l-4.78,34.47h9.86Z"/>
      </g>
    </g>
  </g>
</svg>