<?xml version="1.0" encoding="UTF-8"?>
<svg id="Layer_1" data-name="Layer 1" xmlns="http://www.w3.org/2000/svg" xmlns:xlink="http://www.w3.org/1999/xlink" viewBox="0 0 128 128">
  <defs>
    <style>
      .cls-1 {
        fill: url(#linear-gradient);
      }
    </style>
    <linearGradient id="linear-gradient" x1="64" y1="124.78" x2="64" y2="3.22" gradientUnits="userSpaceOnUse">
      <stop offset="0" stop-color="#005f73"/>
      <stop offset="1" stop-color="#e9d8a6"/>
    </linearGradient>
  </defs>
  <path class="cls-1" d="m106.47,89.4c-5.27-17.31-5.65-23.71-1.88-29.73,0,0-14.3,7.9-12.04,27.1,0,0-3.79-14.47,3.39-26.35,3.37-5.57-1.96-12.04-1.96-12.04,1.51,5.65-2.63,14.68-3.01,4.89-.38-9.78-6.77-20.51-6.77-20.51,7.9,26.91-.38,29.26-.38,29.26,3.94-8.71-5.79-32.18-5.79-32.18,1.08,11.01-1.18,12.7-1.18,12.7-5.64-3.95-.94-16.75-1.69-23.52-.75-6.77-4.44-15.81-4.44-15.81,1.05,17.5-11.67,18.82-9.03,37.26,0,0-4.52-10.91,0-22.2,0,0-17.31,23.71-4.89,51.94,0,0-13.17-10.91-9.03-31.24,0,0-12.42,16.94-4.52,31.99,7.9,15.05-15.43,17.31-10.16-16.94,0,0-12.8,12.04-12.8,34.62,0,20.88,19.16,34.25,46.73,36.12-13.99-1.34-26.66-8.58-26.66-19.53,0-12.22,6.92-18.73,6.92-18.73-2.85,18.53,9.77,17.31,5.5,9.16-4.28-8.14,2.44-17.31,2.44-17.31-2.24,10.99,4.89,16.9,4.89,16.9-6.72-15.27,2.65-28.1,2.65-28.1-2.44,6.11,0,12.01,0,12.01-1.42-9.98,5.46-10.69,4.89-20.16,0,0,1.99,4.89,2.4,8.55.41,3.66-2.14,10.59.92,12.72,0,0,1.22-.92.64-6.87,0,0,5.26,12.7,3.13,17.41,0,0,4.48-1.27.2-15.83,0,0,3.46,5.8,3.66,11.1.2,5.29,2.44.41,1.63-2.65,0,0,2.88,3.5,1.06,6.51-3.89,6.42-1.83,14.25-1.83,14.25-1.22-10.38,6.51-14.66,6.51-14.66-2.04,3.26-1.83,6.72,1.02,16.08,2.81,9.22-3.08,18.83-19.96,19.12.36,0,.71.01,1.07.01,32.37,0,43.66-18.07,38.39-35.38Z"/>
</svg>