<?xml version="1.0" encoding="UTF-8"?>
<svg id="Layer_1" data-name="Layer 1" xmlns="http://www.w3.org/2000/svg" xmlns:xlink="http://www.w3.org/1999/xlink" viewBox="0 0 128 128">
  <defs>
    <style>
      .cls-1 {
        fill: url(#linear-gradient-2);
      }

      .cls-2 {
        fill: url(#linear-gradient);
      }
    </style>
    <linearGradient id="linear-gradient" x1="56.47" y1="91.09" x2="56.47" y2="4.68" gradientUnits="userSpaceOnUse">
      <stop offset="0" stop-color="#005f73"/>
      <stop offset="1" stop-color="#e9d8a6"/>
    </linearGradient>
    <linearGradient id="linear-gradient-2" x1="73.02" y1="123.32" x2="73.02" y2="59.46" xlink:href="#linear-gradient"/>
  </defs>
  <path class="cls-2" d="m55.17,91.06c-6.27-.5-10.06-10.27-1.43-21.05,4.68-5.85,3.83-10.31,3.83-10.31,9.04,9.99-.8,15.63.24,18.1,1.04,2.47,3.19.4,4.55-3.51,0,0,1.53,3.12,1.83,6.7,4.25-4.23,8.95-7.44,13.48-10.66,1.41-12.4-5.01-25.48-5.01-25.48-3.73,10.75-9.66,16.46-12.51,9.66-2.85-6.8,24.22-22.31-.66-49.82,0,0,2.34,12.29-10.53,28.39-24.78,30.97-12.34,58.94,6.22,58Z"/>
  <path class="cls-1" d="m60.76,123.32s-13.08-9.92-5.02-26.88c8.05-16.96,22.44-21.5,32.52-31.48,1.63-1.62,3.12-3.49,4.46-5.49,0,0,2.14,11.96-7.66,20.06-19.05,15.75-26.89,27-24.3,43.8Z"/>
</svg>