<?xml version="1.0" encoding="UTF-8"?>
<svg id="Layer_1" data-name="Layer 1" xmlns="http://www.w3.org/2000/svg" xmlns:xlink="http://www.w3.org/1999/xlink" viewBox="0 0 128 128">
  <defs>
    <style>
      .cls-1 {
        fill: url(#linear-gradient-2);
      }

      .cls-2 {
        fill: url(#linear-gradient);
      }
    </style>
    <linearGradient id="linear-gradient" x1="46.71" y1="124.56" x2="46.71" y2="1.18" gradientUnits="userSpaceOnUse">
      <stop offset="0" stop-color="#005f73"/>
      <stop offset="1" stop-color="#e9d8a6"/>
    </linearGradient>
    <linearGradient id="linear-gradient-2" x1="78.18" y1="126.82" x2="78.18" y2="12.65" xlink:href="#linear-gradient"/>
  </defs>
  <path class="cls-2" d="m35.27,95.93c.78,7.96,4.76,10.5,4.76,10.5h0c.81-5.29,3.82-11.59,10.9-18.67,22.32-22.32,19-36.5,15.69-45.25-3.32-8.75-15.39-12.97-15.39-12.97,5.72,14.22-8.14,10.26-8.14,10.26-12.67-6.94,2.11-21.42,3.62-27.15,1.51-5.73-4.83-11.46-4.83-11.46,2.41,9.96-4.22,15.39-10.56,22.63-6.33,7.24-11.77,17.8,2.11,34.69,13.88,16.89,3.92,30.77,3.92,30.77-1.21-14.78-9.35-12.97-9.35-12.97,7.84,6.03-3.62,14.18-3.62,29.26s22.32,19.01,22.32,19.01c-18.69-13-11.45-28.64-11.45-28.64Z"/>
  <path class="cls-1" d="m94.63,109.6c17.76-16.94-.2-46.73-.2-46.73,5.1,16.95-5.31,35.51-12.86,34.69s-13.27-9.59-2.25-28.95c11.02-19.36,7.65-32.59,7.65-32.59-.31,5.21-2.76,9.29-2.76,9.29,5.1-13.47-3.47-26.33-3.47-26.33,0,0,3.27,9.19-3.88,10.61-7.14,1.43-5.51-16.94-5.51-16.94-3.27,5.51-5.31,14.49,0,34.49,4.33,16.32-5.2,32.23-14.28,44.18h0s-11.97,17.66,3.95,22.15c11.4,3.22,19.59-8.37,19.59-8.37,0,0,0,11.43-6.74,15.31,0,0,7.76-1.84,9.59-7.35l-3.41,13.75c20.73-5.44,23.54-28.04,23.54-28.04-2.24,7.35-8.98,10.82-8.98,10.82Z"/>
</svg>