<?xml version="1.0" encoding="UTF-8"?>
<svg id="Layer_1" data-name="Layer 1" xmlns="http://www.w3.org/2000/svg" xmlns:xlink="http://www.w3.org/1999/xlink" viewBox="0 0 128 128">
  <defs>
    <style>
      .cls-1 {
        fill: url(#linear-gradient-2);
      }

      .cls-2 {
        fill: url(#linear-gradient-3);
      }

      .cls-3 {
        fill: url(#linear-gradient);
      }
    </style>
    <linearGradient id="linear-gradient" x1="76.12" y1="4.3" x2="76.12" y2="65.4" gradientTransform="translate(0 130) scale(1 -1)" gradientUnits="userSpaceOnUse">
      <stop offset="0" stop-color="#005f73"/>
      <stop offset="1" stop-color="#e9d8a6"/>
    </linearGradient>
    <linearGradient id="linear-gradient-2" x1="70.22" y1="6.37" x2="70.22" y2="100.46" xlink:href="#linear-gradient"/>
    <linearGradient id="linear-gradient-3" x1="51.36" y1="32.41" x2="51.36" y2="127.7" xlink:href="#linear-gradient"/>
  </defs>
  <path class="cls-3" d="m64.39,125.7s-12.51-9.5-4.81-25.72c7.71-16.23,21.47-20.57,31.11-30.12,1.56-1.55,2.98-3.34,4.27-5.26,0,0,2.05,11.44-7.33,19.19-18.23,15.07-25.73,25.83-23.25,41.91Z"/>
  <path class="cls-1" d="m52.17,123.63s-19.26-14.62-7.4-39.61c11.86-24.99,33.06-31.67,47.9-46.38,2.4-2.38,4.59-5.14,6.57-8.09,0,0,3.15,17.62-11.28,29.55-28.07,23.21-39.61,39.78-35.8,64.54Z"/>
  <path class="cls-2" d="m37.47,97.59s1.09-21.67,19.61-37c0,0,18.95-16.44,17.05-35.13,0,0-1.84,11.96-11.03,17.56-9.19,5.61-13.24-27.28,0-40.73,0,0-17.26,11.58-22.19,44.84,0,0-7.54-4.55-2.69-17.6,0,0-7.11,9.28-9.49,28.8-1.72,14.09,5.26,18.24,8.74,39.24Z"/>
</svg>