<?xml version="1.0" encoding="UTF-8"?>
<svg id="Layer_1" data-name="Layer 1" xmlns="http://www.w3.org/2000/svg" xmlns:xlink="http://www.w3.org/1999/xlink" viewBox="0 0 128 128">
  <defs>
    <style>
      .cls-1 {
        fill: url(#linear-gradient-2);
      }

      .cls-2 {
        fill: url(#linear-gradient-3);
      }

      .cls-3 {
        fill: url(#linear-gradient);
      }
    </style>
    <linearGradient id="linear-gradient" x1="72.58" y1="115.49" x2="72.58" y2="21.25" gradientUnits="userSpaceOnUse">
      <stop offset="0" stop-color="#005f73"/>
      <stop offset="1" stop-color="#e9d8a6"/>
    </linearGradient>
    <linearGradient id="linear-gradient-2" x1="62.92" y1="127.83" x2="62.92" y2="17.7" xlink:href="#linear-gradient"/>
    <linearGradient id="linear-gradient-3" x1="75.43" y1="87.67" x2="75.43" y2=".17" xlink:href="#linear-gradient"/>
  </defs>
  <path class="cls-3" d="m98.23,115.49s-3.95-7.76-19.62-17.68c-15.68-9.93-21.88-20.92-22.73-26.37,0,0,18.35,18.3,28.09,18.35,0,0-45.88-24.71-35.49-68.53,0,0,14.51,30.21,29.9,40.35,15.39,10.14,19.21,43.04,19.86,53.88Z"/>
  <path class="cls-1" d="m44.89,53.44s-14.63-15.57-12.15-35.74c0,0-15.19,61.29,13.8,80.27,0,0-10.32-.37-15.39-9.42,0,0,5.37,18.49,27.7,23.27,22.33,4.78,38.22,16.02,38.22,16.02,0,0-1.14-17.02-14.94-21.39-20.45-6.47-41.3-10.72-47.91-60.21,0,0,3.47,8.25,10.68,7.21Z"/>
  <path class="cls-2" d="m51.83.17c-.68,4.41.37,10.63,2.52,17.37.11.22,6.49,12.57,12.14,15.73,0,0-7.26-3.29-8.55-6.3,5.81,13.19,14.69,26.1,22.62,29.8,14,6.54,18.17,30.9,18.17,30.9C104.98,30.79,51.83.17,51.83.17Z"/>
</svg>