<?xml version="1.0" encoding="UTF-8"?>
<svg id="Layer_1" data-name="Layer 1" xmlns="http://www.w3.org/2000/svg" xmlns:xlink="http://www.w3.org/1999/xlink" viewBox="0 0 128 128">
  <defs>
    <style>
      .cls-1 {
        fill: url(#linear-gradient);
      }
    </style>
    <linearGradient id="linear-gradient" x1="64" y1="6.99" x2="64" y2="125.01" gradientTransform="translate(0 130) scale(1 -1)" gradientUnits="userSpaceOnUse">
      <stop offset="0" stop-color="#005f73"/>
      <stop offset="1" stop-color="#e9d8a6"/>
    </linearGradient>
  </defs>
  <path class="cls-1" d="m89.55,33.28c1.33,12.82-6.63,17.69-6.63,17.69-.44-32.28-17.24-45.98-17.24-45.98,3.54,12.38-5.75,16.8-22.11,42-16.36,25.2-.88,51.29-.88,51.29-7.96-.88-13.71-15.48-13.71-15.48,3.3,31.39,24.38,38.58,34.82,40.21-4.28-2.3-8.7-6.93-9.69-16.25,0,0,2.62,6.64,6.24,7.05,0,0-7.05-11.88.4-23.35,7.45-11.47,11.67-13.49,10.06-19.12,0,0,7.65,6.24,7.85,20.93,0,0,3.62-2.21,3.02-8.05,0,0,10.39,22.27-1.08,36.79,35.33-31.14,8.94-87.72,8.94-87.72Z"/>
</svg>