<?xml version="1.0" encoding="UTF-8"?>
<svg id="Layer_1" data-name="Layer 1" xmlns="http://www.w3.org/2000/svg" xmlns:xlink="http://www.w3.org/1999/xlink" viewBox="0 0 128 128">
  <defs>
    <style>
      .cls-1 {
        fill: url(#linear-gradient);
      }
    </style>
    <linearGradient id="linear-gradient" x1="64" y1="122.48" x2="64" y2="5.52" gradientUnits="userSpaceOnUse">
      <stop offset="0" stop-color="#005f73"/>
      <stop offset="1" stop-color="#e9d8a6"/>
    </linearGradient>
  </defs>
  <path class="cls-1" d="m94.95,37.65c2.47,10.88-13.73,17.8-13.73,17.8,13.73-24.22-13.46-49.93-13.46-49.93,0,45.48-44.17,49.44-44.17,85.99,0,17.21,11.33,26.77,25.47,30.31-.05-.03-17.33-10.78-12.88-26.14,0,0,4.08,14.47,8.71,13.07,4.64-1.39-4.53-8.44-2.64-14.93,1.89-6.49,6.34-7.97,8.75-9.83,2.41-1.85,3.89-5.38,1.48-9.27,0,0,11.49,10.2,4.08,16.87-7.42,6.67-6.86,9.83-3.15,11.86,3.71,2.04,16.31-.19,20.39-15.39,0,0,6.12,17.43,0,23.17,0,0,2.97,2.97,8.9-1.85,0,0-1.38,9.85-9.22,13.08,8.43-1.48,16.24-4.64,21.83-9.19,20.65-16.81-.38-75.64-.38-75.64Z"/>
</svg>