<?xml version="1.0" encoding="UTF-8"?>
<svg id="Layer_1" data-name="Layer 1" xmlns="http://www.w3.org/2000/svg" xmlns:xlink="http://www.w3.org/1999/xlink" viewBox="0 0 128 128">
  <defs>
    <style>
      .cls-1 {
        fill: url(#linear-gradient-2);
      }

      .cls-2 {
        fill: url(#linear-gradient-3);
      }

      .cls-3 {
        fill: url(#linear-gradient);
      }
    </style>
    <linearGradient id="linear-gradient" x1="89.85" y1="98.27" x2="89.85" y2="57.16" gradientUnits="userSpaceOnUse">
      <stop offset="0" stop-color="#005f73"/>
      <stop offset="1" stop-color="#e9d8a6"/>
    </linearGradient>
    <linearGradient id="linear-gradient-2" x1="40.94" y1="119.11" x2="40.94" y2="43.09" xlink:href="#linear-gradient"/>
    <linearGradient id="linear-gradient-3" x1="70.6" y1="126.81" x2="70.6" y2="1.19" xlink:href="#linear-gradient"/>
  </defs>
  <path class="cls-3" d="m81.65,98.27s9.56-7.65,11-17.69c1.43-10.04,0-23.43,0-23.43,0,0,17.69,31.55-11,41.12Z"/>
  <path class="cls-1" d="m40.43,119.11s-8.5-14.34-3.72-26.77c4.78-12.43,19.6-30.6,16.26-49.24,0,0-4.83,16.1-17.72,31.24-12.88,15.14-5.45,28.05,5.18,44.78Z"/>
  <path class="cls-2" d="m76.63,100.48c-7.17-14.34,36.34-31.24-7.17-99.29,0,0,10.4,38.21-13.39,66.3-20.64,24.36-18.69,54.68,2.77,58.89,1,.2,1.99.33,2.97.42h0s-12.91-5.77-11.47-20.59c1.43-14.82,8.61-17.3,11.47-26.58,0,0-4.15,21.47,0,29.93,2.81,5.74,12.43,8.08,17.21,1.91,0,0-.16,10.39-6.3,14.52h0c15.23-3.79,26.85-17.92,26.85-29.18,0,0-15.78,18.01-22.95,3.67Z"/>
</svg>