<?xml version="1.0" encoding="UTF-8"?>
<svg xmlns="http://www.w3.org/2000/svg" xmlns:xlink="http://www.w3.org/1999/xlink" viewBox="0 0 3000 1200">
  <defs>
    <style>
      .cls-1 {
        fill: url(#linear-gradient-75);
      }

      .cls-2 {
        fill: url(#linear-gradient-2);
      }

      .cls-3 {
        fill: url(#linear-gradient-51);
      }

      .cls-4 {
        fill: url(#linear-gradient-17);
      }

      .cls-5 {
        fill: url(#linear-gradient-80);
      }

      .cls-6 {
        font-family: Marcellus-Regular, Marcellus;
        font-size: 34.69px;
        stroke: #e9d8a6;
        stroke-miterlimit: 10;
        stroke-width: .75px;
      }

      .cls-6, .cls-7 {
        fill: #e9d8a6;
      }

      .cls-8 {
        fill: url(#linear-gradient-43);
      }

      .cls-9 {
        fill: url(#linear-gradient-15);
      }

      .cls-10 {
        fill: url(#linear-gradient-58);
      }

      .cls-11 {
        fill: url(#linear-gradient-69);
      }

      .cls-12 {
        fill: url(#linear-gradient-81);
      }

      .cls-13 {
        fill: url(#linear-gradient-18);
      }

      .cls-14 {
        fill: url(#linear-gradient-56);
      }

      .cls-15 {
        fill: url(#linear-gradient-40);
      }

      .cls-16 {
        letter-spacing: 0em;
      }

      .cls-17 {
        fill: url(#linear-gradient-52);
      }

      .cls-18 {
        fill: url(#linear-gradient-28);
      }

      .cls-19 {
        fill: url(#linear-gradient-14);
      }

      .cls-20 {
        fill: url(#linear-gradient-36);
      }

      .cls-21 {
        fill: url(#linear-gradient-78);
      }

      .cls-22 {
        fill: url(#linear-gradient-20);
      }

      .cls-23 {
        fill: url(#linear-gradient-6);
      }

      .cls-24 {
        fill: url(#linear-gradient-53);
      }

      .cls-25 {
        fill: url(#linear-gradient-60);
      }

      .cls-26 {
        fill: url(#linear-gradient-84);
      }

      .cls-27 {
        letter-spacing: 0em;
      }

      .cls-28 {
        fill: url(#linear-gradient-35);
      }

      .cls-29 {
        letter-spacing: -.02em;
      }

      .cls-30 {
        fill: url(#linear-gradient-48);
      }

      .cls-31 {
        fill: url(#linear-gradient-32);
      }

      .cls-32 {
        fill: url(#linear-gradient-11);
      }

      .cls-33 {
        fill: url(#linear-gradient-50);
      }

      .cls-34 {
        fill: url(#linear-gradient-63);
      }

      .cls-35 {
        fill: url(#linear-gradient-67);
      }

      .cls-36 {
        fill: url(#linear-gradient-39);
      }

      .cls-37 {
        fill: url(#linear-gradient-10);
      }

      .cls-38 {
        fill: url(#linear-gradient-59);
      }

      .cls-39 {
        fill: url(#linear-gradient-49);
      }

      .cls-40 {
        fill: url(#linear-gradient-37);
      }

      .cls-41 {
        fill: url(#linear-gradient-82);
      }

      .cls-42 {
        fill: url(#linear-gradient-16);
      }

      .cls-43 {
        fill: url(#linear-gradient-31);
      }

      .cls-44 {
        fill: url(#linear-gradient-85);
      }

      .cls-45 {
        fill: url(#linear-gradient-61);
      }

      .cls-46 {
        fill: url(#linear-gradient-68);
      }

      .cls-47 {
        fill: url(#linear-gradient-62);
      }

      .cls-48 {
        fill: url(#linear-gradient-41);
      }

      .cls-49 {
        fill: url(#linear-gradient-76);
      }

      .cls-50 {
        fill: url(#linear-gradient-21);
      }

      .cls-51 {
        fill: url(#linear-gradient-72);
      }

      .cls-52 {
        fill: url(#linear-gradient-25);
      }

      .cls-53 {
        fill: url(#linear-gradient-5);
      }

      .cls-54 {
        fill: url(#linear-gradient-64);
      }

      .cls-55 {
        fill: url(#linear-gradient-83);
      }

      .cls-56 {
        fill: url(#linear-gradient-54);
      }

      .cls-57 {
        fill: url(#linear-gradient-45);
      }

      .cls-58 {
        fill: url(#linear-gradient-55);
      }

      .cls-59 {
        fill: url(#linear-gradient-34);
      }

      .cls-60 {
        fill: url(#linear-gradient-65);
      }

      .cls-61 {
        fill: url(#linear-gradient-70);
      }

      .cls-62 {
        fill: url(#linear-gradient-79);
      }

      .cls-63 {
        fill: url(#linear-gradient-7);
      }

      .cls-64 {
        fill: url(#linear-gradient-66);
      }

      .cls-65 {
        fill: url(#linear-gradient-24);
      }

      .cls-66 {
        fill: url(#linear-gradient-73);
      }

      .cls-67 {
        fill: url(#linear-gradient-9);
      }

      .cls-68 {
        fill: url(#linear-gradient-22);
      }

      .cls-69 {
        fill: #001219;
      }

      .cls-70 {
        fill: url(#linear-gradient-74);
      }

      .cls-71 {
        fill: url(#linear-gradient-42);
      }

      .cls-72 {
        fill: url(#linear-gradient-3);
      }

      .cls-73 {
        fill: url(#linear-gradient);
      }

      .cls-74 {
        fill: url(#linear-gradient-27);
      }

      .cls-75 {
        fill: url(#linear-gradient-33);
      }

      .cls-76 {
        fill: url(#linear-gradient-38);
      }

      .cls-77 {
        fill: url(#linear-gradient-29);
      }

      .cls-78 {
        fill: url(#linear-gradient-30);
      }

      .cls-79 {
        fill: url(#linear-gradient-23);
      }

      .cls-80 {
        fill: url(#linear-gradient-19);
      }

      .cls-81 {
        fill: url(#linear-gradient-71);
      }

      .cls-82 {
        fill: url(#linear-gradient-4);
      }

      .cls-83 {
        fill: url(#linear-gradient-77);
      }

      .cls-84 {
        letter-spacing: 0em;
      }

      .cls-85 {
        fill: url(#linear-gradient-8);
      }

      .cls-86 {
        fill: url(#linear-gradient-44);
      }

      .cls-87 {
        fill: url(#linear-gradient-57);
      }

      .cls-88 {
        letter-spacing: -.02em;
      }

      .cls-89 {
        fill: url(#linear-gradient-47);
      }

      .cls-90 {
        fill: url(#linear-gradient-46);
      }

      .cls-91 {
        fill: url(#linear-gradient-12);
      }

      .cls-92 {
        fill: url(#linear-gradient-13);
      }

      .cls-93 {
        fill: url(#linear-gradient-26);
      }
    </style>
    <linearGradient id="linear-gradient" x1="72.63" y1="148.62" x2="72.63" y2="49.92" gradientUnits="userSpaceOnUse">
      <stop offset="0" stop-color="#005f73"/>
      <stop offset="1" stop-color="#e9d8a6"/>
    </linearGradient>
    <linearGradient id="linear-gradient-2" x1="130.02" x2="130.02" xlink:href="#linear-gradient"/>
    <linearGradient id="linear-gradient-3" x1="186.98" x2="186.98" xlink:href="#linear-gradient"/>
    <linearGradient id="linear-gradient-4" x1="244.72" x2="244.72" xlink:href="#linear-gradient"/>
    <linearGradient id="linear-gradient-5" x1="300.13" x2="300.13" xlink:href="#linear-gradient"/>
    <linearGradient id="linear-gradient-6" x1="351.38" y1="148.62" x2="351.38" y2="49.92" gradientUnits="userSpaceOnUse">
      <stop offset="0" stop-color="#ae2012"/>
      <stop offset="1" stop-color="#ee9b00"/>
    </linearGradient>
    <linearGradient id="linear-gradient-7" x1="405.24" x2="405.24" xlink:href="#linear-gradient-6"/>
    <linearGradient id="linear-gradient-8" x1="459.17" x2="459.17" xlink:href="#linear-gradient-6"/>
    <linearGradient id="linear-gradient-9" x1="512.54" y1="150.03" x2="512.54" y2="48.51" xlink:href="#linear-gradient-6"/>
    <linearGradient id="linear-gradient-10" x1="565.69" x2="565.69" xlink:href="#linear-gradient-6"/>
    <linearGradient id="linear-gradient-11" x1="736.86" y1="148.62" x2="736.86" xlink:href="#linear-gradient"/>
    <linearGradient id="linear-gradient-12" x1="792.2" x2="792.2" xlink:href="#linear-gradient"/>
    <linearGradient id="linear-gradient-13" x1="915.22" x2="915.22" xlink:href="#linear-gradient-6"/>
    <linearGradient id="linear-gradient-14" x1="981.42" x2="981.42" xlink:href="#linear-gradient-6"/>
    <linearGradient id="linear-gradient-15" x1="72.91" y1="290.08" x2="72.91" y2="239.79" xlink:href="#linear-gradient"/>
    <linearGradient id="linear-gradient-16" x1="112.73" y1="289.64" x2="112.73" y2="253.77" xlink:href="#linear-gradient"/>
    <linearGradient id="linear-gradient-17" x1="162.05" y1="289.03" x2="162.05" y2="253.77" xlink:href="#linear-gradient"/>
    <linearGradient id="linear-gradient-18" x1="200.81" y1="289.03" x2="200.81" y2="240.6" xlink:href="#linear-gradient"/>
    <linearGradient id="linear-gradient-19" x1="228.91" y1="289.03" x2="228.91" y2="253.77" xlink:href="#linear-gradient"/>
    <linearGradient id="linear-gradient-20" x1="269.23" y1="289.64" x2="269.23" y2="253.84" xlink:href="#linear-gradient"/>
    <linearGradient id="linear-gradient-21" x1="334.2" y1="289.03" x2="334.2" y2="239.59" xlink:href="#linear-gradient"/>
    <linearGradient id="linear-gradient-22" x1="376.55" y1="289.64" x2="376.55" y2="253.84" xlink:href="#linear-gradient"/>
    <linearGradient id="linear-gradient-23" x1="408.02" y1="289.71" x2="408.02" y2="242.97" xlink:href="#linear-gradient"/>
    <linearGradient id="linear-gradient-24" x1="441.42" y1="289.03" x2="441.42" y2="238.54" xlink:href="#linear-gradient"/>
    <linearGradient id="linear-gradient-25" x1="479.85" y1="289.64" x2="479.85" y2="253.84" xlink:href="#linear-gradient"/>
    <linearGradient id="linear-gradient-26" x1="514.11" y1="289.03" x2="514.11" y2="253.77" xlink:href="#linear-gradient"/>
    <linearGradient id="linear-gradient-27" x1="543.08" y1="289.03" x2="543.08" y2="238" xlink:href="#linear-gradient"/>
    <linearGradient id="linear-gradient-28" x1="581.48" y1="289.64" x2="581.48" y2="253.77" xlink:href="#linear-gradient"/>
    <linearGradient id="linear-gradient-29" x1="630.8" y1="289.03" x2="630.8" y2="253.77" xlink:href="#linear-gradient"/>
    <linearGradient id="linear-gradient-30" x1="680.14" y1="289.64" x2="680.14" y2="253.84" xlink:href="#linear-gradient"/>
    <linearGradient id="linear-gradient-31" x1="706.85" y1="289.71" x2="706.85" y2="261.71" xlink:href="#linear-gradient"/>
    <linearGradient id="linear-gradient-32" x1="72.91" y1="745.89" x2="72.91" y2="695.61" xlink:href="#linear-gradient-6"/>
    <linearGradient id="linear-gradient-33" x1="112.73" y1="745.45" x2="112.73" y2="709.59" xlink:href="#linear-gradient-6"/>
    <linearGradient id="linear-gradient-34" x1="162.05" y1="744.84" x2="162.05" y2="709.59" xlink:href="#linear-gradient-6"/>
    <linearGradient id="linear-gradient-35" x1="200.81" y1="744.84" x2="200.81" y2="696.42" xlink:href="#linear-gradient-6"/>
    <linearGradient id="linear-gradient-36" x1="228.91" y1="744.84" x2="228.91" y2="709.59" xlink:href="#linear-gradient-6"/>
    <linearGradient id="linear-gradient-37" x1="269.23" y1="745.45" x2="269.23" y2="709.66" xlink:href="#linear-gradient-6"/>
    <linearGradient id="linear-gradient-38" x1="336.3" y1="745.52" x2="336.3" y2="696.42" xlink:href="#linear-gradient-6"/>
    <linearGradient id="linear-gradient-39" x1="380.74" y1="745.45" x2="380.74" y2="709.66" xlink:href="#linear-gradient-6"/>
    <linearGradient id="linear-gradient-40" x1="412.21" y1="745.52" x2="412.21" y2="698.78" xlink:href="#linear-gradient-6"/>
    <linearGradient id="linear-gradient-41" x1="445.61" y1="744.84" x2="445.61" y2="694.36" xlink:href="#linear-gradient-6"/>
    <linearGradient id="linear-gradient-42" x1="484.04" y1="745.45" x2="484.04" y2="709.66" xlink:href="#linear-gradient-6"/>
    <linearGradient id="linear-gradient-43" x1="518.3" y1="744.84" x2="518.3" y2="709.59" xlink:href="#linear-gradient-6"/>
    <linearGradient id="linear-gradient-44" x1="547.27" y1="744.84" x2="547.27" y2="693.82" xlink:href="#linear-gradient-6"/>
    <linearGradient id="linear-gradient-45" x1="585.67" y1="745.45" x2="585.67" y2="709.59" xlink:href="#linear-gradient-6"/>
    <linearGradient id="linear-gradient-46" x1="634.99" y1="744.84" x2="634.99" y2="709.59" xlink:href="#linear-gradient-6"/>
    <linearGradient id="linear-gradient-47" x1="684.32" y1="745.45" x2="684.32" y2="709.66" xlink:href="#linear-gradient-6"/>
    <linearGradient id="linear-gradient-48" x1="711.03" y1="745.52" x2="711.03" y2="717.53" xlink:href="#linear-gradient-6"/>
    <linearGradient id="linear-gradient-49" x1="152.42" y1="971.64" x2="152.42" y2="800.98" xlink:href="#linear-gradient-6"/>
    <linearGradient id="linear-gradient-50" x1="156.52" y1="518.48" x2="156.52" y2="347.82" xlink:href="#linear-gradient"/>
    <linearGradient id="linear-gradient-51" x1="428.12" y1="975.56" x2="428.12" y2="797.06" xlink:href="#linear-gradient-6"/>
    <linearGradient id="linear-gradient-52" x1="407.1" y1="950.35" x2="407.1" y2="856.11" xlink:href="#linear-gradient-6"/>
    <linearGradient id="linear-gradient-53" x1="958.53" y1="975.95" x2="958.53" y2="796.67" xlink:href="#linear-gradient-6"/>
    <linearGradient id="linear-gradient-54" x1="685.45" y1="974.8" x2="685.45" y2="797.82" xlink:href="#linear-gradient-6"/>
    <linearGradient id="linear-gradient-55" x1="721.89" y1="902.96" x2="721.89" y2="873.26" xlink:href="#linear-gradient-6"/>
    <linearGradient id="linear-gradient-56" x1="1227.23" y1="974.96" x2="1227.23" y2="797.66" xlink:href="#linear-gradient-6"/>
    <linearGradient id="linear-gradient-57" x1="1764.64" y1="972.72" x2="1764.64" y2="799.9" xlink:href="#linear-gradient-6"/>
    <linearGradient id="linear-gradient-58" x1="2033.34" y1="976.53" x2="2033.34" y2="796.09" xlink:href="#linear-gradient-6"/>
    <linearGradient id="linear-gradient-59" x1="2302.04" y1="976.19" x2="2302.04" y2="796.43" xlink:href="#linear-gradient-6"/>
    <linearGradient id="linear-gradient-60" x1="2570.74" y1="977" x2="2570.74" y2="795.62" xlink:href="#linear-gradient-6"/>
    <linearGradient id="linear-gradient-61" x1="2839.45" y1="972.96" x2="2839.45" y2="799.66" xlink:href="#linear-gradient-6"/>
    <linearGradient id="linear-gradient-62" x1="2839.45" y1="519.8" x2="2839.45" y2="346.5" xlink:href="#linear-gradient"/>
    <linearGradient id="linear-gradient-63" x1="414.93" y1="500.74" x2="414.93" y2="352.47" xlink:href="#linear-gradient"/>
    <linearGradient id="linear-gradient-64" x1="458.27" y1="430.93" x2="458.27" y2="399.23" xlink:href="#linear-gradient"/>
    <linearGradient id="linear-gradient-65" x1="443.72" y1="479.75" x2="443.72" y2="464.53" xlink:href="#linear-gradient"/>
    <linearGradient id="linear-gradient-66" x1="422.39" y1="513.83" x2="422.39" y2="442.79" xlink:href="#linear-gradient"/>
    <linearGradient id="linear-gradient-67" x1="682.58" y1="471.77" x2="682.58" y2="348.58" xlink:href="#linear-gradient"/>
    <linearGradient id="linear-gradient-68" x1="706.16" y1="517.72" x2="706.16" y2="426.67" xlink:href="#linear-gradient"/>
    <linearGradient id="linear-gradient-69" x1="979.85" y1="521.79" x2="979.85" y2="423.87" xlink:href="#linear-gradient"/>
    <linearGradient id="linear-gradient-70" x1="932.82" y1="478.78" x2="932.82" y2="422.31" xlink:href="#linear-gradient"/>
    <linearGradient id="linear-gradient-71" x1="961.66" y1="447.05" x2="961.66" y2="344.5" xlink:href="#linear-gradient"/>
    <linearGradient id="linear-gradient-72" x1="1202.44" y1="519.49" x2="1202.44" y2="343.58" xlink:href="#linear-gradient"/>
    <linearGradient id="linear-gradient-73" x1="1247.31" y1="522.71" x2="1247.31" y2="359.94" xlink:href="#linear-gradient"/>
    <linearGradient id="linear-gradient-74" x1="1771.11" y1="506.55" x2="1771.11" y2="372.21" xlink:href="#linear-gradient"/>
    <linearGradient id="linear-gradient-75" x1="1757.33" y1="524.15" x2="1757.33" y2="367.13" xlink:href="#linear-gradient"/>
    <linearGradient id="linear-gradient-76" x1="1775.18" y1="466.9" x2="1775.18" y2="342.15" xlink:href="#linear-gradient"/>
    <linearGradient id="linear-gradient-77" x1="2297.66" y1="516.52" x2="2297.66" y2="349.77" xlink:href="#linear-gradient"/>
    <linearGradient id="linear-gradient-78" x1="2602.91" y1="482.01" x2="2602.91" y2="423.39" xlink:href="#linear-gradient"/>
    <linearGradient id="linear-gradient-79" x1="2533.18" y1="511.71" x2="2533.18" y2="403.33" xlink:href="#linear-gradient"/>
    <linearGradient id="linear-gradient-80" x1="2575.46" y1="522.69" x2="2575.46" y2="343.61" xlink:href="#linear-gradient"/>
    <linearGradient id="linear-gradient-81" x1="1512.76" y1="680.88" x2="1512.76" y2="767.99" gradientTransform="translate(0 1202) scale(1 -1)" xlink:href="#linear-gradient"/>
    <linearGradient id="linear-gradient-82" x1="1504.36" y1="683.84" x2="1504.36" y2="817.97" gradientTransform="translate(0 1202) scale(1 -1)" xlink:href="#linear-gradient"/>
    <linearGradient id="linear-gradient-83" x1="1477.47" y1="720.96" x2="1477.47" y2="856.82" gradientTransform="translate(0 1202) scale(1 -1)" xlink:href="#linear-gradient"/>
    <linearGradient id="linear-gradient-84" x1="1495.93" y1="231.24" x2="1495.93" y2="400.14" gradientTransform="translate(0 1202) scale(1 -1)" xlink:href="#linear-gradient-6"/>
    <linearGradient id="linear-gradient-85" x1="2026.27" y1="684.72" x2="2026.27" y2="852.98" gradientTransform="translate(0 1202) scale(1 -1)" xlink:href="#linear-gradient"/>
  </defs>
  <g id="Background">
    <rect class="cls-69" width="3000" height="1200"/>
  </g>
  <g id="Title">
    <path class="cls-73" d="m48.8,49.92h15.51v40.18h16.64v-40.18h15.51v98.7h-15.51v-44.41h-16.64v44.41h-15.51V49.92Z"/>
    <path class="cls-2" d="m122.26,106.6l-18.75-56.68h16.5l10.57,36.24h.28l10.57-36.24h15.09l-18.75,56.68v42.02h-15.51v-42.02Z"/>
    <path class="cls-72" d="m163.57,49.92h23.69c7.71,0,13.49,2.07,17.34,6.2,3.85,4.14,5.78,10.2,5.78,18.19v49.91c0,7.99-1.93,14.05-5.78,18.19-3.86,4.14-9.64,6.2-17.34,6.2h-23.69V49.92Zm23.41,84.6c2.54,0,4.49-.75,5.85-2.26,1.36-1.5,2.04-3.95,2.04-7.33v-51.32c0-3.38-.68-5.83-2.04-7.33-1.36-1.5-3.31-2.26-5.85-2.26h-7.9v70.5h7.9Z"/>
    <path class="cls-82" d="m220.82,49.92h22.98c7.99,0,13.82,1.86,17.48,5.57,3.67,3.71,5.5,9.42,5.5,17.13v6.06c0,10.25-3.38,16.73-10.15,19.46v.28c3.76,1.13,6.42,3.43,7.97,6.91,1.55,3.48,2.33,8.13,2.33,13.96v17.34c0,2.82.09,5.1.28,6.84.19,1.74.66,3.45,1.41,5.15h-15.79c-.56-1.6-.94-3.1-1.13-4.51-.19-1.41-.28-3.95-.28-7.61v-18.05c0-4.51-.73-7.66-2.19-9.45-1.46-1.78-3.97-2.68-7.54-2.68h-5.36v42.3h-15.51V49.92Zm21.15,42.3c3.1,0,5.43-.8,6.98-2.4,1.55-1.6,2.33-4.28,2.33-8.04v-7.61c0-3.57-.63-6.16-1.9-7.75-1.27-1.6-3.27-2.4-5.99-2.4h-7.05v28.2h5.64Z"/>
    <path class="cls-53" d="m289.62,49.92h21.01l16.07,98.7h-15.51l-2.82-19.6v.28h-17.62l-2.82,19.32h-14.38l16.07-98.7Zm16.92,65.99l-6.91-48.79h-.28l-6.77,48.79h13.96Z"/>
    <path class="cls-23" d="m326.14,49.92h15.65l10.15,76.56h.28l10.15-76.56h14.24l-14.95,98.7h-20.59l-14.95-98.7Z"/>
    <path class="cls-63" d="m384.09,49.92h42.3v14.1h-26.79v26.08h21.29v14.1h-21.29v30.31h26.79v14.1h-42.3V49.92Z"/>
    <path class="cls-85" d="m435.27,49.92h22.98c7.99,0,13.82,1.86,17.48,5.57,3.67,3.71,5.5,9.42,5.5,17.13v6.06c0,10.25-3.38,16.73-10.15,19.46v.28c3.76,1.13,6.42,3.43,7.97,6.91,1.55,3.48,2.33,8.13,2.33,13.96v17.34c0,2.82.09,5.1.28,6.84.19,1.74.66,3.45,1.41,5.15h-15.79c-.56-1.6-.94-3.1-1.13-4.51-.19-1.41-.28-3.95-.28-7.61v-18.05c0-4.51-.73-7.66-2.19-9.45-1.46-1.78-3.97-2.68-7.54-2.68h-5.36v42.3h-15.51V49.92Zm21.15,42.3c3.1,0,5.43-.8,6.98-2.4,1.55-1.6,2.33-4.28,2.33-8.04v-7.61c0-3.57-.63-6.16-1.9-7.75-1.27-1.6-3.27-2.4-5.99-2.4h-7.05v28.2h5.64Z"/>
    <path class="cls-67" d="m495.2,143.61c-3.86-4.28-5.78-10.41-5.78-18.4v-5.64h14.66v6.77c0,6.39,2.68,9.59,8.04,9.59,2.63,0,4.63-.78,5.99-2.33,1.36-1.55,2.04-4.06,2.04-7.54,0-4.13-.94-7.78-2.82-10.93-1.88-3.15-5.36-6.93-10.43-11.35-6.39-5.64-10.86-10.74-13.39-15.3-2.54-4.56-3.81-9.7-3.81-15.44,0-7.8,1.97-13.84,5.92-18.12,3.95-4.28,9.68-6.42,17.2-6.42s13.04,2.14,16.85,6.42c3.81,4.28,5.71,10.41,5.71,18.4v4.09h-14.66v-5.08c0-3.38-.66-5.85-1.97-7.4-1.32-1.55-3.24-2.33-5.78-2.33-5.17,0-7.75,3.15-7.75,9.45,0,3.57.96,6.91,2.89,10.01,1.92,3.1,5.43,6.86,10.5,11.28,6.49,5.64,10.95,10.76,13.39,15.37,2.44,4.61,3.67,10.01,3.67,16.21,0,8.09-2,14.29-5.99,18.61-4,4.32-9.8,6.49-17.41,6.49s-13.21-2.14-17.06-6.42Z"/>
    <path class="cls-37" d="m544.54,49.92h42.3v14.1h-26.79v26.08h21.29v14.1h-21.29v30.31h26.79v14.1h-42.3V49.92Z"/>
    <path class="cls-7" d="m641.41,35.82h12.69v141h-12.69V35.82Z"/>
    <path class="cls-32" d="m711.34,49.92h15.51v41.59l19.74-41.59h15.51l-18.47,36.24,18.75,62.46h-16.21l-13.11-43.99-6.2,12.55v31.44h-15.51V49.92Z"/>
    <path class="cls-91" d="m781.7,49.92h21.01l16.07,98.7h-15.51l-2.82-19.6v.28h-17.63l-2.82,19.32h-14.38l16.07-98.7Zm16.92,65.99l-6.91-48.79h-.28l-6.77,48.79h13.96Z"/>
    <path class="cls-7" d="m826.25,49.92h22.98c7.99,0,13.82,1.86,17.48,5.57,3.67,3.71,5.5,9.42,5.5,17.13v6.06c0,10.25-3.38,16.73-10.15,19.46v.28c3.76,1.13,6.42,3.43,7.97,6.91,1.55,3.48,2.33,8.13,2.33,13.96v17.34c0,2.82.09,5.1.28,6.84.19,1.74.66,3.45,1.41,5.15h-15.79c-.56-1.6-.94-3.1-1.13-4.51-.19-1.41-.28-3.95-.28-7.61v-18.05c0-4.51-.73-7.66-2.19-9.45-1.46-1.78-3.97-2.68-7.54-2.68h-5.36v42.3h-15.51V49.92Zm21.15,42.3c3.1,0,5.43-.8,6.98-2.4,1.55-1.6,2.33-4.28,2.33-8.04v-7.61c0-3.57-.63-6.16-1.9-7.75-1.27-1.6-3.27-2.4-5.99-2.4h-7.05v28.2h5.64Z"/>
    <path class="cls-92" d="m883.07,49.92h22.14l9.87,70.64h.28l9.87-70.64h22.14v98.7h-14.66v-74.73h-.28l-11.28,74.73h-12.97l-11.28-74.73h-.28v74.73h-13.54V49.92Z"/>
    <path class="cls-19" d="m970.92,49.92h21.01l16.07,98.7h-15.51l-2.82-19.6v.28h-17.62l-2.82,19.32h-14.38l16.07-98.7Zm16.92,65.99l-6.91-48.79h-.28l-6.77,48.79h13.96Z"/>
  </g>
  <g id="Levels">
    <text class="cls-6" transform="translate(64.33 589.08)"><tspan x="0" y="0">Sparkflame</tspan><tspan x="43.92" y="41.63">1 - 10</tspan></text>
    <text class="cls-6" transform="translate(337.62 589.08)"><tspan x="0" y="0">Glintflame</tspan><tspan x="30.22" y="41.63">11 - 20</tspan></text>
    <text class="cls-6" transform="translate(597 589.08)"><tspan x="0" y="0">Luminflame</tspan><tspan x="36.04" y="41.63">21 - 30</tspan></text>
    <text class="cls-6" transform="translate(876.15 589.08)"><tspan x="0" y="0">Au</tspan><tspan class="cls-88" x="43.23" y="0">r</tspan><tspan x="56.13" y="0">aflame</tspan><tspan x="25.17" y="41.63">31 - 40</tspan></text>
    <text class="cls-6" transform="translate(1130.76 589.08)"><tspan x="0" y="0">Zenithflame</tspan><tspan class="cls-84" x="39.7" y="41.63">4</tspan><tspan x="59.93" y="41.63">1 - 50</tspan></text>
    <text class="cls-6" transform="translate(1396.34 589.08)"><tspan x="0" y="0">Ast</tspan><tspan class="cls-29" x="49.12" y="0">r</tspan><tspan x="62.03" y="0">alisflame</tspan><tspan x="43.55" y="41.63">51 - 60</tspan></text>
    <text class="cls-6" transform="translate(1667.78 589.08)"><tspan x="0" y="0">Celestiflame</tspan><tspan x="40.36" y="41.63">61 - 70</tspan></text>
    <text class="cls-6" transform="translate(1926.16 589.08)"><tspan x="0" y="0">Nebularflame</tspan><tspan x="51.15" y="41.63">71 - 80</tspan></text>
    <text class="cls-6" transform="translate(2197.55 589.08)"><tspan x="0" y="0">Ethereaflame</tspan><tspan x="47.45" y="41.63">81 - 90</tspan></text>
    <text class="cls-6" transform="translate(2444.26 589.08)"><tspan x="0" y="0">Ascendantflame</tspan><tspan x="73.82" y="41.63">91 - 99</tspan></text>
    <text class="cls-6" transform="translate(2741.08 589.08)"><tspan x="0" y="0">Aetherflame</tspan><tspan x="64.22" y="41.63">100</tspan></text>
    <text class="cls-6" transform="translate(56.82 1045.39)"><tspan x="0" y="0">Emberflame</tspan><tspan x="51.86" y="41.63">1 - 10</tspan></text>
    <text class="cls-6" transform="translate(328.8 1045.39)"><tspan x="0" y="0">Ashenflame</tspan><tspan x="39.47" y="41.63">11 - 20</tspan></text>
    <text class="cls-6" transform="translate(604.42 1045.39)"><tspan x="0" y="0">In</tspan><tspan class="cls-16" x="28.9" y="0">f</tspan><tspan class="cls-27" x="39.65" y="0">eriflame</tspan><tspan x="29.06" y="41.63">21 - 30</tspan></text>
    <text class="cls-6" transform="translate(847.27 1045.39)"><tspan x="0" y="0">Daemonflame</tspan><tspan x="54.49" y="41.63">31 - 40</tspan></text>
    <text class="cls-6" transform="translate(1160.43 1045.39)"><tspan x="0" y="0">Hellflare</tspan><tspan class="cls-84" x="10.48" y="41.63">4</tspan><tspan x="30.7" y="41.63">1 - 50</tspan></text>
    <text class="cls-6" transform="translate(1408.41 1045.39)"><tspan x="0" y="0">Abyssflame</tspan><tspan x="31.92" y="41.63">51 - 60</tspan></text>
    <text class="cls-6" transform="translate(1671.36 1045.39)"><tspan x="0" y="0">Doomflame</tspan><tspan x="37.22" y="41.63">61 - 70</tspan></text>
    <text class="cls-6" transform="translate(1954 1045.39)"><tspan x="0" y="0">Pyroclasm</tspan><tspan x="23.75" y="41.63">71 - 80</tspan></text>
    <text class="cls-6" transform="translate(2178.14 1045.39)"><tspan x="0" y="0">Cataclysmflame</tspan><tspan x="67.3" y="41.63">81 - 90</tspan></text>
    <text class="cls-6" transform="translate(2472.2 1045.39)"><tspan x="0" y="0">Eternalflame</tspan><tspan x="46.33" y="41.63">91 - 99</tspan></text>
    <text class="cls-6" transform="translate(2740.47 1045.39)"><tspan x="0" y="0">Netherflame</tspan><tspan x="65.27" y="41.63">100</tspan></text>
    <g>
      <path class="cls-9" d="m92.8,248.03l-.3.14c-1.76-1.62-3.87-2.92-6.33-3.88-2.46-.97-5.17-1.45-8.12-1.45s-5.44.44-7.8,1.33c-2.36.89-4.4,2.18-6.1,3.87-1.7,1.69-3.02,3.76-3.97,6.21-.95,2.45-1.42,5.25-1.42,8.38,0,3.44.45,6.66,1.35,9.64.9,2.98,2.24,5.57,4.02,7.75,1.78,2.18,4,3.9,6.67,5.15,2.67,1.25,5.78,1.87,9.34,1.87,1.28,0,2.57-.14,3.85-.41,1.28-.27,2.52-.67,3.7-1.2,1.18-.53,2.3-1.17,3.34-1.92,1.05-.75,2-1.61,2.85-2.58l.37.24-2.7,6.89c-1.69.65-3.55,1.15-5.59,1.5-2.04.35-4.09.52-6.16.52-4.17,0-7.98-.6-11.43-1.81-3.46-1.2-6.43-2.91-8.92-5.12-2.49-2.21-4.42-4.86-5.81-7.95-1.38-3.1-2.08-6.53-2.08-10.32,0-2.14.28-4.24.83-6.31.55-2.07,1.36-4.04,2.41-5.91s2.36-3.58,3.92-5.15c1.55-1.56,3.33-2.92,5.32-4.07,1.99-1.15,4.19-2.04,6.58-2.68,2.4-.64,4.99-.96,7.78-.96,4.34,0,8.38.66,12.09,1.99l2.3,6.25Z"/>
      <path class="cls-42" d="m98.1,279.07c0-1.78.37-3.32,1.1-4.63.73-1.31,1.71-2.42,2.92-3.34,1.22-.92,2.6-1.67,4.15-2.25,1.55-.57,3.16-1.02,4.83-1.35,1.67-.33,3.31-.55,4.93-.68,1.62-.12,3.11-.2,4.46-.22v-1.72c0-1.49-.19-2.77-.57-3.85-.38-1.08-.92-1.98-1.62-2.69-.7-.71-1.54-1.24-2.52-1.59-.98-.35-2.05-.52-3.23-.52-.81,0-1.61.07-2.4.2-.79.13-1.6.36-2.45.68-.84.32-1.73.74-2.67,1.28-.93.54-1.94,1.23-3.02,2.06l-.34-.2,2.3-4.76c.74-.34,1.47-.61,2.19-.83.72-.21,1.45-.39,2.19-.52.74-.14,1.5-.23,2.28-.29.78-.06,1.59-.08,2.45-.08,2.36,0,4.38.29,6.06.86,1.68.57,3.05,1.36,4.12,2.36,1.07,1,1.85,2.17,2.35,3.51.5,1.34.74,2.77.74,4.31v11.01c0,1.91.03,3.58.08,5.01s.12,2.66.2,3.7c.08,1.04.18,1.9.3,2.6.12.7.25,1.28.39,1.76v.14h-7.46v-.14c.11-.36.2-.77.25-1.22.06-.45.11-.99.15-1.62-.47.41-1.03.82-1.67,1.25-.64.43-1.37.82-2.19,1.17-.82.35-1.73.63-2.74.84-1,.21-2.1.32-3.29.32-3.92,0-6.95-.92-9.08-2.75-2.14-1.83-3.21-4.44-3.21-7.82Zm22.39-9.83c-2.05.02-4.02.14-5.91.35s-3.56.66-5.01,1.33c-1.45.68-2.61,1.64-3.48,2.89-.87,1.25-1.3,2.91-1.3,4.98,0,2.66.66,4.68,1.99,6.08,1.33,1.4,3.16,2.09,5.5,2.09,1.08,0,2.06-.15,2.95-.46.89-.3,1.68-.69,2.36-1.15.69-.46,1.27-.97,1.74-1.52.47-.55.83-1.09,1.08-1.6.04-.86.07-1.81.07-2.85v-10.15Z"/>
      <path class="cls-4" d="m159.09,266.27c0-1.49-.15-2.77-.46-3.85-.3-1.08-.74-1.98-1.32-2.68-.57-.71-1.27-1.24-2.08-1.59-.81-.35-1.71-.52-2.7-.52-.68,0-1.43.14-2.26.41-.83.27-1.69.64-2.58,1.1-.89.46-1.78,1-2.67,1.6-.89.61-1.73,1.26-2.52,1.96-.05.72-.07,1.49-.07,2.31v10.82c0,1.91.02,3.58.07,5.01.04,1.43.11,2.66.2,3.7.09,1.04.19,1.9.3,2.6.11.7.24,1.28.37,1.76v.14h-7.8v-.14c.14-.47.26-1.06.39-1.76.12-.7.23-1.56.3-2.6.08-1.04.15-2.27.2-3.7.06-1.43.08-3.1.08-5.01v-8.17c0-1.91-.03-3.58-.08-5.01-.06-1.43-.12-2.66-.2-3.7-.08-1.04-.18-1.9-.3-2.6-.12-.7-.25-1.28-.39-1.76v-.14h7.8v.14c-.18.52-.32,1.18-.42,1.98-.1.8-.21,1.81-.32,3.02.9-.72,1.87-1.43,2.9-2.13,1.04-.7,2.1-1.32,3.19-1.86,1.09-.54,2.19-.98,3.29-1.32,1.1-.34,2.19-.51,3.28-.51,1.28,0,2.42.17,3.41.51.99.34,1.86.8,2.6,1.38.74.59,1.37,1.27,1.87,2.06.51.79.9,1.63,1.17,2.53.92-.79,1.93-1.57,3.02-2.35,1.09-.78,2.22-1.47,3.38-2.08,1.16-.61,2.34-1.1,3.55-1.49,1.2-.38,2.38-.57,3.53-.57,1.76,0,3.25.3,4.47.91,1.23.61,2.23,1.41,3.01,2.4.78.99,1.34,2.12,1.69,3.39.35,1.27.52,2.56.52,3.87v11.48c0,1.91.02,3.58.07,5.01.04,1.43.11,2.66.2,3.7.09,1.04.2,1.9.32,2.6.12.7.25,1.28.39,1.76v.14h-7.83v-.14c.14-.47.26-1.06.39-1.76.12-.7.23-1.56.32-2.6.09-1.04.16-2.27.2-3.7.04-1.43.07-3.1.07-5.01v-9.56c0-2.97-.6-5.15-1.79-6.55-1.19-1.4-2.79-2.09-4.79-2.09-.7,0-1.47.14-2.31.41-.84.27-1.72.64-2.62,1.11-.9.47-1.8,1.02-2.7,1.64-.9.62-1.75,1.28-2.53,1.98.04.27.07.54.07.81v12.26c0,1.91.03,3.58.08,5.01.06,1.43.12,2.66.2,3.7.08,1.04.18,1.9.3,2.6.12.7.25,1.28.39,1.76v.14h-7.8v-.14c.13-.47.26-1.06.37-1.76.11-.7.21-1.56.3-2.6.09-1.04.16-2.27.2-3.7.04-1.43.07-3.1.07-5.01v-9.56Z"/>
      <path class="cls-13" d="m197.89,267.65c0-1.91-.03-3.58-.08-5.01-.06-1.43-.12-2.66-.2-3.7-.08-1.04-.18-1.9-.3-2.6-.12-.7-.25-1.28-.39-1.76v-.14h7.8v.14c-.14.47-.26,1.06-.37,1.76-.11.7-.21,1.56-.3,2.6-.09,1.04-.16,2.27-.2,3.7-.05,1.43-.07,3.1-.07,5.01v8.17c0,1.91.02,3.58.07,5.01.04,1.43.11,2.66.2,3.7.09,1.04.19,1.9.3,2.6.11.7.24,1.28.37,1.76v.14h-7.8v-.14c.14-.47.26-1.06.39-1.76.12-.7.23-1.56.3-2.6.08-1.04.15-2.27.2-3.7.06-1.43.08-3.1.08-5.01v-8.17Zm-.71-23.44c0-.5.1-.96.29-1.4.19-.44.44-.82.76-1.15.31-.33.69-.58,1.13-.78.44-.19.92-.29,1.44-.29s1,.1,1.44.29c.44.19.82.45,1.15.78.33.33.58.71.78,1.15.19.44.29.91.29,1.4,0,1.04-.35,1.9-1.05,2.6s-1.57,1.05-2.6,1.05c-.52,0-1-.1-1.44-.29-.44-.19-.82-.45-1.13-.78-.32-.33-.57-.71-.76-1.15-.19-.44-.29-.92-.29-1.44Z"/>
      <path class="cls-80" d="m237.6,266.27c0-2.97-.6-5.15-1.79-6.55-1.19-1.4-2.79-2.09-4.8-2.09-.72,0-1.53.15-2.43.46-.9.3-1.82.71-2.77,1.22-.95.51-1.89,1.1-2.84,1.77-.95.68-1.83,1.4-2.67,2.16l-.07,4.42v8.17c0,1.91.02,3.58.07,5.01.04,1.43.11,2.66.2,3.7.09,1.04.19,1.9.3,2.6.11.7.24,1.28.37,1.76v.14h-7.8v-.14c.14-.47.26-1.06.39-1.76.12-.7.23-1.56.3-2.6.08-1.04.15-2.27.2-3.7.06-1.43.08-3.1.08-5.01v-8.17c0-1.91-.03-3.58-.08-5.01-.06-1.43-.12-2.66-.2-3.7-.08-1.04-.18-1.9-.3-2.6-.12-.7-.25-1.28-.39-1.76v-.14h7.8v.14c-.18.56-.32,1.28-.42,2.14-.1.87-.21,2-.32,3.39.92-.77,1.92-1.53,2.99-2.3,1.07-.77,2.18-1.45,3.33-2.04,1.15-.6,2.32-1.08,3.51-1.45,1.19-.37,2.36-.56,3.51-.56,1.76,0,3.25.3,4.47.91,1.23.61,2.23,1.41,3.01,2.4.78.99,1.34,2.12,1.69,3.39.35,1.27.52,2.56.52,3.87v11.48c0,1.91.02,3.58.07,5.01.04,1.43.11,2.66.2,3.7.09,1.04.19,1.9.3,2.6.11.7.24,1.28.37,1.76v.14h-7.8v-.14c.14-.47.26-1.06.39-1.76.12-.7.23-1.56.3-2.6.08-1.04.15-2.27.2-3.7.06-1.43.08-3.1.08-5.01v-9.56Z"/>
      <path class="cls-22" d="m250.81,271.67c0-2.54.47-4.9,1.42-7.07.95-2.17,2.25-4.06,3.9-5.66s3.61-2.85,5.86-3.75c2.25-.9,4.67-1.35,7.26-1.35s4.94.42,7.18,1.27c2.24.84,4.19,2.04,5.86,3.6,1.67,1.55,2.98,3.44,3.93,5.67.96,2.23,1.44,4.73,1.44,7.5,0,2.32-.4,4.55-1.22,6.69-.81,2.14-2,4.03-3.58,5.67-1.58,1.64-3.51,2.96-5.79,3.93-2.29.98-4.91,1.47-7.89,1.47-2.52,0-4.9-.42-7.13-1.25-2.23-.83-4.18-2.03-5.84-3.58-1.67-1.55-2.98-3.44-3.95-5.66-.97-2.22-1.45-4.71-1.45-7.48Zm19.15,15.5c1.6,0,3.07-.31,4.41-.95,1.34-.63,2.49-1.54,3.46-2.74.97-1.19,1.72-2.65,2.26-4.36.54-1.71.81-3.65.81-5.81,0-2.43-.26-4.69-.78-6.77-.52-2.08-1.29-3.88-2.31-5.4-1.02-1.52-2.31-2.71-3.87-3.56-1.55-.85-3.37-1.28-5.44-1.28-1.6,0-3.06.31-4.39.93-1.33.62-2.48,1.51-3.46,2.68-.98,1.17-1.74,2.61-2.28,4.31-.54,1.7-.81,3.63-.81,5.79,0,2.43.26,4.69.79,6.79s1.31,3.91,2.35,5.45c1.04,1.54,2.32,2.75,3.87,3.61,1.54.87,3.34,1.3,5.39,1.3Z"/>
      <path class="cls-50" d="m349.08,289.03v-.14c.04-.11.08-.28.1-.51.02-.22.03-.43.03-.61,0-.7-.1-1.47-.29-2.31-.19-.84-.56-1.9-1.1-3.16l-4.09-9.19c-1.26-.04-2.94-.07-5.03-.07h-11.94c-1.65,0-3.15.02-4.47.07l-3.88,8.92c-.34.83-.7,1.75-1.08,2.74-.38.99-.57,1.99-.57,3.01,0,.29.02.54.07.73.04.19.09.32.13.39v.14h-6.89v-.14c.41-.43.91-1.19,1.52-2.28.61-1.09,1.27-2.46,1.99-4.1l19.35-42.92h2.7l18.34,41.27c.43.97.87,1.91,1.33,2.82s.9,1.73,1.3,2.45c.41.72.77,1.33,1.08,1.82.31.5.53.81.64.95v.14h-9.25Zm-21.88-18.88c1.31,0,2.65,0,4.02-.02,1.37-.01,2.72-.02,4.04-.03,1.32-.01,2.58-.02,3.8-.03,1.22-.01,2.32-.03,3.31-.05l-9.49-21.44-9.32,21.58h3.65Z"/>
      <path class="cls-68" d="m377.98,289.64c-2.5,0-4.84-.39-7.02-1.18-2.18-.79-4.09-1.94-5.71-3.46-1.62-1.52-2.9-3.4-3.83-5.64s-1.4-4.8-1.4-7.68c0-2.54.43-4.9,1.28-7.07.86-2.17,2.04-4.06,3.55-5.66,1.51-1.6,3.27-2.85,5.29-3.75,2.01-.9,4.19-1.35,6.53-1.35s4.47.4,6.45,1.2c1.98.8,3.7,1.96,5.15,3.48s2.6,3.4,3.44,5.64c.84,2.24,1.3,4.79,1.37,7.65-2.54-.04-5.09-.08-7.63-.1-2.54-.02-5.19-.03-7.94-.03-1.96,0-3.87.01-5.72.03-1.86.02-3.53.06-5.01.1.14,2.34.5,4.46,1.1,6.35.6,1.89,1.42,3.51,2.46,4.85,1.05,1.34,2.32,2.37,3.82,3.09,1.5.72,3.19,1.08,5.08,1.08,1.31,0,2.54-.15,3.7-.46,1.16-.3,2.21-.73,3.16-1.27.95-.54,1.79-1.18,2.53-1.91.74-.73,1.37-1.52,1.89-2.38l.41.2-2.5,6.01c-1.22.63-2.67,1.17-4.36,1.6-1.69.44-3.71.66-6.08.66Zm-4.49-20.6c2.25,0,4.51,0,6.77-.02,2.26-.01,4.32-.05,6.16-.12-.2-1.96-.59-3.71-1.15-5.27-.56-1.55-1.28-2.87-2.16-3.95-.88-1.08-1.91-1.91-3.11-2.5-1.19-.58-2.51-.88-3.95-.88-1.31,0-2.5.29-3.6.86-1.09.57-2.04,1.4-2.85,2.48-.81,1.08-1.46,2.4-1.96,3.97-.5,1.56-.79,3.35-.88,5.35,1.01.05,2.08.07,3.21.07h3.51Z"/>
      <path class="cls-79" d="m412.56,287.04c.68,0,1.34-.12,2.01-.37.66-.25,1.3-.59,1.92-1.01.62-.43,1.22-.92,1.79-1.47.57-.55,1.11-1.13,1.6-1.74l.34.17-2.2,5.44c-.27.14-.6.3-1,.49-.39.19-.87.37-1.42.54-.55.17-1.2.31-1.94.44-.74.12-1.62.19-2.63.19-3.02,0-5.36-.82-7.04-2.45-1.68-1.63-2.52-4.18-2.52-7.65v-22.52l-5.67.2v-2.97c.7.05,1.53.08,2.5.1.97.02,2.03.03,3.17.03-.02-1.6-.06-3.01-.12-4.24-.06-1.23-.12-2.3-.2-3.21-.08-.91-.17-1.68-.29-2.31-.11-.63-.23-1.16-.34-1.59v-.14h7.8v.14c-.14.43-.26.96-.37,1.59-.11.63-.21,1.4-.29,2.3-.08.9-.15,1.96-.2,3.19-.06,1.23-.1,2.65-.12,4.27,1.42-.02,2.81-.05,4.17-.08,1.36-.03,2.6-.08,3.71-.14s2.06-.11,2.84-.17c.78-.06,1.29-.11,1.54-.15l-.61,3.44c-1.15-.02-2.35-.06-3.61-.1-1.08-.04-2.32-.08-3.71-.1-1.4-.02-2.84-.04-4.32-.07v23.23c0,1.4.15,2.53.46,3.39.3.87.7,1.55,1.18,2.04s1.04.83,1.65,1.01c.62.18,1.25.27,1.91.27Z"/>
      <path class="cls-65" d="m450.12,266.27c0-2.97-.6-5.15-1.79-6.55-1.19-1.4-2.79-2.09-4.8-2.09-.74,0-1.57.15-2.48.46-.91.3-1.85.71-2.8,1.23-.96.52-1.91,1.12-2.85,1.81-.95.69-1.82,1.41-2.63,2.18v12.53c0,1.91.02,3.58.07,5.01s.11,2.66.2,3.7c.09,1.04.19,1.9.3,2.6.11.7.24,1.28.37,1.76v.14h-7.8v-.14c.14-.47.26-1.06.39-1.76.12-.7.22-1.56.3-2.6.08-1.04.15-2.27.2-3.7.06-1.43.08-3.1.08-5.01v-24.08c0-1.91-.03-3.58-.08-5.02-.06-1.43-.12-2.66-.2-3.7-.08-1.04-.18-1.9-.3-2.6-.12-.7-.25-1.28-.39-1.76v-.14h7.8v.14c-.13.47-.26,1.06-.37,1.76-.11.7-.21,1.56-.3,2.6-.09,1.04-.16,2.27-.2,3.7-.04,1.43-.07,3.1-.07,5.02v8.65c.9-.81,1.9-1.61,2.99-2.4,1.09-.79,2.22-1.5,3.39-2.13,1.17-.63,2.36-1.14,3.58-1.52s2.41-.57,3.58-.57c1.76,0,3.25.3,4.47.91,1.23.61,2.23,1.41,3,2.4.78.99,1.34,2.12,1.69,3.39.35,1.27.52,2.56.52,3.87v11.48c0,1.91.02,3.58.07,5.01s.11,2.66.2,3.7c.09,1.04.19,1.9.3,2.6.11.7.24,1.28.37,1.76v.14h-7.8v-.14c.14-.47.26-1.06.39-1.76.12-.7.22-1.56.3-2.6.08-1.04.15-2.27.2-3.7.06-1.43.08-3.1.08-5.01v-9.56Z"/>
      <path class="cls-52" d="m481.28,289.64c-2.5,0-4.84-.39-7.02-1.18-2.18-.79-4.09-1.94-5.71-3.46-1.62-1.52-2.9-3.4-3.83-5.64-.93-2.24-1.4-4.8-1.4-7.68,0-2.54.43-4.9,1.28-7.07.85-2.17,2.04-4.06,3.55-5.66,1.51-1.6,3.27-2.85,5.28-3.75,2.01-.9,4.19-1.35,6.53-1.35s4.47.4,6.45,1.2c1.98.8,3.7,1.96,5.15,3.48s2.6,3.4,3.44,5.64c.84,2.24,1.3,4.79,1.37,7.65-2.54-.04-5.09-.08-7.63-.1-2.54-.02-5.19-.03-7.94-.03-1.96,0-3.87.01-5.72.03-1.86.02-3.53.06-5.01.1.13,2.34.5,4.46,1.1,6.35s1.42,3.51,2.47,4.85c1.05,1.34,2.32,2.37,3.82,3.09,1.5.72,3.19,1.08,5.08,1.08,1.3,0,2.54-.15,3.7-.46,1.16-.3,2.21-.73,3.16-1.27.95-.54,1.79-1.18,2.53-1.91s1.37-1.52,1.89-2.38l.41.2-2.5,6.01c-1.22.63-2.67,1.17-4.36,1.6s-3.71.66-6.08.66Zm-4.49-20.6c2.25,0,4.51,0,6.77-.02,2.26-.01,4.32-.05,6.16-.12-.2-1.96-.59-3.71-1.15-5.27s-1.28-2.87-2.16-3.95-1.91-1.91-3.11-2.5c-1.19-.58-2.51-.88-3.95-.88-1.31,0-2.5.29-3.6.86-1.09.57-2.04,1.4-2.85,2.48s-1.46,2.4-1.96,3.97c-.5,1.56-.79,3.35-.88,5.35,1.01.05,2.08.07,3.21.07h3.51Z"/>
      <path class="cls-93" d="m503.64,267.65c0-1.91-.03-3.58-.08-5.01-.06-1.43-.12-2.66-.2-3.7s-.18-1.9-.3-2.6c-.12-.7-.25-1.28-.39-1.76v-.14h7.8v.14c-.18.52-.33,1.15-.46,1.89-.12.74-.22,1.7-.29,2.87.83-.7,1.7-1.38,2.6-2.06s1.82-1.27,2.77-1.79c.95-.52,1.91-.93,2.89-1.25.98-.31,1.96-.47,2.96-.47.61,0,1.14.03,1.59.08.45.06.86.14,1.22.24.36.1.69.21.98.34.29.12.57.24.84.35l-1.66,6.45-.57-.14c-.27-.99-.78-1.78-1.52-2.38-.74-.6-1.76-.9-3.04-.9-.7,0-1.43.12-2.2.37-.77.25-1.54.59-2.33,1.03-.79.44-1.58.95-2.36,1.52-.79.57-1.55,1.18-2.3,1.81-.04.65-.07,1.36-.07,2.13v11.14c0,1.91.02,3.58.07,5.01s.11,2.66.2,3.7c.09,1.04.19,1.9.3,2.6.11.7.24,1.28.37,1.76v.14h-7.8v-.14c.14-.47.26-1.06.39-1.76.12-.7.22-1.56.3-2.6.08-1.04.15-2.27.2-3.7.06-1.43.08-3.1.08-5.01v-8.17Z"/>
      <path class="cls-74" d="m553.08,251.75c0-2.23-.03-4.06-.08-5.5-.06-1.44-.14-2.65-.25-3.61-.9-.56-1.95-1.04-3.16-1.44-1.21-.39-2.57-.59-4.1-.59-.56,0-1.28.09-2.14.27-.87.18-1.71.58-2.53,1.2-.82.62-1.53,1.54-2.13,2.77-.6,1.23-.89,2.89-.89,4.98v4.63c1.37-.02,2.66-.05,3.87-.08,1.2-.03,2.28-.07,3.23-.12.95-.04,1.74-.1,2.4-.15.65-.06,1.11-.12,1.38-.19l-.61,3.44c-.9-.02-1.89-.06-2.97-.1-.95-.04-2.04-.08-3.28-.1-1.24-.02-2.58-.04-4.02-.07v18.74c0,1.91.03,3.58.08,5.01.06,1.43.12,2.66.2,3.7.08,1.04.18,1.9.3,2.6.12.7.25,1.28.39,1.76v.14h-7.8v-.14c.13-.47.26-1.06.37-1.76.11-.7.21-1.56.3-2.6.09-1.04.16-2.27.2-3.7.04-1.43.07-3.1.07-5.01v-18.74l-5.67.2v-2.97c.56.05,1.36.08,2.4.1,1.04.02,2.13.03,3.28.03v-3.88c0-1.58.2-2.98.59-4.22.39-1.24.93-2.32,1.62-3.24.69-.92,1.49-1.71,2.4-2.36.91-.65,1.87-1.18,2.89-1.59,1.01-.41,2.05-.7,3.11-.88,1.06-.18,2.09-.27,3.11-.27,1.08,0,2.04.05,2.89.15.84.1,1.64.22,2.4.35s1.49.25,2.2.35c.71.1,1.47.15,2.28.15l4.56-.47v.14c-.13.47-.26,1.06-.39,1.76-.12.7-.23,1.56-.32,2.6-.09,1.04-.16,2.27-.2,3.7-.05,1.43-.07,3.1-.07,5.02v24.08c0,1.91.02,3.58.07,5.01.04,1.43.11,2.66.2,3.7.09,1.04.2,1.9.32,2.6.12.7.25,1.28.39,1.76v.14h-7.83v-.14c.13-.47.26-1.06.39-1.76.12-.7.23-1.56.32-2.6.09-1.04.16-2.27.2-3.7s.07-3.1.07-5.01v-24.08Z"/>
      <path class="cls-18" d="m566.86,279.07c0-1.78.37-3.32,1.1-4.63.73-1.31,1.71-2.42,2.92-3.34,1.22-.92,2.6-1.67,4.15-2.25,1.55-.57,3.16-1.02,4.83-1.35,1.67-.33,3.31-.55,4.93-.68,1.62-.12,3.11-.2,4.46-.22v-1.72c0-1.49-.19-2.77-.57-3.85-.38-1.08-.92-1.98-1.62-2.69-.7-.71-1.54-1.24-2.52-1.59-.98-.35-2.05-.52-3.22-.52-.81,0-1.61.07-2.4.2-.79.13-1.6.36-2.45.68-.84.32-1.73.74-2.67,1.28-.93.54-1.94,1.23-3.02,2.06l-.34-.2,2.3-4.76c.74-.34,1.47-.61,2.2-.83.72-.21,1.45-.39,2.19-.52s1.5-.23,2.28-.29c.78-.06,1.59-.08,2.45-.08,2.36,0,4.38.29,6.06.86,1.68.57,3.05,1.36,4.12,2.36,1.07,1,1.85,2.17,2.35,3.51.49,1.34.74,2.77.74,4.31v11.01c0,1.91.03,3.58.08,5.01.06,1.43.12,2.66.2,3.7.08,1.04.18,1.9.3,2.6.12.7.25,1.28.39,1.76v.14h-7.46v-.14c.11-.36.2-.77.25-1.22s.11-.99.15-1.62c-.47.41-1.03.82-1.67,1.25-.64.43-1.37.82-2.2,1.17-.82.35-1.73.63-2.73.84-1,.21-2.1.32-3.29.32-3.92,0-6.95-.92-9.08-2.75-2.14-1.83-3.21-4.44-3.21-7.82Zm22.39-9.83c-2.05.02-4.02.14-5.91.35-1.89.21-3.56.66-5.01,1.33-1.45.68-2.61,1.64-3.48,2.89-.87,1.25-1.3,2.91-1.3,4.98,0,2.66.66,4.68,1.99,6.08,1.33,1.4,3.16,2.09,5.5,2.09,1.08,0,2.07-.15,2.96-.46.89-.3,1.68-.69,2.36-1.15.69-.46,1.27-.97,1.74-1.52.47-.55.83-1.09,1.08-1.6.04-.86.07-1.81.07-2.85v-10.15Z"/>
      <path class="cls-77" d="m627.84,266.27c0-1.49-.15-2.77-.46-3.85s-.74-1.98-1.32-2.68c-.57-.71-1.27-1.24-2.08-1.59-.81-.35-1.71-.52-2.7-.52-.68,0-1.43.14-2.26.41-.83.27-1.69.64-2.58,1.1-.89.46-1.78,1-2.67,1.6-.89.61-1.73,1.26-2.52,1.96-.04.72-.07,1.49-.07,2.31v10.82c0,1.91.02,3.58.07,5.01s.11,2.66.2,3.7c.09,1.04.19,1.9.3,2.6.11.7.24,1.28.37,1.76v.14h-7.8v-.14c.14-.47.26-1.06.39-1.76.12-.7.22-1.56.3-2.6.08-1.04.15-2.27.2-3.7.06-1.43.08-3.1.08-5.01v-8.17c0-1.91-.03-3.58-.08-5.01-.06-1.43-.12-2.66-.2-3.7s-.18-1.9-.3-2.6c-.12-.7-.25-1.28-.39-1.76v-.14h7.8v.14c-.18.52-.32,1.18-.42,1.98-.1.8-.21,1.81-.32,3.02.9-.72,1.87-1.43,2.9-2.13,1.04-.7,2.1-1.32,3.19-1.86,1.09-.54,2.19-.98,3.29-1.32,1.1-.34,2.2-.51,3.28-.51,1.28,0,2.42.17,3.41.51.99.34,1.86.8,2.6,1.38.74.59,1.37,1.27,1.88,2.06.51.79.89,1.63,1.17,2.53.92-.79,1.93-1.57,3.02-2.35,1.09-.78,2.22-1.47,3.38-2.08s2.34-1.1,3.55-1.49,2.38-.57,3.53-.57c1.76,0,3.25.3,4.47.91,1.23.61,2.23,1.41,3,2.4.78.99,1.34,2.12,1.69,3.39.35,1.27.52,2.56.52,3.87v11.48c0,1.91.02,3.58.07,5.01.04,1.43.11,2.66.2,3.7.09,1.04.2,1.9.32,2.6.12.7.25,1.28.39,1.76v.14h-7.83v-.14c.13-.47.26-1.06.39-1.76.12-.7.23-1.56.32-2.6.09-1.04.16-2.27.2-3.7s.07-3.1.07-5.01v-9.56c0-2.97-.6-5.15-1.79-6.55-1.19-1.4-2.79-2.09-4.8-2.09-.7,0-1.47.14-2.31.41-.84.27-1.72.64-2.62,1.11-.9.47-1.8,1.02-2.7,1.64-.9.62-1.74,1.28-2.53,1.98.04.27.07.54.07.81v12.26c0,1.91.03,3.58.08,5.01.06,1.43.12,2.66.2,3.7.08,1.04.18,1.9.3,2.6.12.7.25,1.28.39,1.76v.14h-7.8v-.14c.13-.47.26-1.06.37-1.76.11-.7.21-1.56.3-2.6.09-1.04.16-2.27.2-3.7.04-1.43.07-3.1.07-5.01v-9.56Z"/>
      <path class="cls-78" d="m681.57,289.64c-2.5,0-4.84-.39-7.02-1.18-2.18-.79-4.09-1.94-5.71-3.46-1.62-1.52-2.9-3.4-3.83-5.64-.93-2.24-1.4-4.8-1.4-7.68,0-2.54.43-4.9,1.28-7.07.85-2.17,2.04-4.06,3.55-5.66,1.51-1.6,3.27-2.85,5.28-3.75,2.01-.9,4.19-1.35,6.53-1.35s4.47.4,6.45,1.2c1.98.8,3.7,1.96,5.15,3.48s2.6,3.4,3.44,5.64c.84,2.24,1.3,4.79,1.37,7.65-2.54-.04-5.09-.08-7.63-.1-2.54-.02-5.19-.03-7.94-.03-1.96,0-3.87.01-5.72.03-1.86.02-3.53.06-5.01.1.13,2.34.5,4.46,1.1,6.35s1.42,3.51,2.47,4.85c1.05,1.34,2.32,2.37,3.82,3.09,1.5.72,3.19,1.08,5.08,1.08,1.3,0,2.54-.15,3.7-.46,1.16-.3,2.21-.73,3.16-1.27.95-.54,1.79-1.18,2.53-1.91s1.37-1.52,1.89-2.38l.41.2-2.5,6.01c-1.22.63-2.67,1.17-4.36,1.6s-3.71.66-6.08.66Zm-4.49-20.6c2.25,0,4.51,0,6.77-.02,2.26-.01,4.32-.05,6.16-.12-.2-1.96-.59-3.71-1.15-5.27s-1.28-2.87-2.16-3.95-1.91-1.91-3.11-2.5c-1.19-.58-2.51-.88-3.95-.88-1.31,0-2.5.29-3.6.86-1.09.57-2.04,1.4-2.85,2.48s-1.46,2.4-1.96,3.97c-.5,1.56-.79,3.35-.88,5.35,1.01.05,2.08.07,3.21.07h3.51Z"/>
      <path class="cls-43" d="m703.22,265.32c0-.5.1-.97.29-1.42.19-.45.44-.83.76-1.15.32-.31.69-.57,1.13-.76.44-.19.92-.29,1.43-.29s1,.1,1.44.29c.44.19.82.44,1.15.76.33.32.58.7.78,1.15.19.45.29.92.29,1.42,0,1.04-.35,1.9-1.05,2.6s-1.57,1.05-2.6,1.05c-.52,0-1-.1-1.43-.29-.44-.19-.82-.45-1.13-.78s-.57-.71-.76-1.15c-.19-.44-.29-.92-.29-1.44Zm0,20.73c0-.5.1-.96.29-1.4.19-.44.44-.82.76-1.15.32-.33.69-.58,1.13-.78.44-.19.92-.29,1.43-.29s1,.1,1.44.29c.44.19.82.45,1.15.78.33.33.58.71.78,1.15.19.44.29.91.29,1.4,0,1.04-.35,1.9-1.05,2.6-.7.7-1.57,1.05-2.6,1.05-.52,0-1-.1-1.43-.29-.44-.19-.82-.45-1.13-.78-.32-.33-.57-.71-.76-1.15-.19-.44-.29-.92-.29-1.44Z"/>
    </g>
    <g>
      <path class="cls-31" d="m92.8,703.85l-.3.13c-1.76-1.62-3.87-2.92-6.33-3.88-2.46-.97-5.17-1.45-8.12-1.45s-5.44.45-7.8,1.33c-2.36.89-4.4,2.18-6.1,3.87-1.7,1.69-3.02,3.76-3.97,6.21-.95,2.45-1.42,5.25-1.42,8.38,0,3.44.45,6.66,1.35,9.64.9,2.98,2.24,5.57,4.02,7.75,1.78,2.18,4,3.9,6.67,5.15,2.67,1.25,5.78,1.88,9.34,1.88,1.28,0,2.57-.14,3.85-.41,1.28-.27,2.52-.67,3.7-1.2,1.18-.53,2.3-1.17,3.34-1.92,1.05-.75,2-1.62,2.85-2.58l.37.24-2.7,6.89c-1.69.65-3.55,1.15-5.59,1.5-2.04.35-4.09.52-6.16.52-4.17,0-7.98-.6-11.43-1.81-3.46-1.2-6.43-2.91-8.92-5.12-2.49-2.21-4.42-4.86-5.81-7.95-1.38-3.09-2.08-6.53-2.08-10.32,0-2.14.28-4.24.83-6.31.55-2.07,1.36-4.04,2.41-5.91,1.06-1.87,2.36-3.58,3.92-5.15s3.33-2.92,5.32-4.07c1.99-1.15,4.19-2.04,6.58-2.68,2.4-.64,4.99-.96,7.78-.96,4.34,0,8.38.67,12.09,1.99l2.3,6.25Z"/>
      <path class="cls-75" d="m98.1,734.88c0-1.78.37-3.32,1.1-4.63.73-1.3,1.71-2.42,2.92-3.34s2.6-1.67,4.15-2.25c1.55-.57,3.16-1.02,4.83-1.35,1.67-.33,3.31-.55,4.93-.68,1.62-.12,3.11-.2,4.46-.22v-1.72c0-1.49-.19-2.77-.57-3.85-.38-1.08-.92-1.98-1.62-2.68s-1.54-1.24-2.52-1.59-2.05-.52-3.23-.52c-.81,0-1.61.07-2.4.2-.79.13-1.6.36-2.45.68s-1.73.74-2.67,1.28c-.93.54-1.94,1.23-3.02,2.06l-.34-.2,2.3-4.76c.74-.34,1.47-.61,2.19-.83.72-.21,1.45-.39,2.19-.52.74-.14,1.5-.23,2.28-.29.78-.06,1.59-.08,2.45-.08,2.36,0,4.38.29,6.06.86,1.68.57,3.05,1.36,4.12,2.36s1.85,2.17,2.35,3.51c.5,1.34.74,2.78.74,4.31v11.01c0,1.91.03,3.58.08,5.01s.12,2.66.2,3.7c.08,1.04.18,1.9.3,2.6.12.7.25,1.28.39,1.76v.14h-7.46v-.14c.11-.36.2-.76.25-1.21.06-.45.11-.99.15-1.62-.47.41-1.03.82-1.67,1.25-.64.43-1.37.82-2.19,1.17-.82.35-1.73.63-2.74.84-1,.21-2.1.32-3.29.32-3.92,0-6.95-.92-9.08-2.75-2.14-1.83-3.21-4.44-3.21-7.82Zm22.39-9.83c-2.05.02-4.02.14-5.91.35s-3.56.66-5.01,1.33c-1.45.68-2.61,1.64-3.48,2.89-.87,1.25-1.3,2.91-1.3,4.98,0,2.66.66,4.68,1.99,6.08,1.33,1.4,3.16,2.09,5.5,2.09,1.08,0,2.06-.15,2.95-.46.89-.3,1.68-.69,2.36-1.15.69-.46,1.27-.97,1.74-1.52.47-.55.83-1.09,1.08-1.6.04-.86.07-1.81.07-2.85v-10.15Z"/>
      <path class="cls-59" d="m159.09,722.08c0-1.49-.15-2.77-.46-3.85-.3-1.08-.74-1.98-1.32-2.68-.57-.71-1.27-1.24-2.08-1.59-.81-.35-1.71-.52-2.7-.52-.68,0-1.43.14-2.26.41-.83.27-1.69.64-2.58,1.1-.89.46-1.78,1-2.67,1.6-.89.61-1.73,1.26-2.52,1.96-.05.72-.07,1.49-.07,2.31v10.82c0,1.91.02,3.58.07,5.01.04,1.43.11,2.66.2,3.7.09,1.04.19,1.9.3,2.6.11.7.24,1.28.37,1.76v.14h-7.8v-.14c.14-.47.26-1.06.39-1.76.12-.7.23-1.56.3-2.6.08-1.04.15-2.27.2-3.7.06-1.43.08-3.1.08-5.01v-8.17c0-1.91-.03-3.58-.08-5.01-.06-1.43-.12-2.66-.2-3.7-.08-1.04-.18-1.9-.3-2.6-.12-.7-.25-1.28-.39-1.76v-.13h7.8v.13c-.18.52-.32,1.18-.42,1.98-.1.8-.21,1.81-.32,3.02.9-.72,1.87-1.43,2.9-2.13,1.04-.7,2.1-1.32,3.19-1.86,1.09-.54,2.19-.98,3.29-1.32,1.1-.34,2.19-.51,3.28-.51,1.28,0,2.42.17,3.41.51s1.86.8,2.6,1.38c.74.59,1.37,1.27,1.87,2.06.51.79.9,1.63,1.17,2.53.92-.79,1.93-1.57,3.02-2.35,1.09-.78,2.22-1.47,3.38-2.08,1.16-.61,2.34-1.1,3.55-1.49,1.2-.38,2.38-.57,3.53-.57,1.76,0,3.25.3,4.47.91,1.23.61,2.23,1.41,3.01,2.4.78.99,1.34,2.12,1.69,3.39.35,1.27.52,2.56.52,3.87v11.48c0,1.91.02,3.58.07,5.01.04,1.43.11,2.66.2,3.7.09,1.04.2,1.9.32,2.6.12.7.25,1.28.39,1.76v.14h-7.83v-.14c.14-.47.26-1.06.39-1.76.12-.7.23-1.56.32-2.6.09-1.04.16-2.27.2-3.7.04-1.43.07-3.1.07-5.01v-9.56c0-2.97-.6-5.16-1.79-6.55-1.19-1.4-2.79-2.09-4.79-2.09-.7,0-1.47.14-2.31.41-.84.27-1.72.64-2.62,1.12-.9.47-1.8,1.02-2.7,1.64-.9.62-1.75,1.28-2.53,1.98.04.27.07.54.07.81v12.26c0,1.91.03,3.58.08,5.01.06,1.43.12,2.66.2,3.7.08,1.04.18,1.9.3,2.6.12.7.25,1.28.39,1.76v.14h-7.8v-.14c.13-.47.26-1.06.37-1.76.11-.7.21-1.56.3-2.6.09-1.04.16-2.27.2-3.7.04-1.43.07-3.1.07-5.01v-9.56Z"/>
      <path class="cls-28" d="m197.89,723.47c0-1.91-.03-3.58-.08-5.01-.06-1.43-.12-2.66-.2-3.7-.08-1.04-.18-1.9-.3-2.6-.12-.7-.25-1.28-.39-1.76v-.13h7.8v.13c-.14.47-.26,1.06-.37,1.76-.11.7-.21,1.57-.3,2.6-.09,1.04-.16,2.27-.2,3.7-.05,1.43-.07,3.1-.07,5.01v8.17c0,1.91.02,3.58.07,5.01.04,1.43.11,2.66.2,3.7.09,1.04.19,1.9.3,2.6.11.7.24,1.28.37,1.76v.14h-7.8v-.14c.14-.47.26-1.06.39-1.76.12-.7.23-1.56.3-2.6.08-1.04.15-2.27.2-3.7.06-1.43.08-3.1.08-5.01v-8.17Zm-.71-23.44c0-.5.1-.96.29-1.4.19-.44.44-.82.76-1.15.31-.33.69-.58,1.13-.78.44-.19.92-.29,1.44-.29s1,.1,1.44.29c.44.19.82.45,1.15.78.33.33.58.71.78,1.15.19.44.29.91.29,1.4,0,1.04-.35,1.9-1.05,2.6s-1.57,1.05-2.6,1.05c-.52,0-1-.1-1.44-.29s-.82-.45-1.13-.78c-.32-.33-.57-.71-.76-1.15-.19-.44-.29-.92-.29-1.44Z"/>
      <path class="cls-20" d="m237.6,722.08c0-2.97-.6-5.16-1.79-6.55-1.19-1.4-2.79-2.09-4.8-2.09-.72,0-1.53.15-2.43.46-.9.3-1.82.71-2.77,1.22-.95.51-1.89,1.1-2.84,1.77-.95.67-1.83,1.4-2.67,2.16l-.07,4.42v8.17c0,1.91.02,3.58.07,5.01.04,1.43.11,2.66.2,3.7.09,1.04.19,1.9.3,2.6.11.7.24,1.28.37,1.76v.14h-7.8v-.14c.14-.47.26-1.06.39-1.76.12-.7.23-1.56.3-2.6.08-1.04.15-2.27.2-3.7.06-1.43.08-3.1.08-5.01v-8.17c0-1.91-.03-3.58-.08-5.01-.06-1.43-.12-2.66-.2-3.7-.08-1.04-.18-1.9-.3-2.6-.12-.7-.25-1.28-.39-1.76v-.13h7.8v.13c-.18.56-.32,1.28-.42,2.14-.1.87-.21,2-.32,3.39.92-.76,1.92-1.53,2.99-2.3,1.07-.77,2.18-1.45,3.33-2.04,1.15-.6,2.32-1.08,3.51-1.45,1.19-.37,2.36-.56,3.51-.56,1.76,0,3.25.3,4.47.91s2.23,1.41,3.01,2.4c.78.99,1.34,2.12,1.69,3.39.35,1.27.52,2.56.52,3.87v11.48c0,1.91.02,3.58.07,5.01.04,1.43.11,2.66.2,3.7.09,1.04.19,1.9.3,2.6.11.7.24,1.28.37,1.76v.14h-7.8v-.14c.14-.47.26-1.06.39-1.76.12-.7.23-1.56.3-2.6.08-1.04.15-2.27.2-3.7.06-1.43.08-3.1.08-5.01v-9.56Z"/>
      <path class="cls-40" d="m250.81,727.49c0-2.54.47-4.9,1.42-7.08.95-2.17,2.25-4.06,3.9-5.66s3.61-2.85,5.86-3.75c2.25-.9,4.67-1.35,7.26-1.35s4.94.42,7.18,1.27c2.24.84,4.19,2.04,5.86,3.6,1.67,1.55,2.98,3.44,3.93,5.67.96,2.23,1.44,4.73,1.44,7.5,0,2.32-.4,4.55-1.22,6.69s-2,4.03-3.58,5.67c-1.58,1.64-3.51,2.96-5.79,3.93-2.29.98-4.91,1.47-7.89,1.47-2.52,0-4.9-.42-7.13-1.25-2.23-.83-4.18-2.03-5.84-3.58-1.67-1.55-2.98-3.44-3.95-5.66-.97-2.22-1.45-4.71-1.45-7.48Zm19.15,15.5c1.6,0,3.07-.32,4.41-.95,1.34-.63,2.49-1.54,3.46-2.74.97-1.19,1.72-2.65,2.26-4.36.54-1.71.81-3.65.81-5.81,0-2.43-.26-4.69-.78-6.77-.52-2.08-1.29-3.88-2.31-5.4s-2.31-2.71-3.87-3.56c-1.55-.86-3.37-1.28-5.44-1.28-1.6,0-3.06.31-4.39.93-1.33.62-2.48,1.51-3.46,2.68-.98,1.17-1.74,2.61-2.28,4.31s-.81,3.63-.81,5.79c0,2.43.26,4.69.79,6.79s1.31,3.91,2.35,5.45c1.04,1.54,2.32,2.75,3.87,3.61,1.54.87,3.34,1.3,5.39,1.3Z"/>
      <path class="cls-76" d="m317.47,696.42l34.78,37.01v-23.77c0-1.91-.02-3.58-.07-5.02-.05-1.43-.11-2.67-.2-3.71-.09-1.05-.2-1.92-.32-2.62-.12-.7-.25-1.28-.39-1.76v-.14h6.01v.14c-.13.47-.26,1.06-.37,1.76s-.21,1.57-.3,2.62c-.09,1.05-.16,2.29-.2,3.71-.05,1.43-.07,3.1-.07,5.02v35.86h-1.18l-34.78-36.98v23.1c0,1.91.02,3.58.07,5.01.04,1.43.11,2.66.2,3.7.09,1.04.19,1.9.3,2.6.11.7.24,1.28.37,1.76v.14h-6.01v-.14c.13-.47.26-1.06.39-1.76.12-.7.23-1.56.32-2.6.09-1.04.16-2.27.2-3.7.04-1.43.07-3.1.07-5.01v-21.98c0-1.91-.02-3.58-.07-5.02-.05-1.43-.11-2.67-.2-3.71-.09-1.05-.2-1.92-.32-2.62-.12-.7-.25-1.28-.39-1.76v-.14h2.16Z"/>
      <path class="cls-36" d="m382.17,745.45c-2.5,0-4.84-.39-7.02-1.18-2.18-.79-4.09-1.94-5.71-3.46-1.62-1.52-2.9-3.4-3.83-5.64s-1.4-4.8-1.4-7.68c0-2.54.43-4.9,1.28-7.08.86-2.17,2.04-4.06,3.55-5.66,1.51-1.6,3.27-2.85,5.29-3.75,2.01-.9,4.19-1.35,6.53-1.35s4.47.4,6.45,1.2c1.98.8,3.7,1.96,5.15,3.48s2.6,3.4,3.44,5.64,1.3,4.79,1.37,7.65c-2.54-.04-5.09-.08-7.63-.1-2.54-.02-5.19-.03-7.94-.03-1.96,0-3.87.01-5.72.03-1.86.02-3.53.06-5.01.1.14,2.34.5,4.46,1.1,6.35.6,1.89,1.42,3.51,2.46,4.85,1.05,1.34,2.32,2.37,3.82,3.09,1.5.72,3.19,1.08,5.08,1.08,1.31,0,2.54-.15,3.7-.46,1.16-.3,2.21-.73,3.16-1.27.95-.54,1.79-1.18,2.53-1.91.74-.73,1.37-1.53,1.89-2.38l.41.2-2.5,6.01c-1.22.63-2.67,1.17-4.36,1.6-1.69.44-3.71.66-6.08.66Zm-4.49-20.6c2.25,0,4.51,0,6.77-.02,2.26-.01,4.32-.05,6.16-.12-.2-1.96-.59-3.71-1.15-5.27-.56-1.55-1.28-2.87-2.16-3.95-.88-1.08-1.91-1.91-3.11-2.5-1.19-.58-2.51-.88-3.95-.88-1.31,0-2.5.29-3.6.86-1.09.57-2.04,1.4-2.85,2.48-.81,1.08-1.46,2.4-1.96,3.97-.5,1.57-.79,3.35-.88,5.35,1.01.05,2.08.07,3.21.07h3.51Z"/>
      <path class="cls-15" d="m416.75,742.85c.68,0,1.34-.12,2.01-.37.66-.25,1.3-.58,1.92-1.01.62-.43,1.22-.92,1.79-1.47.57-.55,1.11-1.13,1.6-1.74l.34.17-2.2,5.44c-.27.13-.6.3-1,.49-.39.19-.87.37-1.42.54-.55.17-1.2.31-1.94.44-.74.12-1.62.19-2.63.19-3.02,0-5.36-.82-7.04-2.45-1.68-1.63-2.52-4.18-2.52-7.65v-22.52l-5.67.2v-2.97c.7.04,1.53.08,2.5.1.97.02,2.03.03,3.17.03-.02-1.6-.06-3.01-.12-4.24-.06-1.23-.12-2.3-.2-3.21-.08-.91-.17-1.68-.29-2.31-.11-.63-.23-1.16-.34-1.59v-.13h7.8v.13c-.14.43-.26.96-.37,1.59-.11.63-.21,1.4-.29,2.3s-.15,1.96-.2,3.19c-.06,1.23-.1,2.65-.12,4.27,1.42-.02,2.81-.05,4.17-.08,1.36-.03,2.6-.08,3.71-.14,1.11-.06,2.06-.11,2.84-.17.78-.06,1.29-.11,1.54-.15l-.61,3.44c-1.15-.02-2.35-.06-3.61-.1-1.08-.04-2.32-.08-3.71-.1-1.4-.02-2.84-.04-4.32-.07v23.23c0,1.4.15,2.53.46,3.39.3.87.7,1.55,1.18,2.04s1.04.83,1.65,1.01c.62.18,1.25.27,1.91.27Z"/>
      <path class="cls-48" d="m454.3,722.08c0-2.97-.6-5.16-1.79-6.55-1.19-1.4-2.79-2.09-4.8-2.09-.74,0-1.57.15-2.48.46-.91.3-1.85.71-2.8,1.23-.96.52-1.91,1.12-2.85,1.81-.95.69-1.82,1.41-2.63,2.18v12.53c0,1.91.02,3.58.07,5.01s.11,2.66.2,3.7c.09,1.04.19,1.9.3,2.6.11.7.24,1.28.37,1.76v.14h-7.8v-.14c.14-.47.26-1.06.39-1.76.12-.7.22-1.56.3-2.6s.15-2.27.2-3.7c.06-1.43.08-3.1.08-5.01v-24.08c0-1.91-.03-3.58-.08-5.02-.06-1.43-.12-2.66-.2-3.7-.08-1.04-.18-1.9-.3-2.6-.12-.7-.25-1.28-.39-1.76v-.13h7.8v.13c-.13.47-.26,1.06-.37,1.76-.11.7-.21,1.57-.3,2.6-.09,1.04-.16,2.27-.2,3.7-.04,1.43-.07,3.1-.07,5.02v8.64c.9-.81,1.9-1.61,2.99-2.4,1.09-.79,2.22-1.5,3.39-2.13,1.17-.63,2.36-1.14,3.58-1.52s2.41-.57,3.58-.57c1.76,0,3.25.3,4.47.91,1.23.61,2.23,1.41,3,2.4.78.99,1.34,2.12,1.69,3.39.35,1.27.52,2.56.52,3.87v11.48c0,1.91.02,3.58.07,5.01s.11,2.66.2,3.7c.09,1.04.19,1.9.3,2.6.11.7.24,1.28.37,1.76v.14h-7.8v-.14c.14-.47.26-1.06.39-1.76.12-.7.22-1.56.3-2.6s.15-2.27.2-3.7c.06-1.43.08-3.1.08-5.01v-9.56Z"/>
      <path class="cls-71" d="m485.47,745.45c-2.5,0-4.84-.39-7.02-1.18s-4.09-1.94-5.71-3.46c-1.62-1.52-2.9-3.4-3.83-5.64-.93-2.24-1.4-4.8-1.4-7.68,0-2.54.43-4.9,1.28-7.08.85-2.17,2.04-4.06,3.55-5.66,1.51-1.6,3.27-2.85,5.28-3.75s4.19-1.35,6.53-1.35,4.47.4,6.45,1.2c1.98.8,3.7,1.96,5.15,3.48s2.6,3.4,3.44,5.64c.84,2.24,1.3,4.79,1.37,7.65-2.54-.04-5.09-.08-7.63-.1-2.54-.02-5.19-.03-7.94-.03-1.96,0-3.87.01-5.72.03-1.86.02-3.53.06-5.01.1.13,2.34.5,4.46,1.1,6.35.6,1.89,1.42,3.51,2.47,4.85,1.05,1.34,2.32,2.37,3.82,3.09,1.5.72,3.19,1.08,5.08,1.08,1.3,0,2.54-.15,3.7-.46,1.16-.3,2.21-.73,3.16-1.27.95-.54,1.79-1.18,2.53-1.91s1.37-1.53,1.89-2.38l.41.2-2.5,6.01c-1.22.63-2.67,1.17-4.36,1.6-1.69.44-3.71.66-6.08.66Zm-4.49-20.6c2.25,0,4.51,0,6.77-.02,2.26-.01,4.32-.05,6.16-.12-.2-1.96-.59-3.71-1.15-5.27-.56-1.55-1.28-2.87-2.16-3.95-.88-1.08-1.91-1.91-3.11-2.5-1.19-.58-2.51-.88-3.95-.88-1.31,0-2.5.29-3.6.86-1.09.57-2.04,1.4-2.85,2.48-.81,1.08-1.46,2.4-1.96,3.97-.5,1.57-.79,3.35-.88,5.35,1.01.05,2.08.07,3.21.07h3.51Z"/>
      <path class="cls-8" d="m507.83,723.47c0-1.91-.03-3.58-.08-5.01-.06-1.43-.12-2.66-.2-3.7-.08-1.04-.18-1.9-.3-2.6-.12-.7-.25-1.28-.39-1.76v-.13h7.8v.13c-.18.52-.33,1.15-.46,1.89-.12.74-.22,1.7-.29,2.87.83-.7,1.7-1.38,2.6-2.06.9-.68,1.82-1.27,2.77-1.79.95-.52,1.91-.93,2.89-1.25.98-.31,1.96-.47,2.96-.47.61,0,1.14.03,1.59.08.45.06.86.13,1.22.24s.69.21.98.34c.29.12.57.24.84.35l-1.66,6.45-.57-.14c-.27-.99-.78-1.78-1.52-2.38-.74-.6-1.76-.89-3.04-.89-.7,0-1.43.12-2.2.37-.77.25-1.54.59-2.33,1.03s-1.58.95-2.36,1.52c-.79.57-1.55,1.18-2.3,1.81-.04.65-.07,1.36-.07,2.13v11.14c0,1.91.02,3.58.07,5.01s.11,2.66.2,3.7c.09,1.04.19,1.9.3,2.6.11.7.24,1.28.37,1.76v.14h-7.8v-.14c.14-.47.26-1.06.39-1.76.12-.7.22-1.56.3-2.6s.15-2.27.2-3.7c.06-1.43.08-3.1.08-5.01v-8.17Z"/>
      <path class="cls-86" d="m557.27,707.56c0-2.23-.03-4.06-.08-5.5-.06-1.44-.14-2.65-.25-3.61-.9-.56-1.95-1.04-3.16-1.44-1.21-.39-2.57-.59-4.1-.59-.56,0-1.28.09-2.14.27-.87.18-1.71.58-2.53,1.2-.82.62-1.53,1.54-2.13,2.77-.6,1.23-.89,2.89-.89,4.98v4.63c1.37-.02,2.66-.05,3.87-.08,1.2-.03,2.28-.07,3.23-.12.95-.04,1.74-.09,2.4-.15.65-.06,1.11-.12,1.38-.19l-.61,3.44c-.9-.02-1.89-.06-2.97-.1-.95-.04-2.04-.08-3.28-.1-1.24-.02-2.58-.04-4.02-.07v18.74c0,1.91.03,3.58.08,5.01.06,1.43.12,2.66.2,3.7.08,1.04.18,1.9.3,2.6.12.7.25,1.28.39,1.76v.14h-7.8v-.14c.13-.47.26-1.06.37-1.76.11-.7.21-1.56.3-2.6s.16-2.27.2-3.7c.04-1.43.07-3.1.07-5.01v-18.74l-5.67.2v-2.97c.56.04,1.36.08,2.4.1,1.04.02,2.13.03,3.28.03v-3.88c0-1.58.2-2.98.59-4.22s.93-2.32,1.62-3.24c.69-.92,1.49-1.71,2.4-2.36.91-.65,1.87-1.18,2.89-1.59,1.01-.41,2.05-.7,3.11-.88,1.06-.18,2.09-.27,3.11-.27,1.08,0,2.04.05,2.89.15.84.1,1.64.22,2.4.35.75.14,1.49.25,2.2.35.71.1,1.47.15,2.28.15l4.56-.47v.13c-.13.47-.26,1.06-.39,1.76-.12.7-.23,1.57-.32,2.6-.09,1.04-.16,2.27-.2,3.7-.05,1.43-.07,3.1-.07,5.02v24.08c0,1.91.02,3.58.07,5.01.04,1.43.11,2.66.2,3.7s.2,1.9.32,2.6c.12.7.25,1.28.39,1.76v.14h-7.83v-.14c.13-.47.26-1.06.39-1.76.12-.7.23-1.56.32-2.6s.16-2.27.2-3.7.07-3.1.07-5.01v-24.08Z"/>
      <path class="cls-57" d="m571.04,734.88c0-1.78.37-3.32,1.1-4.63.73-1.3,1.71-2.42,2.92-3.34,1.22-.92,2.6-1.67,4.15-2.25,1.55-.57,3.16-1.02,4.83-1.35,1.67-.33,3.31-.55,4.93-.68,1.62-.12,3.11-.2,4.46-.22v-1.72c0-1.49-.19-2.77-.57-3.85-.38-1.08-.92-1.98-1.62-2.68-.7-.71-1.54-1.24-2.52-1.59-.98-.35-2.05-.52-3.22-.52-.81,0-1.61.07-2.4.2s-1.6.36-2.45.68c-.84.32-1.73.74-2.67,1.28-.93.54-1.94,1.23-3.02,2.06l-.34-.2,2.3-4.76c.74-.34,1.47-.61,2.2-.83.72-.21,1.45-.39,2.19-.52.74-.14,1.5-.23,2.28-.29.78-.06,1.59-.08,2.45-.08,2.36,0,4.38.29,6.06.86,1.68.57,3.05,1.36,4.12,2.36s1.85,2.17,2.35,3.51c.49,1.34.74,2.78.74,4.31v11.01c0,1.91.03,3.58.08,5.01.06,1.43.12,2.66.2,3.7s.18,1.9.3,2.6c.12.7.25,1.28.39,1.76v.14h-7.46v-.14c.11-.36.2-.76.25-1.21s.11-.99.15-1.62c-.47.41-1.03.82-1.67,1.25-.64.43-1.37.82-2.2,1.17-.82.35-1.73.63-2.73.84-1,.21-2.1.32-3.29.32-3.92,0-6.95-.92-9.08-2.75s-3.21-4.44-3.21-7.82Zm22.39-9.83c-2.05.02-4.02.14-5.91.35-1.89.21-3.56.66-5.01,1.33s-2.61,1.64-3.48,2.89c-.87,1.25-1.3,2.91-1.3,4.98,0,2.66.66,4.68,1.99,6.08,1.33,1.4,3.16,2.09,5.5,2.09,1.08,0,2.07-.15,2.96-.46.89-.3,1.68-.69,2.36-1.15.69-.46,1.27-.97,1.74-1.52.47-.55.83-1.09,1.08-1.6.04-.86.07-1.81.07-2.85v-10.15Z"/>
      <path class="cls-90" d="m632.03,722.08c0-1.49-.15-2.77-.46-3.85-.3-1.08-.74-1.98-1.32-2.68-.57-.71-1.27-1.24-2.08-1.59-.81-.35-1.71-.52-2.7-.52-.68,0-1.43.14-2.26.41-.83.27-1.69.64-2.58,1.1-.89.46-1.78,1-2.67,1.6-.89.61-1.73,1.26-2.52,1.96-.04.72-.07,1.49-.07,2.31v10.82c0,1.91.02,3.58.07,5.01s.11,2.66.2,3.7c.09,1.04.19,1.9.3,2.6.11.7.24,1.28.37,1.76v.14h-7.8v-.14c.14-.47.26-1.06.39-1.76.12-.7.22-1.56.3-2.6s.15-2.27.2-3.7c.06-1.43.08-3.1.08-5.01v-8.17c0-1.91-.03-3.58-.08-5.01-.06-1.43-.12-2.66-.2-3.7-.08-1.04-.18-1.9-.3-2.6-.12-.7-.25-1.28-.39-1.76v-.13h7.8v.13c-.18.52-.32,1.18-.42,1.98-.1.8-.21,1.81-.32,3.02.9-.72,1.87-1.43,2.9-2.13,1.04-.7,2.1-1.32,3.19-1.86,1.09-.54,2.19-.98,3.29-1.32,1.1-.34,2.2-.51,3.28-.51,1.28,0,2.42.17,3.41.51.99.34,1.86.8,2.6,1.38.74.59,1.37,1.27,1.88,2.06.51.79.89,1.63,1.17,2.53.92-.79,1.93-1.57,3.02-2.35,1.09-.78,2.22-1.47,3.38-2.08,1.16-.61,2.34-1.1,3.55-1.49s2.38-.57,3.53-.57c1.76,0,3.25.3,4.47.91,1.23.61,2.23,1.41,3,2.4.78.99,1.34,2.12,1.69,3.39.35,1.27.52,2.56.52,3.87v11.48c0,1.91.02,3.58.07,5.01.04,1.43.11,2.66.2,3.7s.2,1.9.32,2.6c.12.7.25,1.28.39,1.76v.14h-7.83v-.14c.13-.47.26-1.06.39-1.76.12-.7.23-1.56.32-2.6.09-1.04.16-2.27.2-3.7s.07-3.1.07-5.01v-9.56c0-2.97-.6-5.16-1.79-6.55-1.19-1.4-2.79-2.09-4.8-2.09-.7,0-1.47.14-2.31.41-.84.27-1.72.64-2.62,1.12-.9.47-1.8,1.02-2.7,1.64s-1.74,1.28-2.53,1.98c.04.27.07.54.07.81v12.26c0,1.91.03,3.58.08,5.01.06,1.43.12,2.66.2,3.7.08,1.04.18,1.9.3,2.6.12.7.25,1.28.39,1.76v.14h-7.8v-.14c.13-.47.26-1.06.37-1.76.11-.7.21-1.56.3-2.6s.16-2.27.2-3.7c.04-1.43.07-3.1.07-5.01v-9.56Z"/>
      <path class="cls-89" d="m685.76,745.45c-2.5,0-4.84-.39-7.02-1.18s-4.09-1.94-5.71-3.46c-1.62-1.52-2.9-3.4-3.83-5.64-.93-2.24-1.4-4.8-1.4-7.68,0-2.54.43-4.9,1.28-7.08.85-2.17,2.04-4.06,3.55-5.66,1.51-1.6,3.27-2.85,5.28-3.75s4.19-1.35,6.53-1.35,4.47.4,6.45,1.2c1.98.8,3.7,1.96,5.15,3.48s2.6,3.4,3.44,5.64c.84,2.24,1.3,4.79,1.37,7.65-2.54-.04-5.09-.08-7.63-.1-2.54-.02-5.19-.03-7.94-.03-1.96,0-3.87.01-5.72.03-1.86.02-3.53.06-5.01.1.13,2.34.5,4.46,1.1,6.35.6,1.89,1.42,3.51,2.47,4.85,1.05,1.34,2.32,2.37,3.82,3.09,1.5.72,3.19,1.08,5.08,1.08,1.3,0,2.54-.15,3.7-.46,1.16-.3,2.21-.73,3.16-1.27.95-.54,1.79-1.18,2.53-1.91s1.37-1.53,1.89-2.38l.41.2-2.5,6.01c-1.22.63-2.67,1.17-4.36,1.6-1.69.44-3.71.66-6.08.66Zm-4.49-20.6c2.25,0,4.51,0,6.77-.02,2.26-.01,4.32-.05,6.16-.12-.2-1.96-.59-3.71-1.15-5.27-.56-1.55-1.28-2.87-2.16-3.95-.88-1.08-1.91-1.91-3.11-2.5-1.19-.58-2.51-.88-3.95-.88-1.31,0-2.5.29-3.6.86-1.09.57-2.04,1.4-2.85,2.48-.81,1.08-1.46,2.4-1.96,3.97-.5,1.57-.79,3.35-.88,5.35,1.01.05,2.08.07,3.21.07h3.51Z"/>
      <path class="cls-30" d="m707.4,721.14c0-.5.1-.97.29-1.42.19-.45.44-.83.76-1.15s.69-.57,1.13-.76c.44-.19.92-.29,1.43-.29s1,.1,1.44.29c.44.19.82.44,1.15.76.33.32.58.7.78,1.15.19.45.29.92.29,1.42,0,1.04-.35,1.9-1.05,2.6s-1.57,1.05-2.6,1.05c-.52,0-1-.09-1.43-.29-.44-.19-.82-.45-1.13-.78s-.57-.71-.76-1.15c-.19-.44-.29-.92-.29-1.43Zm0,20.73c0-.5.1-.96.29-1.4.19-.44.44-.82.76-1.15s.69-.58,1.13-.78c.44-.19.92-.29,1.43-.29s1,.1,1.44.29c.44.19.82.45,1.15.78.33.33.58.71.78,1.15.19.44.29.91.29,1.4,0,1.04-.35,1.9-1.05,2.6s-1.57,1.05-2.6,1.05c-.52,0-1-.1-1.43-.29-.44-.19-.82-.45-1.13-.78-.32-.33-.57-.71-.76-1.15-.19-.44-.29-.92-.29-1.43Z"/>
    </g>
    <path class="cls-39" d="m151.09,971.64s.51-27.02-15.94-53.61c-16.45-26.58-5.65-57.43-5.65-57.43,0,0,2.06,33.41,16.45,48.83,0,0-14.91-39.07-10.28-55.52,4.63-16.45,23.13-39.58,13.36-52.95,0,0,33.41,50.89,20.56,82.25,0,0,5.14-6.68,5.14-11.82,0,0,11.25,24.9-3.6,53.97-12.34,24.16-9.97,33.52-20.05,46.26Z"/>
    <path class="cls-33" d="m155.19,518.48s.51-27.02-15.94-53.61c-16.45-26.58-5.65-57.43-5.65-57.43,0,0,2.06,33.41,16.45,48.83,0,0-14.91-39.07-10.28-55.52s23.13-39.58,13.36-52.95c0,0,33.41,50.89,20.56,82.25,0,0,5.14-6.68,5.14-11.82,0,0,11.25,24.9-3.6,53.97-12.34,24.16-9.97,33.52-20.05,46.26Z"/>
    <g>
      <path class="cls-3" d="m414.6,797.06s-30.18,21.25-8.5,56.53c21.68,35.28,31.45,39.53,31.03,59.5-.43,19.98-19.13,48.45-15.73,62.47,0,0,5.95-24.65,18.27-37.82,12.32-13.18,27.62-28.05,11.05-51.43,0,0,2.55,10.63,1.28,14.88,0,0,.43-14.88-28.48-37.82-28.9-22.95-20.4-47.6-8.92-66.3Z"/>
      <path class="cls-17" d="m413.47,894.28c-31.93-15.22-23.28-38.17-23.28-38.17-17.61,34.59,8.43,61.29,20.83,71.42-6.06-1.97-14.09-1.16-14.09-1.16,14.19,4.19,23.67,23.98,23.67,23.98.56-9.07,24.79-40.86-7.13-56.07Z"/>
    </g>
    <path class="cls-24" d="m986.5,883.1c0,6.44-6.44,14.82-6.44,14.82,14.5-35.39-17.99-90.59-24.61-101.25,9.44,16.97-12.32,44.64-17.91,64.52-5.8,20.62,12.88,69.58,12.88,69.58-18.04-19.33-20.62-61.21-20.62-61.21,0,0-13.53,38.66,7.09,71.98,3.19,5.15,5.86,10.31,8.11,15.35.54-4.05,1.45-6.69,1.45-6.69,0,0,1.08,17.61,8.67,25.74,0,0-7.86-20.59-5.42-29.26,2.44-8.67,12.19-20.86,7.04-27.91,0,0,17.61,26.82,10.84,43.35,0,0,2.71-3.52,2.71-6.23,0,0,3.6,8.04,1.44,18.87,2.29-6.62,5.33-14.37,10.26-24.02,18.61-36.44,4.51-67.65,4.51-67.65Z"/>
    <g>
      <path class="cls-56" d="m685.47,974.8s-32.02-5.62-32.02-27.26,16.44-33.32,5.19-41.97c0,0,11.68-2.6,13.41,18.61,0,0,14.28-19.91-5.63-44.14-19.91-24.23-12.12-39.38-3.03-49.77,9.09-10.39,18.61-18.17,15.15-32.45,0,0,9.09,8.22,6.92,16.44-2.16,8.22-23.37,28.99-5.19,38.95,0,0,19.88,5.68,11.68-14.71,0,0,17.31,6.06,22.07,18.61,4.76,12.55,9.52,32.89-22.5,64.91-32.02,32.02-6.06,52.8-6.06,52.8Z"/>
      <path class="cls-58" d="m717.58,902.96c12.31-13.57,7.84-29.7,7.84-29.7"/>
    </g>
    <path class="cls-14" d="m1273.6,946.05c1.51-5.39-5.39-9.27-5.39-9.27,5.17-3.66,3.73-16.09,3.73-16.09-1.16,4.6-4.37,6.89-4.37,6.89,10.92-16.81-1.45-33.23-6.48-38.8,2.77,6.76-3.63,27.38-19.35,20.42-18.14-8.05-12.89-33.33-.09-49.42,12.79-16.09-9.18-62.12-9.18-62.12,10.51,24.07-13.96,52.93-42.28,75.91-28.32,22.98,0,66.65,0,66.65-11.09-3.45-15.84-13.79-15.84-13.79,7.55,27.58,41.57,44.82,41.57,44.82.67.32,1.32.58,1.98.87-.23-.42-8.23-14.97-18.85-21.34,0,0,11.77,1.07,15.69,6.2-2.35-3.44-9.65-15.36-6.25-23.22,4.57-10.56,6.94-16.16,3.28-21.33,0,0,18.66,17.67,15.47,31.46-3.19,13.79,11.25,15.08,13.4,9.48,2.15-5.6,3.66-18.96-3.02-25.86,0,0,21.12,20.25,9.91,36.84,0,0,12.28-2.8,14.44-9.26,0,0-1.04,13.87-7.51,19.86,15.92-6.8,22.87-24.96,25.66-35.63-2.4,4.76-6.51,6.72-6.51,6.72Z"/>
    <path class="cls-87" d="m1799.6,946.89c-5.03,1.57-17.42,1.38-2.06-14.68,15.36-16.06,13-42.42,10.04-50.1-2.95-7.68,3.73-26.27,3.73-26.27,0,0-13.18,10.91-11.72,30.56s-15.05,32.34-19.78,19.63c-4.73-12.7,1.18-28.06,7.68-37.51,6.5-9.45,0-29.34,0-29.34,0,4.92-6.4,32.23-19.23,21.4-16.82-14.19,9.19-60.67,9.19-60.67,0,0-30.72,31.39-25.4,52.07,5.32,20.68-11.22,33.67-27.77,56.8-25.44,35.57-.69,61.65,24.22,63.94h0s-22.91-16.44-15.46-37.11c7.45-20.68,16.31-22.08,21.63-34.97,0,0-8.27,26.36,0,31.25,8.27,4.89,21.27-3.78,19.5-16.58,0,0,3.55,20.02.16,25.02-3.95,5.83-4.22,9.93-1.94,11.81,5.02,4.13,12.62-4.91,8.27-10.83,0,0,14.71,13.71,1.16,30.88,23.38-3.98,31.58-30.27,33.86-40.21-2.69,8.01-11.72,13.54-16.09,14.9Z"/>
    <path class="cls-10" d="m2018.13,976.53h0s2.59-17.54-7.33-41.97c0,0,11.73,7.4,10.58,16.58,0,0,10.46-17.34,2.8-30.35-7.65-13.01,2.1-16.45,2.1-16.45,0,0-.57,13.39,6.69,13.77,0,0,8.8-3.06,2.68-19.51,0,0,14.15,21.57,8.8,33.16,0,0,10.33-7.91,8.8-14.8,0,0,4.52,19.13.15,26.01,0,0,9.19-4.05,12.85-9.79,0,0-19.13,27.65-2.79,41.02,11.66-8.72,14.26-32.76,14.26-32.76,0,0-4.97,10.78-7.33,6.4-6.14-11.43,14.16-55.73,14.16-55.73-5.34,3.43-14.61,11.67-16.91,16.98,3.84-16.76-11.59-47.22-11.59-47.22,4.08,26.01-6.63,32.68-6.63,32.68,15.81-32.61-22.44-98.48-22.44-98.48,9.69,16.32,6.12,66.31-4.08,67.33-10.2,1.02-8.43-40.8-8.43-40.8,0,0-15.03,31.62-6.87,43.35,8.16,11.73,4.06,28.36,4.06,28.36-2.06-16.02-29.56-18.67-29.56-18.67,0,0,19.38,9.18,9.18,38.26-6.27,17.88,5.49,51.4,26.84,62.62Z"/>
    <path class="cls-38" d="m2331.19,948.86s20.5-15.99,23.06-51.22c2.56-35.23-20.5-30.75-28.19-55.73-7.69-24.98,4.48-45.48,4.48-45.48,0,0-39.72,21.14-31.39,64.7,8.33,43.56-9.61,49.32-27.55,39.08-17.94-10.25-14.73-48.68-14.73-48.68,0,0-29.47,45.48,6.41,76.23,0,0-14.73,8.33-28.83-18.58,0,0,9.28,58.57,58.74,67.01-20.36-9.06-29.6-35.94-29.6-35.94,0,0,13.25,17.85,22.48,17.97,9.23.12-7.77-14.29-7.68-26.78,0,0,12.11,18.1,23.64,8.81,11.53-9.29,18.26-24.66,12.01-44.36,0,0,13.93,28.19,7.69,44.36-6.25,16.17-.96,23.86,11.05,19.06,0,0-2.87,11.68-16.57,16.89h0c43.46-8,53.4-61.57,53.4-61.57,0,0-10.25,27.17-38.44,34.24Z"/>
    <path class="cls-25" d="m2615.15,942.28c-.86-10.26-20.95-16.25-9.83-25.23s15.39-35.06,15.39-35.06c0,0-9.28,15.7-16.86,8.12-7.57-7.57-4.52-14.11-4.52-14.11,15.82-37.2-23.94-80.38-23.94-80.38,23.52,43.61,4.7,104.33-7.87,90.64-12.58-13.68,6.16-50.03,6.16-50.03,0,0-23.28,19.86-20.53,32.07,3.42,15.18-4.18,23-8.12,20.95-8.42-4.37,2.35-15.39-2.56-23.52-4.92-8.12-3.74-19.24-3.74-19.24,0,0-13.36,31.64-12.02,49.01,1.34,17.37,14.48,32.22,2.94,36.74-11.54,4.51-17.96-25.47-17.96-25.47-6.41,38.91,30.79,61.57,30.79,61.57,2.51,1.4,4.96,2.62,7.35,3.71,0,0-9.17-10.87-7.56-24.02,0,0,1.98,9.62,7.56,7.38,5.58-2.25.13-12.19-1.47-17.64-1.6-5.45,1.92-15.39,6.09-19.56,0,0-4.49,11.54,0,16.99,4.49,5.45,6.73,9.93,6.73,9.93,0,0,1.92-16.02,7.38-23.07,5.45-7.06,8.34-12.51,8.34-17.32,0,0,2.89,10.26-4.81,22.13-7.7,11.86,0,21.17,0,21.17,0,0,16.35,4.81,15.07-13.47,0,0,9.62,21.48,2.89,26.94,0,0,10.26-1.28,8.98-9.3,0,0,4.64,17.5-4.09,24.78,13.07-3.62,20.23-10.78,20.23-10.78,12.4-5.56,15.39-33.97,15.39-33.97-2.57,9.64-15.39,10.02-15.39,10.02Z"/>
    <path class="cls-45" d="m2900,922.53c-7.51-24.68-8.05-33.8-2.68-42.39,0,0-20.39,11.27-17.17,38.63,0,0-5.41-20.63,4.83-37.56,4.8-7.94-2.79-17.17-2.79-17.17,2.15,8.05-3.76,20.93-4.29,6.98-.54-13.95-9.66-29.24-9.66-29.24,11.27,38.36-.54,41.72-.54,41.72,5.62-12.42-8.25-45.88-8.25-45.88,1.54,15.69-1.68,18.11-1.68,18.11-8.05-5.63-1.34-23.88-2.41-33.53-1.07-9.66-6.33-22.54-6.33-22.54,1.5,24.95-16.63,26.83-12.88,53.12,0,0-6.44-15.56,0-31.66,0,0-24.68,33.8-6.98,74.04,0,0-18.78-15.56-12.88-44.53,0,0-17.71,24.14-6.44,45.61,11.27,21.46-22,24.68-14.49-24.14,0,0-18.24,17.17-18.24,49.36,0,29.76,27.32,48.83,66.62,51.49-19.95-1.91-38.01-12.24-38.01-27.84,0-17.42,9.87-26.7,9.87-26.7-4.06,26.41,13.93,24.67,7.84,13.06-6.1-11.61,3.48-24.67,3.48-24.67-3.19,15.67,6.97,24.09,6.97,24.09-9.58-21.77,3.77-40.06,3.77-40.06-3.48,8.71,0,17.13,0,17.13-2.03-14.22,7.78-15.24,6.97-28.74,0,0,2.84,6.97,3.43,12.19.58,5.22-3.05,15.09,1.31,18.14,0,0,1.74-1.31.91-9.8,0,0,7.51,18.1,4.46,24.82,0,0,6.39-1.81.29-22.57,0,0,4.93,8.27,5.22,15.82s3.48.58,2.32-3.77c0,0,4.11,4.99,1.51,9.29-5.54,9.16-2.61,20.32-2.61,20.32-1.74-14.8,9.29-20.9,9.29-20.9-2.9,4.64-2.61,9.58,1.45,22.93,4,13.14-4.39,26.84-28.46,27.27.51,0,1.01.02,1.52.02,46.14,0,62.24-25.76,54.73-50.44Z"/>
    <path class="cls-47" d="m2900,469.37c-7.51-24.68-8.05-33.8-2.68-42.39,0,0-20.39,11.27-17.17,38.63,0,0-5.41-20.63,4.83-37.56,4.8-7.94-2.79-17.17-2.79-17.17,2.15,8.05-3.76,20.93-4.29,6.98-.54-13.95-9.66-29.24-9.66-29.24,11.27,38.36-.54,41.72-.54,41.72,5.62-12.42-8.25-45.88-8.25-45.88,1.54,15.69-1.68,18.11-1.68,18.11-8.05-5.63-1.34-23.88-2.41-33.53-1.07-9.66-6.33-22.54-6.33-22.54,1.5,24.95-16.63,26.83-12.88,53.12,0,0-6.44-15.56,0-31.66,0,0-24.68,33.8-6.98,74.04,0,0-18.78-15.56-12.88-44.53,0,0-17.71,24.14-6.44,45.61,11.27,21.46-22,24.68-14.49-24.14,0,0-18.24,17.17-18.24,49.36,0,29.76,27.32,48.83,66.62,51.49-19.95-1.91-38.01-12.24-38.01-27.84,0-17.42,9.87-26.7,9.87-26.7-4.06,26.41,13.93,24.67,7.84,13.06-6.1-11.61,3.48-24.67,3.48-24.67-3.19,15.67,6.97,24.09,6.97,24.09-9.58-21.77,3.77-40.06,3.77-40.06-3.48,8.71,0,17.13,0,17.13-2.03-14.22,7.78-15.24,6.97-28.74,0,0,2.84,6.97,3.43,12.19.58,5.22-3.05,15.09,1.31,18.14,0,0,1.74-1.31.91-9.8,0,0,7.51,18.1,4.46,24.82,0,0,6.39-1.81.29-22.57,0,0,4.93,8.27,5.22,15.82.29,7.55,3.48.58,2.32-3.77,0,0,4.11,4.99,1.51,9.29-5.54,9.16-2.61,20.32-2.61,20.32-1.74-14.8,9.29-20.9,9.29-20.9-2.9,4.64-2.61,9.58,1.45,22.93,4,13.14-4.39,26.84-28.46,27.27.51,0,1.01.02,1.52.02,46.14,0,62.24-25.76,54.73-50.44Z"/>
    <g>
      <path class="cls-34" d="m392.36,500.74s4.12-29.02,17.56-39.48c13.43-10.46,30.33-30.41,34.27-44.33s8.68-40.42-6.54-64.45c0,0-4.76,39.41-37.16,63.9-32.4,24.49-14.26,68.38-8.13,84.37Z"/>
      <path class="cls-54" d="m450.45,430.93s.5-5.71,7.9-13.86,4.71-17.84,4.71-17.84c0,0,5.99,12.11,1.15,18.95-4.84,6.84-9.16,4.31-13.75,12.75Z"/>
      <path class="cls-60" d="m434.73,479.75s2.16-3.31,9.32-5.88c7.16-2.56,8.67-9.34,8.67-9.34,0,0-.29,9.33-5.47,11.92-5.18,2.59-6.98-.35-12.53,3.29Z"/>
      <path class="cls-64" d="m408.76,513.83s-14.55-11.04-5.59-29.9c8.96-18.87,24.96-23.91,36.17-35.02,1.82-1.8,3.47-3.88,4.96-6.11,0,0,2.38,13.3-8.52,22.31-21.19,17.53-29.91,30.04-27.03,48.73Z"/>
    </g>
    <g>
      <path class="cls-35" d="m680.72,471.73c-8.93-.71-14.34-14.64-2.04-30.01,6.67-8.34,5.46-14.7,5.46-14.7,12.88,14.25-1.14,22.28.34,25.81,1.48,3.52,4.55.57,6.48-5,0,0,2.18,4.45,2.61,9.55,6.06-6.03,12.75-10.61,19.21-15.2,2.02-17.68-7.14-36.33-7.14-36.33-5.32,15.33-13.77,23.47-17.83,13.77-4.07-9.7,34.52-31.81-.94-71.03,0,0,3.34,17.52-15.02,40.47-35.32,44.15-17.59,84.03,8.87,82.68Z"/>
      <path class="cls-46" d="m688.69,517.72s-18.64-14.15-7.16-38.33c11.48-24.18,31.99-30.65,46.36-44.89,2.33-2.31,4.44-4.98,6.36-7.83,0,0,3.05,17.05-10.92,28.59-27.16,22.46-38.34,38.49-34.64,62.45Z"/>
    </g>
    <g>
      <path class="cls-11" d="m961.06,521.79s-20.05-15.22-7.7-41.22c12.35-26.01,34.41-32.96,49.86-48.28,2.5-2.48,4.78-5.35,6.84-8.42,0,0,3.28,18.34-11.74,30.76-29.22,24.16-41.23,41.4-37.26,67.17Z"/>
      <path class="cls-61" d="m956.59,464.24c-12.34-14.72-28.38-21.58-40.4-33.51-2.5-2.48-4.78-5.35-6.84-8.42,0,0-3.28,18.34,11.74,30.75,11.25,9.3,19.94,17.58,26.16,25.71,2.71-5.65,5.88-10.41,9.34-14.54Z"/>
      <path class="cls-81" d="m992.6,376.73c2.48,10.91-13.77,17.85-13.77,17.85,13.77-24.29-13.5-50.07-13.5-50.07,0,43.89-41,49.23-44.09,82.24,0,0,11.29,4.99,20.84,15.66-1.47-2.75-3.27-6.12-2.33-9.35,1.9-6.51,6.36-8,8.78-9.85,2.42-1.86,3.9-5.39,1.49-9.29,0,0,11.53,10.22,4.09,16.92-7.44,6.69-6.88,9.85-3.16,11.9,3.72,2.05,16.36-.19,20.45-15.43,0,0,4.35,12.4,2.06,19.76,0,0,10.88-12.17,28.61-22.4-.32-22.3-9.47-47.92-9.47-47.92Z"/>
    </g>
    <g>
      <path class="cls-51" d="m1186.14,478.66c1.12,11.35,6.79,14.98,6.79,14.98h0c1.16-7.55,5.44-16.52,15.54-26.62,31.83-31.83,27.09-52.04,22.36-64.51-4.73-12.47-21.94-18.49-21.94-18.49,8.15,20.27-11.61,14.62-11.61,14.62-18.06-9.89,3.01-30.54,5.16-38.71,2.15-8.17-6.88-16.34-6.88-16.34,3.44,14.19-6.02,21.93-15.05,32.26-9.03,10.32-16.77,25.37,3.01,49.46,19.78,24.09,5.59,43.87,5.59,43.87-1.72-21.07-13.33-18.49-13.33-18.49,11.18,8.6-5.16,20.21-5.16,41.72s31.83,27.1,31.83,27.1c-26.65-18.54-16.32-40.83-16.32-40.83Z"/>
      <path class="cls-66" d="m1270.76,498.16c25.32-24.15-.29-66.63-.29-66.63,7.27,24.17-7.57,50.62-18.33,49.46s-18.92-13.68-3.2-41.28c15.71-27.6,10.91-46.46,10.91-46.46-.44,7.42-3.93,13.24-3.93,13.24,7.27-19.21-4.95-37.54-4.95-37.54,0,0,4.66,13.1-5.53,15.13-10.18,2.04-7.86-24.15-7.86-24.15-4.66,7.86-7.57,20.66,0,49.18,6.17,23.26-7.41,45.94-20.36,62.99h0s-17.07,25.18,5.63,31.58c16.26,4.59,27.93-11.93,27.93-11.93,0,0,0,16.3-9.6,21.82,0,0,11.06-2.62,13.68-10.48l-4.86,19.61c29.55-7.76,33.56-39.98,33.56-39.98-3.2,10.48-12.8,15.42-12.8,15.42Z"/>
    </g>
    <g>
      <path class="cls-70" d="m1807.67,506.55s-5.63-11.06-27.97-25.21c-22.35-14.15-31.19-29.83-32.41-37.59,0,0,26.16,26.09,40.04,26.15,0,0-65.41-35.22-50.6-97.7,0,0,20.68,43.07,42.62,57.53,21.94,14.46,27.38,61.37,28.32,76.82Z"/>
      <path class="cls-1" d="m1731.64,418.09s-20.85-22.19-17.32-50.96c0,0-21.66,87.38,19.67,114.44,0,0-14.71-.53-21.94-13.43,0,0,7.66,26.36,39.49,33.17,31.84,6.81,54.49,22.84,54.49,22.84,0,0-1.62-24.26-21.3-30.49-29.16-9.23-58.88-15.28-68.31-85.84,0,0,4.94,11.76,15.22,10.28Z"/>
      <path class="cls-49" d="m1741.53,342.15c-.96,6.28.52,15.16,3.59,24.76.16.31,9.26,17.92,17.3,22.43,0,0-10.35-4.7-12.18-8.99,8.28,18.81,20.95,37.21,32.25,42.49,19.96,9.32,25.9,44.05,25.9,44.05,8.92-81.09-66.85-124.75-66.85-124.75Z"/>
    </g>
    <path class="cls-83" d="m2341.79,395.59c3.52,15.51-19.57,25.37-19.57,25.37,19.57-34.54-19.19-71.19-19.19-71.19,0,64.84-62.97,70.48-62.97,122.6,0,24.54,16.15,38.17,36.32,43.21-.07-.04-24.7-15.37-18.37-37.27,0,0,5.82,20.62,12.42,18.64,6.61-1.99-6.46-12.03-3.76-21.28,2.7-9.25,9.04-11.37,12.48-14.01,3.44-2.64,5.55-7.66,2.11-13.22,0,0,16.39,14.54,5.81,24.05-10.57,9.52-9.78,14.01-4.49,16.91,5.29,2.91,23.26-.26,29.07-21.94,0,0,8.72,24.84,0,33.04,0,0,4.23,4.23,12.69-2.64,0,0-1.97,14.05-13.14,18.65,12.02-2.11,23.16-6.62,31.12-13.1,29.44-23.96-.54-107.83-.54-107.83Z"/>
    <g>
      <path class="cls-21" d="m2591.22,482.01s13.63-10.91,15.68-25.22c2.04-14.31,0-33.4,0-33.4,0,0,25.22,44.99-15.68,58.62Z"/>
      <path class="cls-62" d="m2532.45,511.71s-12.11-20.45-5.3-38.17c6.82-17.72,27.95-43.62,23.17-70.21,0,0-6.89,22.95-25.26,44.53-18.37,21.59-7.77,39.99,7.38,63.84Z"/>
      <path class="cls-5" d="m2584.06,485.16c-10.22-20.45,51.8-44.53-10.22-141.55,0,0,14.83,54.48-19.09,94.52-29.42,34.73-26.65,77.95,3.94,83.96,1.42.28,2.83.46,4.24.6h0s-18.4-8.22-16.36-29.35c2.05-21.13,12.27-24.67,16.36-37.89,0,0-5.91,30.61,0,42.67,4.01,8.18,17.72,11.52,24.54,2.73,0,0-.23,14.81-8.98,20.7h0c21.72-5.41,38.29-25.55,38.29-41.6,0,0-22.49,25.68-32.72,5.23Z"/>
    </g>
    <g>
      <path class="cls-12" d="m1496.05,521.12s-17.84-13.54-6.85-36.67c10.99-23.13,30.61-29.32,44.35-42.95,2.23-2.21,4.25-4.76,6.08-7.49,0,0,2.92,16.31-10.44,27.36-25.99,21.49-36.68,36.83-33.14,59.75Z"/>
      <path class="cls-41" d="m1478.62,518.16s-27.47-20.85-10.55-56.47c16.91-35.62,47.14-45.15,68.3-66.13,3.43-3.4,6.55-7.33,9.37-11.54,0,0,4.49,25.11-16.08,42.12-40.02,33.09-56.48,56.71-51.03,92.01Z"/>
      <path class="cls-55" d="m1457.67,481.04s1.56-30.9,27.95-52.74c0,0,27.02-23.44,24.31-50.08,0,0-2.63,17.05-15.72,25.04-13.1,7.99-18.87-38.89,0-58.07,0,0-24.61,16.52-31.64,63.93,0,0-10.76-6.49-3.83-25.09,0,0-10.13,13.22-13.53,41.06-2.45,20.09,7.49,26,12.46,55.95Z"/>
    </g>
    <path class="cls-26" d="m1529.93,927.5c7.2-10.08,3.6-20.52,3.6-20.52-7.2,1.44-13.68,7.92-13.68,7.92,11.88-12.96,7.56-41.76,7.56-41.76-1.08,3.96-5.76,5.76-10.8,8.28-4.4,2.2-8.24,12.89-9.16,15.58,5.44-15.36,1.84-33.82-6.69-51.94-8.64-18.36-13.32-43.2-13.32-43.2-1.8,9-3.24,8.28-17.28,35.23-14.04,26.95,1.91,55.8,5.76,62.69,6.84,12.24.96,36.6-16.41,18.24-16.8-17.76-1.44-49.68-1.44-49.68,0,0-23.04,25.56-11.05,64.44,0,0,7.45,25.92,27.61,34.56,3.8,1.63,7.64,2.72,11.36,3.42,0,0-14.24-12.06-16.76-23.58,0,0,8.64,11.16,12.96,8.28,4.32-2.88-3.6-17.28.36-25.2,3.96-7.92,11.88-16.56,11.88-21.24,0,0,3.6,6.84,3.6,15.48s-4.13,8.84-2.11,12.6c2.02,3.76,12.67-4.2,14.47-11.76,0,0-6.21,20.08-3.36,21.75,4.75,2.79,8.64-10.71,14.64-10.71,0,0-3.48,12.96-6.36,16.92,0,0,5.76.67,9.36-3.62,0,0-.72,12.99-8.64,19.83,32.25-4.68,32.25-67.92,32.25-67.92-4.68,20.88-18.36,25.92-18.36,25.92Z"/>
    <path class="cls-44" d="m2062.7,389.36c1.89,18.28-9.46,25.21-9.46,25.21-.63-46.02-24.58-65.56-24.58-65.56,5.04,17.65-8.19,23.95-31.52,59.88-23.32,35.93-1.26,73.12-1.26,73.12-11.35-1.26-19.54-22.06-19.54-22.06,4.71,44.75,34.76,55,49.65,57.32-6.1-3.28-12.41-9.88-13.81-23.17,0,0,3.73,9.47,8.9,10.04,0,0-10.04-16.93.57-33.29,10.62-16.36,16.64-19.23,14.35-27.26,0,0,10.9,8.9,11.19,29.84,0,0,5.17-3.16,4.3-11.48,0,0,14.81,31.75-1.54,52.45,50.38-44.39,12.75-125.07,12.75-125.07Z"/>
  </g>
</svg>